<svg xmlns="http://www.w3.org/2000/svg" width="11" height="10" viewBox="0 0 11 10">
  <path fill="#E38500" d="M4.67693338,17.6697962 L5.22196183,17.1614381 C5.45273965,16.9461873 5.82591229,16.9461873 6.05423502,17.1614381 L10.8269166,21.6107167 C11.0576945,21.8259675 11.0576945,22.1740325 10.8269166,22.3869934 L6.05423502,26.8385619 C5.8234572,27.0538127 5.45028457,27.0538127 5.22196183,26.8385619 L4.67693338,26.3302038 C4.44370048,26.1126632 4.44861065,25.7577284 4.68675371,25.5447676 L7.64512889,22.9159606 L0.589219953,22.9159606 C0.262693896,22.9159606 0,22.6709411 0,22.3663842 L0,21.6336158 C0,21.3290589 0.262693896,21.0840394 0.589219953,21.0840394 L7.64512889,21.0840394 L4.68675371,18.4552324 C4.44615556,18.2422716 4.4412454,17.8873368 4.67693338,17.6697962 Z" transform="rotate(180 5.5 13.5)"/>
</svg>
