<svg xmlns="http://www.w3.org/2000/svg" width="18" height="20" viewBox="0 0 18 20">
  <path fill="#fff" d="M23.5035152,17.2056332 L24.4944761,16.2905885 C24.9140721,15.9031372 25.5925678,15.9031372 26.0077,16.2905885 L34.685303,24.2992901 C35.104899,24.6867415 35.104899,25.3132585 34.685303,25.696588 L26.0077,33.7094115 C25.588104,34.0968628 24.9096083,34.0968628 24.4944761,33.7094115 L23.5035152,32.7943668 C23.0794554,32.4027937 23.088383,31.7639112 23.5213704,31.3805816 L28.9002343,26.6487291 L16.071309,26.6487291 C15.4776253,26.6487291 15,26.2076941 15,25.6594916 L15,24.3405084 C15,23.7923059 15.4776253,23.3512709 16.071309,23.3512709 L28.9002343,23.3512709 L23.5213704,18.6194184 C23.0839192,18.2360888 23.0749916,17.5972063 23.5035152,17.2056332 Z" transform="rotate(-90 9.5 25.5)"/>
</svg>
