<svg xmlns="http://www.w3.org/2000/svg" width="13" height="12" viewBox="0 0 13 12">
  <path fill="#E8444C" d="M269.713176,4.00925221 L270.309395,3.45387096 C270.561847,3.21870953 270.970069,3.21870953 271.219836,3.45387096 L276.440773,8.31470776 C276.693225,8.54986919 276.693225,8.93013023 276.440773,9.16278994 L271.219836,14.0261285 C270.967383,14.2612899 270.559162,14.2612899 270.309395,14.0261285 L269.713176,13.4707472 C269.458038,13.2330841 269.463409,12.8453179 269.723919,12.6126582 L272.960148,9.74068665 L265.241541,9.74068665 C264.884347,9.74068665 264.596981,9.47300289 264.596981,9.14027448 L264.596981,8.33972493 C264.596981,8.00699653 264.884347,7.73931277 265.241541,7.73931277 L272.960148,7.73931277 L269.723919,4.86734126 C269.460724,4.63468155 269.455352,4.24691536 269.713176,4.00925221 Z" transform="translate(-264 -3)"/>
</svg>
