<svg width="150" height="26" viewBox="0 0 150 26" fill="none" xmlns="http://www.w3.org/2000/svg">
<g clip-path="url(#clip0_111_253)">
<mask id="mask0_111_253" style="mask-type:luminance" maskUnits="userSpaceOnUse" x="0" y="0" width="150" height="26">
<path d="M150 0H0V25.7511H150V0Z" fill="white"/>
</mask>
<g mask="url(#mask0_111_253)">
<path d="M146.166 16.8256H148.9V3.24137H146.439L141.483 9.29432L136.525 3.24137H134.066V16.8256H136.798V7.65514L141.228 13.1192H141.718L146.166 7.65514V16.8256ZM122.688 3.24137H119.954V11.0883C119.954 14.5459 122.029 17.0411 125.964 17.0411C129.9 17.0411 132.035 14.2848 132.035 11.0883V3.24137H129.301V10.891C129.301 12.9886 128.209 14.4488 125.964 14.4488C123.72 14.4488 122.684 13.0706 122.684 10.9123L122.688 3.24137ZM115.208 16.8256H117.943V3.24137H115.208V16.8256ZM109.105 11.5103C110.292 11.8503 111.001 12.2115 111.001 12.9492C111.001 13.8599 110.111 14.4669 108.5 14.4669C107.045 14.4357 105.627 13.9934 104.402 13.189L103.758 15.8482C105.21 16.6052 106.812 17.0083 108.441 17.026C111.644 17.026 113.847 15.2866 113.847 12.7306C113.847 10.7908 112.661 9.67376 110.289 8.97559L107.83 8.25617C106.872 7.9769 106.386 7.67638 106.386 6.93565C106.386 6.19499 107.089 5.61823 108.758 5.61823C110.191 5.63131 111.595 6.02346 112.836 6.75655L113.616 4.1399C112.129 3.41713 110.502 3.04869 108.856 3.06227C105.205 3.06227 103.545 4.92005 103.545 7.17546C103.545 9.01505 104.58 10.2718 106.591 10.8182L109.105 11.5103ZM92.0085 10.0532C92.0085 7.55497 93.7467 5.69715 96.1608 5.69715C98.5744 5.69715 100.298 7.55497 100.298 10.0532C100.298 12.5515 98.5982 14.4093 96.1608 14.4093C93.7229 14.4093 92.0085 12.509 92.0085 10.0532ZM89.3162 10.0532C89.2943 10.9763 89.4553 11.8942 89.7907 12.7514C90.1254 13.6087 90.6269 14.3873 91.2649 15.0402C91.9029 15.693 92.6632 16.2065 93.5008 16.5494C94.3383 16.8923 95.2351 17.0576 96.137 17.0351C100.06 17.0351 102.987 14.039 102.987 10.0532C102.987 6.06749 100.06 3.04102 96.137 3.04102C92.2132 3.04102 89.3162 6.03714 89.3162 10.0532ZM83.8325 5.67894C85.1787 5.67894 86.2525 6.55621 86.2525 8.17422C86.2654 8.50222 86.2119 8.82952 86.0947 9.13512C85.9776 9.44072 85.7993 9.71806 85.572 9.94937C85.3441 10.1806 85.0718 10.3609 84.7724 10.4786C84.4731 10.5963 84.1531 10.6489 83.8325 10.633H80.6503V5.67894H83.8325ZM77.9194 16.8256H80.6503V13.0706H84.2626C86.8576 13.0706 89.0819 11.2493 89.0819 8.19546C89.0819 4.79862 86.8576 3.24137 84.2626 3.24137H77.9194V16.8256Z" fill="#2F3242"/>
<path d="M55.7248 16.856V14.3972H47.8304V11.1035H54.2984V8.64166H47.8304V5.70323H55.7248V3.24137H45.2207V16.856H55.7248ZM40.2859 16.856H43.0202V3.24137H40.5587L35.5944 9.31254L30.63 3.24137H28.1685V16.856H30.9028V7.66119L35.3512 13.1435H35.8405L40.2889 7.66119L40.2859 16.856ZM15.8169 10.0623C15.8169 7.56404 17.5547 5.70323 19.9687 5.70323C22.3827 5.70323 24.1205 7.56404 24.1205 10.0623C24.1205 12.5607 22.4212 14.4245 19.9687 14.4245C17.5162 14.4245 15.8169 12.5242 15.8169 10.0623ZM13.1182 10.0623C13.0975 10.985 13.2598 11.9024 13.5952 12.759C13.9307 13.6157 14.4324 14.3938 15.0699 15.0464C15.7075 15.699 16.4676 16.2125 17.3046 16.5559C18.1415 16.8993 19.0377 17.0654 19.939 17.0442C23.8684 17.0442 26.7985 14.045 26.7985 10.0623C26.7985 6.07964 23.8684 3.04102 19.939 3.04102C16.0097 3.04102 13.1182 6.04322 13.1182 10.0623Z" fill="#2F3242"/>
<path d="M11.7272 5.09004C10.8376 3.7817 9.29548 3.04102 7.1958 3.04102C3.26938 3.04102 0.357178 5.64252 0.357178 10.0623C0.357178 14.4821 3.26938 17.0442 7.1958 17.0442C9.21572 17.0193 11.1564 16.2361 12.6496 14.8434L11.3595 12.7428C10.2429 13.8046 8.78477 14.4105 7.26108 14.4457C4.81742 14.4457 3.19524 12.8429 3.19524 10.0623C3.19524 7.28175 4.81742 5.64252 7.16317 5.64252C8.26641 5.64252 9.0345 6.02197 9.51488 6.67763L11.7272 5.09004Z" fill="#2F3242"/>
<path d="M62.5281 10.1348L56.0809 1.95387C56.0809 1.95387 55.3039 0.958189 56.7867 0.864088C58.2695 0.769987 61.6888 0.864088 61.6888 0.864088C62.2822 0.886453 62.8447 1.14065 63.2606 1.57442C64.1503 2.48509 69.9863 10.1408 69.9863 10.1408L62.5281 10.1348Z" fill="#B52873"/>
<path d="M62.5281 10.1348L56.0809 1.95387C56.0809 1.95387 55.3039 0.958189 56.7867 0.864088C58.2695 0.769987 61.6888 0.864088 61.6888 0.864088C62.2822 0.886453 62.8447 1.14065 63.2606 1.57442C64.1503 2.48509 69.9863 10.1408 69.9863 10.1408L62.5281 10.1348Z" fill="url(#paint0_linear_111_253)"/>
<path d="M69.9714 10.1403L58.0381 24.3348C58.0381 24.3348 57.4064 25.0451 55.8613 25.0451H51.3329C51.2358 25.0417 51.1409 25.0149 51.0559 24.967C50.9709 24.9189 50.8981 24.8511 50.8435 24.7689C50.7012 24.5624 50.6923 24.2589 51.0541 23.7671C51.748 22.82 62.528 10.1343 62.528 10.1343L69.9714 10.1403Z" fill="#B52873"/>
<path d="M69.9714 10.1403L58.0381 24.3348C58.0381 24.3348 57.4064 25.0451 55.8613 25.0451H51.3329C51.2358 25.0417 51.1409 25.0149 51.0559 24.967C50.9709 24.9189 50.8981 24.8511 50.8435 24.7689C50.7012 24.5624 50.6923 24.2589 51.0541 23.7671C51.748 22.82 62.528 10.1343 62.528 10.1343L69.9714 10.1403Z" fill="url(#paint1_linear_111_253)"/>
<path d="M70.8464 9.59792L68.0112 6.01594C68.0112 6.01594 69.4288 4.21887 69.6928 3.86978C69.8962 3.63169 70.1454 3.43979 70.4254 3.30646C70.7054 3.17314 71.0093 3.10134 71.3183 3.0957H74.6988C74.8243 3.09991 74.946 3.13958 75.0509 3.2103C75.1552 3.28103 75.2389 3.38006 75.2917 3.4964C75.34 3.60401 75.3567 3.7237 75.3393 3.84073C75.322 3.95777 75.2711 4.06705 75.1939 4.15513C74.5089 4.98991 70.8554 9.59792 70.8554 9.59792" fill="#2F3242"/>
<path d="M70.8464 11.0669L68.0112 14.5761L69.067 16.0756C69.067 16.0756 69.8202 17.0319 70.9417 17.0319H74.1503C74.2713 17.0341 74.3904 17.001 74.4934 16.9366C74.5971 16.8722 74.6801 16.7789 74.7335 16.6678C74.787 16.5567 74.8089 16.4323 74.7954 16.3092C74.7825 16.1861 74.7355 16.0692 74.6602 15.9724C74.1445 15.3197 70.8464 11.0669 70.8464 11.0669Z" fill="#2F3242"/>
</g>
</g>
<defs>
<linearGradient id="paint0_linear_111_253" x1="66.5821" y1="7.6699" x2="54.2906" y2="1.67612" gradientUnits="userSpaceOnUse">
<stop stop-color="#B52873"/>
<stop offset="0.99" stop-color="#B56780"/>
</linearGradient>
<linearGradient id="paint1_linear_111_253" x1="50.7516" y1="17.5897" x2="69.9714" y2="17.5897" gradientUnits="userSpaceOnUse">
<stop stop-color="#B52873"/>
<stop offset="0.99" stop-color="#B56780"/>
</linearGradient>
<clipPath id="clip0_111_253">
<rect width="150" height="25.7511" fill="white"/>
</clipPath>
</defs>
</svg>
