<svg width="164" height="50" viewBox="0 0 164 50" fill="none" xmlns="http://www.w3.org/2000/svg">
<path d="M47.5045 22.7463C47.1056 22.3668 46.635 22.0702 46.1208 21.8738C45.6065 21.6773 45.0582 21.5849 44.5077 21.6019C42.527 21.6019 41.2338 23.0624 41.2338 25.1712C41.2338 27.3355 42.6396 28.741 44.6003 28.741C45.7347 28.7666 46.8374 28.3638 47.6882 27.6128V30.0337C46.7251 30.5973 45.6232 30.8792 44.5077 30.8476C41.0674 30.8476 38.8296 28.5169 38.8296 25.1695C38.8296 21.8031 41.1603 19.4913 44.5077 19.4913C45.5549 19.4635 46.5906 19.7191 47.5045 20.2312V22.7463Z" fill="#2F3242"/>
<path d="M55.4964 19.4908C56.618 19.4981 57.7117 19.8374 58.6406 20.4658C59.5695 21.0942 60.2917 21.9836 60.7154 23.0218C61.1395 24.0599 61.2467 25.2004 61.0233 26.2994C60.8 27.3984 60.2563 28.4066 59.4611 29.197C58.6654 29.9873 57.6537 30.5244 56.5531 30.7405C55.4525 30.9566 54.313 30.8419 53.2773 30.4111C52.2421 29.9803 51.3576 29.2525 50.7353 28.3195C50.1131 27.3866 49.7808 26.2903 49.7808 25.1689C49.7633 24.4152 49.8995 23.6659 50.181 22.9666C50.4624 22.2673 50.8835 21.6327 51.4182 21.1014C51.9529 20.5701 52.5906 20.1532 53.2914 19.8763C53.9927 19.5994 54.7431 19.4682 55.4964 19.4908ZM55.4964 21.6C53.61 21.6 52.1857 23.005 52.1857 25.1693C52.1857 27.3336 53.61 28.7391 55.4964 28.7391C57.3829 28.7391 58.8063 27.3332 58.8063 25.1693C58.8063 23.0055 57.3829 21.6 55.4964 21.6Z" fill="#2F3242"/>
<path d="M71.4217 27.0745V19.6758H73.6784V30.6628H71.4589L66.3527 23.356V30.6628H64.0959V19.6758H66.4637L71.4217 27.0745Z" fill="#2F3242"/>
<path d="M77.4411 27.7216C78.2765 28.4263 79.3271 28.8243 80.4196 28.8498C81.3634 28.8498 82.1958 28.517 82.1958 27.6107C82.1958 26.7783 81.5116 26.464 80.3641 26.1309C78.1633 25.5203 77.2566 24.5955 77.2566 22.746C77.2566 20.6556 78.8851 19.4887 80.9197 19.4887C81.9532 19.4605 82.9718 19.7443 83.8422 20.3031V22.6143C83.0585 21.9087 82.0472 21.5084 80.9931 21.4867C80.0501 21.4867 79.5325 21.9484 79.5325 22.6311C79.5325 23.408 80.1616 23.7223 81.4373 24.0739C83.6381 24.7029 84.4892 25.6837 84.4892 27.5328C84.4892 29.8265 82.6767 30.8437 80.42 30.8437C79.3719 30.8639 78.3397 30.5882 77.4415 30.0483L77.4411 27.7216Z" fill="#2F3242"/>
<path d="M87.8225 19.6758H90.1715V26.335C90.1715 28.2951 91.0777 28.888 92.5025 28.888C93.1534 28.8901 93.8038 28.8345 94.4453 28.7217V19.6758H96.7934V30.3115C95.3896 30.66 93.949 30.8401 92.5025 30.8481C90.0053 30.8481 87.8225 29.9048 87.8225 26.8157V19.6758Z" fill="#2F3242"/>
<path d="M100.884 19.6758H103.232V28.6112H107.542V30.6641H100.884V19.6758Z" fill="#2F3242"/>
<path d="M114.05 30.662H111.737V21.7297H108.352V19.6768H117.435V21.7297H114.049L114.05 30.662Z" fill="#2F3242"/>
<path d="M121.422 28.3326L120.571 30.6632H118.111L122.365 19.6763H125.194L129.485 30.6632H126.932L126.083 28.3326H121.422ZM123.771 21.9501L122.125 26.4262H125.399L123.771 21.9501Z" fill="#2F3242"/>
<path d="M139.692 27.0745V19.6758H141.949V30.6628H139.729L134.624 23.356V30.6628H132.368V19.6758H134.735L139.692 27.0745Z" fill="#2F3242"/>
<path d="M150.645 30.662H148.333V21.7297H144.948V19.6768H154.03V21.7297H150.645V30.662Z" fill="#2F3242"/>
<path d="M156.824 27.7216C157.66 28.4263 158.71 28.8243 159.803 28.8498C160.746 28.8498 161.579 28.517 161.579 27.6107C161.579 26.7783 160.895 26.464 159.747 26.1309C157.546 25.5203 156.64 24.5955 156.64 22.746C156.64 20.6556 158.268 19.4887 160.303 19.4887C161.336 19.4605 162.355 19.7443 163.225 20.3031V22.6143C162.442 21.9087 161.43 21.5084 160.376 21.4867C159.433 21.4867 158.916 21.9484 158.916 22.6311C158.916 23.408 159.545 23.7223 160.82 24.0739C163.021 24.7029 163.872 25.6837 163.872 27.5328C163.872 29.8265 162.06 30.8437 159.803 30.8437C158.755 30.8639 157.723 30.5882 156.825 30.0483L156.824 27.7216Z" fill="#2F3242"/>
<path d="M9.82522 34.687C10.2749 34.6201 10.7203 34.5266 11.1589 34.407C12.2112 34.1011 13.2116 33.6392 14.127 33.0368C18.3715 30.0494 18.3601 26.9911 18.3601 24.6485C18.3601 24.1248 18.3754 23.6318 18.3754 23.6009C18.5299 19.6791 21.1111 17.0504 24.8534 17.0504C27.2038 17.0504 29.4148 18.3942 30.8894 19.7627V15.1304C29.2049 14.0775 27.0639 13.5511 24.6069 13.5511C19.0229 13.5511 13.7788 17.1785 13.7788 23.2915C13.7788 23.8761 13.8008 24.4012 13.8012 24.4408C13.648 29.0577 10.8583 31.501 6.86686 31.501C6.13048 31.501 5.25236 31.4658 4.58593 31.3954V17.3946C5.28545 17.3238 5.98814 17.2886 6.69124 17.2894C9.25784 17.2894 11.269 18.1697 12.49 19.7543C12.7924 18.0038 13.3435 17.094 14.3387 15.6454C12.358 14.287 9.69274 13.5493 6.41086 13.5493C4.30983 13.5724 2.21223 13.7256 0.130127 14.008V34.6077C2.19467 34.9429 4.28476 35.0954 6.3761 35.0633C7.86961 35.0778 9.35851 34.895 10.8041 34.5197L9.82522 34.687Z" fill="#2F3242"/>
<path d="M27.3074 25.0977V31.3894C26.5166 31.6524 25.685 31.7716 24.8522 31.7415C23.9025 31.7444 22.9652 31.5253 22.1151 31.1019C21.2651 30.6784 20.5256 30.0623 19.9557 29.3026C19.1845 30.51 18.1761 31.5484 16.9917 32.3547C18.8976 34.1153 21.5655 35.1 24.7826 35.1C27.2388 35.1 30.0118 34.5718 31.6615 33.5211V25.0977H27.3074Z" fill="#2F3242"/>
</svg>
