<svg width="16" height="16" viewBox="0 0 16 16" fill="none" xmlns="http://www.w3.org/2000/svg">
<path d="M4.52852 6.79427C4.60928 9.63174 6.96897 11.848 9.76695 11.7548C12.5836 11.6611 14.7935 9.27405 14.7131 6.45538C14.6329 3.63676 12.2727 1.40166 9.4747 1.49486C6.65747 1.56985 4.44776 3.9568 4.52852 6.79427ZM0.384714 15.3218C0.192456 15.1213 0.202348 14.8199 0.402239 14.6252L4.77877 10.3409C3.9057 9.18496 3.43503 7.73351 3.57602 6.13005C3.79374 3.28258 5.98588 0.933778 8.79407 0.539486C12.5695 0.0187391 15.8293 3.03262 15.7129 6.81696C15.6132 9.86744 13.2216 12.4298 10.1865 12.7189C8.34303 12.8932 6.64383 12.2349 5.4345 11.0715L1.07607 15.3364C0.875629 15.5124 0.576602 15.5035 0.384714 15.3218Z" fill="#001733"/>
</svg>
