<svg xmlns="http://www.w3.org/2000/svg" width="60" height="38" viewBox="0 0 60 38">
  <path fill="#E38500" fill-rule="evenodd" d="M14.3201084,13.4079603 C15.653359,8.20828295 19.1864731,6.14174451 23.2528875,4.94181897 C23.6528627,4.80849391 23.5862001,4.40851873 23.5862001,4.40851873 L22.9862374,0.27544186 C22.9862374,0.27544186 22.9195748,-0.0578707906 22.3862746,0.00879173952 C8.12049313,1.54202993 -1.47891121,12.4080223 0.187652045,25.6072033 C1.92087783,34.8066325 9.12043108,38.3397466 15.653359,37.4064711 C22.2529495,36.3398707 26.7860016,30.2069179 25.7194011,23.6073274 C24.8527882,17.7410248 19.9864235,13.6079479 14.3201084,13.4079603 M59.8506165,23.6073274 C58.9840036,17.8076873 54.0509764,13.6746104 48.4513239,13.4079603 C49.851237,8.20828295 53.251026,6.14174451 57.3841029,4.94181897 C57.7840781,4.80849391 57.7174156,4.40851873 57.7174156,4.40851873 L57.0507903,0.27544186 C57.0507903,0.27544186 56.9841277,-0.0578707906 56.4508275,0.00879173952 C42.185046,1.60869246 32.5189792,12.4746849 34.3188675,25.6738658 C35.9854307,34.8066325 43.1183215,38.3397466 49.7179119,37.4064711 C56.3175024,36.3398707 60.8505545,30.2069179 59.8506165,23.6073274"/>
</svg>
