<svg xmlns="http://www.w3.org/2000/svg" width="58" height="58" viewBox="0 0 58 58">
  <path fill="#E8444C" d="M6.94325832,31.6894906 C3.07918412,31.6894906 0,34.7884189 0,38.6772702 C0,42.5661215 3.07918412,45.6650499 6.94325832,45.6650499 C10.8073325,45.6650499 13.8865166,42.5661215 13.8865166,38.6772702 L13.8865166,38.6772702 C13.8865166,38.6165069 13.8865166,38.4949803 13.8865166,38.434217 L23.124069,35.1529987 C24.0297114,36.1859749 25.2372346,37.0366611 26.5051339,37.5835308 L24.8749776,43.9029141 L24.7542253,43.9029141 C20.8901511,43.9029141 17.7505908,47.0018425 17.7505908,50.9514571 C17.7505908,54.8403083 20.8297749,58 24.7542253,58 C28.6182995,58 31.7578598,54.9010716 31.7578598,50.9514571 C31.7578598,48.4601617 30.4899604,46.2119196 28.3767949,44.9358902 L30.0673273,38.2519271 C32.0597406,38.1911638 33.9917777,37.5227675 35.5615578,36.3075015 L44.7991102,45.9081031 C42.9878254,49.3716112 44.2557247,53.6250423 47.6971658,55.4479413 C51.1386069,57.2708404 55.364938,55.9948111 57.1762228,52.5313029 C58.9875076,49.0677947 57.7196083,44.8143636 54.2781672,42.9914646 C52.0442493,41.8369619 49.3876983,41.8977252 47.2745327,43.2345178 L37.9766042,33.5123896 C39.4860082,30.8995677 39.6067605,27.6791127 38.3388611,24.9447641 L46.248138,18.868434 C49.6292029,20.8128597 53.8555341,19.6583569 55.7875712,16.2556121 C57.7196083,12.8528672 56.5724612,8.59943612 53.1913963,6.65501049 C49.8103314,4.71058485 45.5840002,5.86508757 43.6519631,9.26783244 C42.44444,11.4553113 42.44444,14.1288965 43.6519631,16.2556121 L36.1653194,22.0281257 C32.8446306,18.9899606 27.8937856,18.8076707 24.3315922,21.5420193 L13.5846358,10.6046251 C15.5770491,7.3234068 14.4902782,3.00921241 11.2299656,1.00402347 C7.96965302,-1.00116547 3.68294572,0.0925739553 1.69053246,3.43455552 C-0.301880796,6.77653709 0.78489007,11.0299682 4.04520267,12.9743938 C6.15836825,14.2504231 8.75454309,14.3111864 10.9280848,13.1566837 L21.9165458,24.3371311 C20.5882703,26.6461366 20.2863895,29.4412484 21.1920319,31.9933071 L12.7997458,34.9707088 C11.5318464,32.9655199 9.29792853,31.6894906 6.94325832,31.6894906 Z M24.7542253,54.2326753 C22.9429405,54.2326753 21.4335365,52.7135928 21.4335365,50.8906938 C21.4335365,49.0677947 22.9429405,47.5487122 24.7542253,47.5487122 C26.5655101,47.5487122 28.0749141,49.0677947 28.0749141,50.8906938 L28.0749141,50.8906938 C28.0145379,52.7135928 26.5655101,54.171912 24.7542253,54.2326753 Z M50.8971023,45.8473398 C52.708387,45.8473398 54.217791,47.3664223 54.217791,49.1893213 C54.217791,51.0122204 52.708387,52.5313029 50.8971023,52.5313029 C49.0858175,52.5313029 47.5764135,51.0122204 47.5764135,49.1893213 C47.6367897,47.3664223 49.0858175,45.9081031 50.8971023,45.8473398 Z M49.6895791,9.51088564 C51.5008639,9.51088564 53.0102678,11.0299682 53.0102678,12.8528672 C53.0102678,14.6757662 51.5008639,16.1948488 49.6895791,16.1948488 C47.8782943,16.1948488 46.3688903,14.6757662 46.3688903,12.8528672 C46.3688903,10.9692049 47.8179181,9.51088564 49.6895791,9.45012234 L49.6895791,9.51088564 Z M29.946575,23.2433917 C33.0257591,23.2433917 35.5615578,25.7954504 35.5615578,28.8943787 C35.5615578,31.9933071 33.0257591,34.5453657 29.946575,34.5453657 C26.8673909,34.5453657 24.3919683,32.0540704 24.3315922,28.955142 C24.271216,25.8562137 26.8070147,23.304155 29.8861988,23.2433917 C29.8861988,23.2433917 29.946575,23.2433917 29.946575,23.2433917 Z M4.22633115,7.01959029 C4.22633115,5.19669126 5.73573513,3.67760873 7.54701991,3.67760873 C9.35830469,3.67760873 10.8677087,5.19669126 10.8677087,7.01959029 C10.8677087,8.84248933 9.35830469,10.3615719 7.54701991,10.3615719 L7.54701991,10.3615719 C5.73573513,10.3008086 4.28670731,8.84248933 4.22633115,7.01959029 Z M6.94325832,42.0800151 C5.13197354,42.0800151 3.62256956,40.5609326 3.62256956,38.7380335 C3.62256956,36.9151345 5.13197354,35.396052 6.94325832,35.396052 C8.75454309,35.396052 10.2035709,36.8543712 10.2639471,38.6772702 C10.2639471,40.5609326 8.81491925,42.0192518 6.94325832,42.0800151 Z"/>
</svg>
