<svg xmlns="http://www.w3.org/2000/svg" width="56" height="67" viewBox="0 0 56 67">
  <g fill="#E8444C">
    <path d="M25.27 33.3604167C25.62 33.3604167 25.97 33.2208333 26.18 32.9416667L30.24 27.428125 33.67 29.940625C33.88 30.15 34.23 30.2197917 34.51 30.15 34.79 30.0802083 35.07 29.940625 35.21 29.73125L39.27 24.2875 40.39 25.125C40.6 25.334375 40.95 25.334375 41.23 25.1947917 41.51 25.0552083 41.65 24.7760417 41.72 24.496875L41.86 20.0302083C41.86 19.7510417 41.72 19.5416667 41.51 19.3322917 41.3 19.1927083 41.02 19.1229167 40.74 19.1927083L36.54 20.6583333C36.26 20.728125 36.05 21.0072917 35.98 21.2864583 35.91 21.565625 36.05 21.8447917 36.33 22.0541667L37.45 22.8916667 34.02 27.4979167 30.59 24.9854167C30.38 24.8458333 30.03 24.70625 29.75 24.7760417 29.47 24.8458333 29.19 24.9854167 29.05 25.1947917L24.29 31.5458333C23.94 32.034375 24.01 32.7322917 24.5 33.08125 24.78 33.290625 25.06 33.3604167 25.27 33.3604167zM24.92 41.0375L28 41.0375C28.42 41.0375 28.77 40.6885417 28.77 40.2697917L28.77 36.221875C28.77 35.803125 28.42 35.4541667 28 35.4541667L24.92 35.4541667C24.5 35.4541667 24.15 35.803125 24.15 36.221875L24.15 40.2697917C24.15 40.6885417 24.5 41.0375 24.92 41.0375zM31.78 32.453125C31.36 32.453125 31.01 32.8020833 31.01 33.2208333L31.01 40.2697917C31.01 40.6885417 31.36 41.0375 31.78 41.0375L34.86 41.0375C35.28 41.0375 35.63 40.6885417 35.63 40.2697917L35.63 33.2208333C35.63 32.8020833 35.28 32.453125 34.86 32.453125L31.78 32.453125zM38.57 29.4520833C38.15 29.4520833 37.8 29.8010417 37.8 30.2197917L37.8 40.2697917C37.8 40.6885417 38.15 41.0375 38.57 41.0375L41.65 41.0375C42.07 41.0375 42.42 40.6885417 42.42 40.2697917L42.42 30.2197917C42.42 29.8010417 42.07 29.4520833 41.65 29.4520833L38.57 29.4520833 38.57 29.4520833z"/>
    <path d="M53.76,10.8875 L45.01,10.8875 L45.01,2.16354167 C45.01,1.18645833 44.17,0.348958333 43.19,0.348958333 L2.24,0.348958333 C1.26,0.348958333 0.42,1.18645833 0.42,2.16354167 L0.42,54.2979167 C0.42,55.275 1.26,56.1125 2.24,56.1125 L10.99,56.1125 L10.99,64.8364583 C10.99,65.8135417 11.83,66.6510417 12.81,66.6510417 L53.83,66.6510417 C54.81,66.6510417 55.65,65.8135417 55.65,64.8364583 L55.65,12.7020833 C55.58,11.725 54.81,10.8875 53.76,10.8875 Z M10.99,12.7020833 L10.99,52.4833333 L4.06,52.4833333 L4.06,3.978125 L41.37,3.978125 L41.37,10.8875 L12.81,10.8875 C11.76,10.8875 10.99,11.725 10.99,12.7020833 Z M51.94,63.021875 L14.63,63.021875 L14.63,14.5166667 L51.94,14.5166667 L51.94,63.021875 L51.94,63.021875 Z"/>
    <path d="M22.61 49.3427083L43.89 49.3427083C44.87 49.3427083 45.71 48.5052083 45.71 47.528125 45.71 46.5510417 44.87 45.7135417 43.89 45.7135417L22.61 45.7135417C21.63 45.7135417 20.79 46.5510417 20.79 47.528125 20.79 48.575 21.63 49.3427083 22.61 49.3427083zM22.61 57.5083333L43.89 57.5083333C44.87 57.5083333 45.71 56.6708333 45.71 55.69375 45.71 54.7166667 44.87 53.8791667 43.89 53.8791667L22.61 53.8791667C21.63 53.8791667 20.79 54.7166667 20.79 55.69375 20.79 56.6708333 21.63 57.5083333 22.61 57.5083333z"/>
  </g>
</svg>
