<svg xmlns="http://www.w3.org/2000/svg" xmlns:xlink="http://www.w3.org/1999/xlink" width="24" height="24" viewBox="0 0 24 24">
  <defs>
    <path id="search-a" d="M17.5455659,11.4207246 C16.7331702,14.1406061 13.8802736,15.67061 11.2017549,14.8564139 C8.50533217,14.0369504 6.98852444,11.1592337 7.79569816,8.45741194 C8.60268538,5.7555902 11.4609905,4.20752648 14.1395092,5.02172259 C16.8413404,5.82331446 18.3579617,8.70084304 17.5455659,11.4207246 M19.3410858,20.7301927 L19.3410858,20.7301927 C19.5786873,20.5862787 19.647133,20.2926187 19.5044602,20.052762 L16.3859065,14.7817291 C17.5284079,13.8911551 18.3587077,12.6109785 18.6375258,11.0256664 C19.1642029,8.21887205 17.6546687,5.38273052 15.0442226,4.27506262 C11.5322336,2.79491129 7.60341625,4.86238246 6.7363759,8.54789908 C6.04315392,11.5202416 7.69013893,14.6142997 10.546952,15.6790756 C12.2825247,16.3245254 14.0941896,16.1285013 15.5634397,15.3176914 L18.6694979,20.565397 C18.8175792,20.787194 19.1087063,20.856047 19.3410858,20.7301927"/>
  </defs>
  <g fill="none" fill-rule="evenodd">
    <rect width="24" height="24"/>
    <use fill="#FFF" transform="scale(-1 1) rotate(-15 0 111.634)" xlink:href="#search-a"/>
  </g>
</svg>
