<svg width="246" height="89" viewBox="0 0 246 89" fill="none" xmlns="http://www.w3.org/2000/svg">
<path d="M31.4737 85.6954V86.1954H31.9737H53.6024H54.1024V85.6954V23.7003H74.4883H74.9883V23.2003V2.72778V2.22778H74.4883H10.6787H10.1787V2.72778V23.2003V23.7003H10.6787H31.4737V85.6954Z" fill="#001733" stroke="white"/>
<path d="M105.996 60.9076L105.388 60.2501C101.442 55.9833 99.2583 50.3779 99.2778 44.5638C99.2974 38.7497 101.518 33.1592 105.493 28.919L105.493 28.9191L105.5 28.911C107.372 26.8258 109.661 25.1581 112.218 24.0166C114.776 22.875 117.545 22.2851 120.346 22.2851C123.146 22.2851 125.915 22.875 128.473 24.0166C131.031 25.1581 133.32 26.8258 135.191 28.911L135.198 28.9184L135.205 28.9255C139.263 33.1022 141.533 38.6982 141.533 44.5241C141.533 50.3499 139.263 55.946 135.205 60.1227L135.205 60.1226L135.197 60.1303C134.553 60.8225 133.863 61.4675 133.132 62.0614H107.297C106.848 61.6959 106.413 61.311 105.996 60.9076ZM160.76 62.0614C160.889 61.7728 161.016 61.4826 161.139 61.1908C163.37 55.916 164.52 50.2465 164.52 44.5187C164.52 38.7909 163.37 33.1214 161.139 27.8466C158.909 22.5723 155.642 17.8002 151.534 13.8132C143.191 5.6372 131.979 1.05823 120.303 1.05823C108.626 1.05823 97.4137 5.63741 89.0707 13.8138L89.07 13.8144C84.9964 17.8213 81.7609 22.6 79.5523 27.8716C77.3437 33.1433 76.2063 38.8024 76.2063 44.5187C76.2063 50.235 77.3437 55.8941 79.5523 61.1658C79.6781 61.4659 79.8072 61.7645 79.9396 62.0614H76.1353H75.6353V62.5614V78.8964V79.3964H76.1353H94.059C101.66 84.8703 110.831 87.8642 120.303 87.8642C129.775 87.8642 138.946 84.8703 146.546 79.3964H164.34H164.84V78.8964V62.5614V62.0614H164.34H160.76Z" fill="#001733" stroke="white"/>
<path d="M173.39 85.6954V86.1959L173.89 86.1954L195.465 86.1738L195.965 86.1733V85.6738V62.1348H211.054C218.124 62.1348 224.606 59.3344 230.477 53.6666C233.373 50.9131 235.661 47.5832 237.193 43.8913C238.724 40.2005 239.467 36.2297 239.373 32.2345C239.371 22.5752 235.192 14.3446 229.51 9.60076C224.407 5.05101 217.868 2.44122 211.037 2.22803L211.029 2.22778H211.022H173.89H173.39V2.72778V85.6954ZM213.845 39.541L213.818 39.5529L213.793 39.5679C212.655 40.2391 211.371 40.6221 210.052 40.6838H195.922V23.7111H209.951C211.299 23.7382 212.622 24.087 213.809 24.7285L213.827 24.7381L213.845 24.7462C215.718 25.5707 217.056 28.1522 217.056 32.2621C217.056 36.1164 215.722 38.7145 213.845 39.541Z" fill="#001733" stroke="white"/>
<path d="M6.45812 54.1569V38.9102H0.989014V33.9106H17.2994V38.9102H11.9164V54.1569H6.45812Z" fill="#E9464C"/>
<path d="M27.8176 54.1569V33.9106H37.0225C37.9708 33.891 38.9135 34.061 39.7953 34.4107C40.6771 34.7604 41.4803 35.2827 42.1578 35.9471C42.8467 36.5692 43.3951 37.3311 43.7664 38.1821C44.1377 39.0331 44.3234 39.9536 44.311 40.8821C44.3479 42.0763 44.042 43.256 43.4295 44.2815C42.817 45.307 41.9236 46.1353 40.8552 46.6683L45.9044 54.2108H39.5741L35.4399 47.8535H33.2867V54.1569H27.8176ZM33.3298 43.3819H36.4089C36.7301 43.4179 37.0552 43.381 37.3602 43.2741C37.6652 43.1671 37.9423 42.9928 38.1708 42.7641C38.3994 42.5353 38.5735 42.258 38.6803 41.9528C38.7872 41.6475 38.824 41.3221 38.7881 41.0006C38.8133 40.7312 38.7828 40.4594 38.6985 40.2023C38.6143 39.9452 38.478 39.7081 38.2982 39.506C38.1185 39.3038 37.899 39.1409 37.6536 39.0273C37.4082 38.9137 37.1421 38.8518 36.8718 38.8456H33.2867L33.3298 43.3819Z" fill="#E9464C"/>
<path d="M53.7424 54.1569L64.9497 32.5422L76.1463 54.1569H70.4081L69.0946 51.517H60.7941L59.4915 54.1569H53.7424ZM62.6566 47.2394H67.2429L64.9497 42.563L62.6566 47.2394Z" fill="#E9464C"/>
<path d="M86.449 54.1569V33.1025L99.8633 44.05V33.9107H105.139V54.9758L91.735 43.9314V54.1569H86.449Z" fill="#E9464C"/>
<path d="M119.156 47.1532C119.744 47.9381 120.509 48.5735 121.388 49.0078C122.267 49.4421 123.236 49.6631 124.216 49.653C126.014 49.653 126.908 49.1573 126.908 48.1984C126.908 47.6488 126.563 47.2717 125.777 46.9592C125.4 46.8084 124.991 46.6683 124.593 46.5498C123.807 46.3127 122.354 45.8817 121.363 45.4723C118.263 44.3193 116.691 42.3691 116.691 39.643C116.655 38.7764 116.833 37.9144 117.208 37.1328C117.584 36.3511 118.145 35.6739 118.844 35.1606C120.332 34.0742 122.138 33.5133 123.979 33.5659C127.317 33.5659 129.829 34.6434 131.515 36.7984L127.887 39.9124C127.44 39.3833 126.878 38.9642 126.243 38.6877C125.608 38.4111 124.918 38.2845 124.227 38.3177C122.806 38.3177 122.074 38.8349 122.074 39.5568C122.045 39.8157 122.111 40.0762 122.26 40.2901C122.408 40.5041 122.629 40.657 122.881 40.7205C123.227 40.876 123.588 40.9952 123.958 41.0761C125.166 41.3637 126.356 41.7235 127.521 42.1536C131.01 43.4035 132.431 45.2352 132.431 47.9936C132.431 51.9157 129.728 54.4586 124.367 54.4586C122.421 54.5355 120.488 54.1048 118.758 53.2087C117.421 52.4698 116.277 51.4249 115.42 50.1594L119.156 47.1532Z" fill="#E9464C"/>
<path d="M143.099 54.1569V33.9106H152.584C154.29 33.9558 155.929 34.5788 157.235 35.6777C158.016 36.3399 158.641 37.1657 159.067 38.0968C159.493 39.0278 159.709 40.0412 159.7 41.0653C159.72 42.033 159.53 42.9935 159.144 43.8807C158.757 44.768 158.183 45.5609 157.461 46.2049C156.163 47.4946 154.413 48.2255 152.584 48.2414H148.612V54.103L143.099 54.1569ZM148.612 43.2957H152.358C152.713 43.2763 153.059 43.1768 153.37 43.0048C153.687 42.8118 153.941 42.5309 154.102 42.1962C154.262 41.8615 154.322 41.4873 154.274 41.1191C154.274 40.0955 153.919 39.4059 153.37 39.1689C153.038 38.9964 152.668 38.9076 152.293 38.9102H148.579L148.612 43.2957Z" fill="#E9464C"/>
<path d="M188.962 51.517C186.801 53.4788 183.988 54.5655 181.071 54.5655C178.153 54.5655 175.34 53.4788 173.179 51.517C172.155 50.5744 171.338 49.4293 170.778 48.1542C170.219 46.8791 169.93 45.5017 169.93 44.1092C169.93 42.7166 170.219 41.3392 170.778 40.0641C171.338 38.789 172.155 37.6439 173.179 36.7013C175.33 34.7189 178.147 33.6185 181.071 33.6185C183.995 33.6185 186.812 34.7189 188.962 36.7013C189.996 37.634 190.819 38.7768 191.376 40.0534C191.933 41.33 192.211 42.7109 192.192 44.1038C192.206 45.4974 191.925 46.8783 191.369 48.1558C190.812 49.4334 189.992 50.5788 188.962 51.517ZM177.12 48.0259C177.625 48.5703 178.235 49.0071 178.913 49.3103C179.59 49.6135 180.322 49.7768 181.064 49.7904C181.807 49.8041 182.544 49.6679 183.233 49.3899C183.921 49.1119 184.546 48.6978 185.071 48.1724C185.596 47.647 186.01 47.0211 186.288 46.332C186.566 45.643 186.702 44.9049 186.688 44.1621C186.674 43.4192 186.511 42.6867 186.208 42.0083C185.905 41.33 185.469 40.7197 184.925 40.214C184.423 39.6893 183.819 39.2717 183.151 38.9864C182.483 38.7011 181.765 38.5541 181.038 38.5541C180.312 38.5541 179.594 38.7011 178.926 38.9864C178.258 39.2717 177.654 39.6893 177.152 40.214C176.121 41.2518 175.541 42.6561 175.541 44.1199C175.541 45.5838 176.121 46.9881 177.152 48.0259H177.12Z" fill="#E9464C"/>
<path d="M203.474 54.1569V33.9106H212.679C213.628 33.891 214.57 34.061 215.452 34.4107C216.334 34.7604 217.137 35.2827 217.815 35.9471C218.503 36.5692 219.052 37.3311 219.423 38.1821C219.794 39.0331 219.98 39.9536 219.968 40.8821C220.005 42.0763 219.699 43.256 219.086 44.2815C218.474 45.307 217.58 46.1353 216.512 46.6683L221.561 54.2108H215.231L211.107 47.9074H209.019V54.2108L203.474 54.1569ZM208.997 43.3819H212.066C212.387 43.4179 212.712 43.381 213.017 43.2741C213.322 43.1671 213.599 42.9928 213.827 42.7641C214.056 42.5353 214.23 42.258 214.337 41.9528C214.444 41.6475 214.481 41.3221 214.445 41.0006C214.47 40.7312 214.439 40.4594 214.355 40.2023C214.271 39.9452 214.135 39.7081 213.955 39.506C213.775 39.3038 213.556 39.1409 213.31 39.0273C213.065 38.9137 212.799 38.8518 212.528 38.8456H208.997V43.3819Z" fill="#E9464C"/>
<path d="M235.148 54.1569V38.9102H229.69V33.9106H246V38.9102H240.617V54.1569H235.148Z" fill="#E9464C"/>
<path d="M93.8237 73.5842V66.9037H98.3778V68.2506H95.2987V69.5005H98.1732V70.815H95.2987V72.2158H98.4424V73.5519L93.8237 73.5842Z" fill="#E9464C"/>
<path d="M102.824 66.9037H104.342V70.7288C104.342 71.8063 104.805 72.3558 105.709 72.3558C106.614 72.3558 107.077 71.8171 107.077 70.7288V66.9037H108.552V70.8797C108.576 71.2642 108.517 71.6495 108.377 72.0086C108.238 72.3678 108.022 72.6922 107.744 72.9592C107.186 73.4582 106.457 73.7209 105.709 73.6919C104.964 73.7194 104.236 73.4612 103.675 72.97C103.396 72.7013 103.18 72.3751 103.04 72.014C102.901 71.653 102.842 71.2659 102.867 70.8797L102.824 66.9037Z" fill="#E9464C"/>
<path d="M113.095 73.5842V66.9037H115.894C116.19 66.8962 116.484 66.9497 116.758 67.0609C117.032 67.1721 117.281 67.3387 117.487 67.5502C117.732 67.7886 117.916 68.0818 118.025 68.4055C118.134 68.7292 118.164 69.0742 118.114 69.412C118.063 69.7498 117.934 70.0708 117.735 70.3485C117.536 70.6261 117.274 70.8525 116.971 71.009L118.596 73.5842H116.938L115.55 71.3646H114.559V73.5842H113.095ZM114.559 70.0608H115.733C115.858 70.07 115.984 70.0526 116.102 70.0097C116.22 69.9668 116.328 69.8994 116.419 69.812C116.509 69.7245 116.58 69.6189 116.627 69.5021C116.674 69.3853 116.696 69.2599 116.691 69.1341C116.697 69.0202 116.679 68.9063 116.64 68.7993C116.6 68.6923 116.539 68.5944 116.461 68.5118C116.382 68.4291 116.287 68.3633 116.183 68.3184C116.078 68.2735 115.965 68.2504 115.851 68.2506H114.559V70.0608Z" fill="#E9464C"/>
<path d="M123.312 67.8089C123.652 67.4831 124.054 67.2286 124.494 67.0603C124.934 66.8919 125.403 66.8131 125.874 66.8283C126.34 66.8186 126.802 66.9023 127.235 67.0744C127.668 67.2465 128.062 67.5036 128.393 67.8304C128.738 68.1389 129.013 68.5179 129.198 68.9417C129.384 69.3655 129.477 69.8244 129.47 70.2871C129.472 70.7492 129.377 71.2065 129.192 71.6296C129.006 72.0527 128.734 72.4323 128.393 72.7438C128.06 73.072 127.665 73.3298 127.23 73.5019C126.795 73.6741 126.331 73.757 125.863 73.7459C125.396 73.754 124.933 73.6697 124.498 73.4977C124.064 73.3257 123.668 73.0695 123.333 72.7438C123.007 72.4237 122.747 72.0415 122.57 71.6197C122.392 71.1978 122.301 70.7448 122.301 70.2871C122.301 69.8295 122.392 69.3764 122.57 68.9546C122.747 68.5327 123.007 68.1505 123.333 67.8304L123.312 67.8089ZM124.388 71.7741C124.582 71.9711 124.813 72.1264 125.069 72.2302C125.324 72.334 125.598 72.3841 125.874 72.3775C126.149 72.3852 126.423 72.3345 126.677 72.2286C126.932 72.1227 127.161 71.9642 127.349 71.7633C127.737 71.3615 127.954 70.8244 127.954 70.2656C127.954 69.7067 127.737 69.1697 127.349 68.7678C127.156 68.5698 126.924 68.4124 126.669 68.3049C126.414 68.1975 126.14 68.1421 125.863 68.1421C125.587 68.1421 125.313 68.1975 125.057 68.3049C124.802 68.4124 124.571 68.5698 124.378 68.7678C123.986 69.1702 123.767 69.7095 123.767 70.271C123.767 70.8324 123.986 71.3717 124.378 71.7741H124.388Z" fill="#E9464C"/>
<path d="M133.744 73.5842V66.9037H136.565C137.137 66.9142 137.686 67.1368 138.104 67.5286C138.338 67.7307 138.523 67.9829 138.646 68.2664C138.769 68.5499 138.827 68.8576 138.815 69.1664C138.821 69.471 138.763 69.7734 138.644 70.0539C138.526 70.3343 138.349 70.5864 138.126 70.7935C137.709 71.2027 137.148 71.4311 136.565 71.4292H135.219V73.5842H133.744ZM135.219 70.0931H136.478C136.691 70.0885 136.896 70.0126 137.06 69.8776C137.23 69.6817 137.323 69.4311 137.323 69.1718C137.323 68.9126 137.23 68.662 137.06 68.4661C136.896 68.331 136.691 68.2551 136.478 68.2506H135.219V70.0931Z" fill="#E9464C"/>
<path d="M143.099 73.5842V66.9037H147.653V68.2506H144.574V69.5005H147.406V70.815H144.531V72.2158H147.675V73.5519L143.099 73.5842Z" fill="#E9464C"/>
</svg>
