<svg width="124" height="44" viewBox="0 0 124 44" fill="none" xmlns="http://www.w3.org/2000/svg">
<path d="M16.4869 42.6232V11.3765H5.83936V1.1405H37.7442V11.3765H27.3012V42.6232H16.4869Z" fill="white"/>
<path fill-rule="evenodd" clip-rule="evenodd" d="M40.8586 31.0565C40.7359 30.7943 40.6185 30.5295 40.5065 30.2621C39.415 27.6569 38.8529 24.8603 38.8529 22.0353C38.8529 19.2104 39.415 16.4138 40.5065 13.8086C41.598 11.2035 43.1969 8.84193 45.2101 6.86183C49.3349 2.81953 54.8781 0.555664 60.6511 0.555664C66.4241 0.555664 71.9673 2.81953 76.0921 6.86183C78.1225 8.83206 79.7368 11.1904 80.8392 13.7969C81.9416 16.4034 82.5097 19.205 82.5097 22.0353C82.5097 24.8657 81.9416 27.6673 80.8392 30.2738C80.7278 30.5373 80.6111 30.7982 80.4893 31.0565H82.67V39.2237H73.692C69.9213 41.9602 65.3615 43.4575 60.6511 43.4575C55.9407 43.4575 51.3809 41.9602 47.6102 39.2237H38.5674V31.0565H40.8586ZM67.1542 31.0565C67.554 30.7369 67.9309 30.3877 68.2814 30.0113C70.3557 27.8764 71.5162 25.0159 71.5162 22.038C71.5162 19.0602 70.3557 16.1997 68.2814 14.0647C67.3223 12.996 66.1491 12.1413 64.8382 11.5563C63.5273 10.9712 62.108 10.6688 60.6726 10.6688C59.2373 10.6688 57.818 10.9712 56.5071 11.5563C55.1962 12.1413 54.023 12.996 53.0638 14.0647C51.0333 16.2309 49.8987 19.0869 49.8887 22.0571C49.8787 25.0273 50.9941 27.8908 53.01 30.0706H52.9885C53.3232 30.4245 53.6814 30.7538 54.0601 31.0565H67.1542Z" fill="white"/>
<path d="M87.4448 42.6232V1.1405H106.011C109.369 1.24531 112.584 2.52875 115.092 4.76621C117.875 7.08816 119.936 11.1341 119.936 15.8965C119.983 17.8602 119.618 19.8119 118.865 21.6259C118.112 23.4399 116.988 25.076 115.565 26.4288C112.669 29.2249 109.488 30.5932 106.027 30.5932H98.2323V42.6125L87.4448 42.6232ZM98.2107 20.368H105.532C106.234 20.3361 106.918 20.1327 107.523 19.7754C108.6 19.3013 109.278 17.8683 109.278 15.9073C109.278 13.8224 108.6 12.3947 107.523 11.9206C106.894 11.5806 106.193 11.3959 105.478 11.3819H98.2107V20.368Z" fill="white"/>
<path d="M3.72918 26.8543V19.2312H0.994629V16.7314H9.14982V19.2312H6.45835V26.8543H3.72918Z" fill="#E9464C"/>
<path d="M14.4087 26.8543V16.7315H19.0111C19.4853 16.7217 19.9566 16.8067 20.3975 16.9815C20.8384 17.1563 21.24 17.4175 21.5788 17.7497C21.9232 18.0607 22.1974 18.4417 22.3831 18.8672C22.5687 19.2926 22.6616 19.7529 22.6554 20.2171C22.6738 20.8142 22.5209 21.404 22.2146 21.9168C21.9084 22.4295 21.4617 22.8436 20.9275 23.1101L23.4521 26.8813H20.2869L18.2198 23.7027H17.1432V26.8543H14.4087ZM17.1648 21.467H18.7043C18.8649 21.485 19.0275 21.4665 19.18 21.4131C19.3325 21.3596 19.471 21.2724 19.5853 21.1581C19.6996 21.0437 19.7866 20.9051 19.84 20.7524C19.8935 20.5998 19.9119 20.4371 19.8939 20.2764C19.9065 20.1416 19.8913 20.0058 19.8491 19.8772C19.807 19.7487 19.7389 19.6301 19.649 19.5291C19.5591 19.428 19.4494 19.3465 19.3267 19.2897C19.204 19.2329 19.0709 19.202 18.9358 19.1989H17.1432L17.1648 21.467Z" fill="#E9464C"/>
<path d="M27.3711 26.8544L32.9747 16.0474L38.573 26.8544H35.7039L35.0472 25.5345H30.8969L30.2456 26.8544H27.3711ZM31.8282 23.3957H34.1213L32.9747 21.0576L31.8282 23.3957Z" fill="#E9464C"/>
<path d="M43.7246 26.8543V16.3274L50.4318 21.801V16.7314H53.0694V27.2638L46.3676 21.7417V26.8543H43.7246Z" fill="#E9464C"/>
<path d="M60.0779 23.3525C60.3719 23.745 60.7542 24.0627 61.1938 24.2798C61.6333 24.4969 62.1177 24.6075 62.6079 24.6024C63.5068 24.6024 63.9536 24.3546 63.9536 23.8751C63.9536 23.6004 63.7813 23.4118 63.3884 23.2556C63.2 23.1801 62.9954 23.1101 62.7963 23.0508C62.4033 22.9323 61.6766 22.7168 61.1814 22.5121C59.6311 21.9357 58.8451 20.9605 58.8451 19.5975C58.8273 19.1643 58.9162 18.7333 59.1039 18.3425C59.2916 17.9516 59.5725 17.613 59.9217 17.3564C60.6657 16.8132 61.5689 16.5328 62.4894 16.5591C64.1581 16.5591 65.4142 17.0978 66.2575 18.1753L64.4434 19.7322C64.22 19.4677 63.9386 19.2582 63.6213 19.1199C63.3039 18.9816 62.959 18.9183 62.6132 18.9349C61.9027 18.9349 61.5366 19.1935 61.5366 19.5544C61.5223 19.6839 61.5553 19.8141 61.6295 19.9211C61.7037 20.0281 61.8142 20.1045 61.9403 20.1363C62.1131 20.214 62.2935 20.2736 62.4786 20.3141C63.0828 20.4579 63.6778 20.6378 64.2604 20.8528C66.0045 21.4777 66.7151 22.3936 66.7151 23.7728C66.7151 25.7338 65.3639 27.0052 62.6832 27.0052C61.71 27.0436 60.7436 26.8282 59.8787 26.3802C59.2102 26.0108 58.6384 25.4883 58.21 24.8556L60.0779 23.3525Z" fill="#E9464C"/>
<path d="M72.0498 26.8543V16.7314H76.7922C77.6449 16.754 78.4648 17.0655 79.1176 17.615C79.5079 17.946 79.8206 18.3589 80.0337 18.8245C80.2467 19.29 80.3548 19.7967 80.3503 20.3087C80.3602 20.7925 80.2652 21.2728 80.0719 21.7164C79.8787 22.16 79.5917 22.5564 79.2307 22.8784C78.5817 23.5233 77.7066 23.8887 76.7922 23.8966H74.8059V26.8274L72.0498 26.8543ZM74.8059 21.4238H76.6791C76.8566 21.4142 77.0296 21.3644 77.1851 21.2784C77.3436 21.1819 77.4707 21.0415 77.5509 20.8741C77.6312 20.7068 77.6612 20.5197 77.6373 20.3356C77.6373 19.8238 77.4597 19.479 77.1851 19.3605C77.0189 19.2742 76.8341 19.2299 76.6468 19.2312H74.7897L74.8059 21.4238Z" fill="#E9464C"/>
<path d="M94.9812 25.5345C93.9008 26.5153 92.4943 27.0587 91.0355 27.0587C89.5768 27.0587 88.1703 26.5153 87.0898 25.5345C86.5777 25.0632 86.1689 24.4907 85.8893 23.8531C85.6097 23.2156 85.4653 22.5269 85.4653 21.8307C85.4653 21.1344 85.6097 20.4457 85.8893 19.8082C86.1689 19.1707 86.5777 18.5981 87.0898 18.1268C88.1652 17.1357 89.5736 16.5854 91.0355 16.5854C92.4974 16.5854 93.9059 17.1357 94.9812 18.1268C95.4981 18.5931 95.9096 19.1646 96.1881 19.8028C96.4666 20.4411 96.6057 21.1316 96.5961 21.828C96.603 22.5248 96.4628 23.2152 96.1845 23.8539C95.9062 24.4927 95.4961 25.0654 94.9812 25.5345ZM89.06 23.789C89.3126 24.0612 89.6175 24.2796 89.9564 24.4311C90.2953 24.5827 90.6612 24.6644 91.0323 24.6712C91.4035 24.6781 91.7722 24.6099 92.1164 24.4709C92.4606 24.3319 92.7733 24.1249 93.0358 23.8622C93.2983 23.5995 93.5052 23.2866 93.6441 22.9421C93.7829 22.5976 93.851 22.2285 93.8442 21.8571C93.8373 21.4857 93.7557 21.1194 93.6043 20.7803C93.4528 20.4411 93.2346 20.136 92.9626 19.8831C92.7114 19.6208 92.4097 19.412 92.0758 19.2693C91.7418 19.1267 91.3825 19.0532 91.0194 19.0532C90.6563 19.0532 90.2969 19.1267 89.963 19.2693C89.629 19.412 89.3274 19.6208 89.0761 19.8831C88.5604 20.402 88.2709 21.1042 88.2709 21.8361C88.2709 22.568 88.5604 23.2701 89.0761 23.789H89.06Z" fill="#E9464C"/>
<path d="M102.237 26.8543V16.7315H106.84C107.314 16.7217 107.785 16.8067 108.226 16.9815C108.667 17.1563 109.069 17.4175 109.407 17.7497C109.752 18.0607 110.026 18.4417 110.212 18.8672C110.397 19.2926 110.49 19.7529 110.484 20.2171C110.502 20.8142 110.349 21.404 110.043 21.9168C109.737 22.4295 109.29 22.8436 108.756 23.1101L111.281 26.8813H108.115L106.054 23.7297H105.01V26.8813L102.237 26.8543ZM104.999 21.467H106.533C106.693 21.485 106.856 21.4665 107.009 21.4131C107.161 21.3596 107.3 21.2724 107.414 21.1581C107.528 21.0437 107.615 20.9051 107.669 20.7524C107.722 20.5998 107.741 20.4371 107.723 20.2764C107.735 20.1416 107.72 20.0058 107.678 19.8772C107.636 19.7487 107.567 19.6301 107.478 19.5291C107.388 19.428 107.278 19.3465 107.155 19.2897C107.033 19.2329 106.9 19.202 106.764 19.1989H104.999V21.467Z" fill="#E9464C"/>
<path d="M118.074 26.8543V19.2312H115.345V16.7314H123.5V19.2312H120.808V26.8543H118.074Z" fill="#E9464C"/>
<path d="M47.4116 36.5677V33.2275H49.6886V33.901H48.1491V34.5259H49.5864V35.1832H48.1491V35.8835H49.7209V36.5515L47.4116 36.5677Z" fill="#E9464C"/>
<path d="M51.9121 33.2275H52.6711V35.14C52.6711 35.6788 52.9026 35.9535 53.3547 35.9535C53.8069 35.9535 54.0384 35.6842 54.0384 35.14V33.2275H54.7758V35.2155C54.7881 35.4077 54.7583 35.6004 54.6886 35.7799C54.6189 35.9595 54.5109 36.1217 54.3721 36.2552C54.0932 36.5047 53.7285 36.6361 53.3547 36.6216C52.9821 36.6353 52.6182 36.5062 52.3374 36.2606C52.1982 36.1263 52.0899 35.9632 52.0202 35.7827C51.9505 35.6021 51.9209 35.4086 51.9336 35.2155L51.9121 33.2275Z" fill="#E9464C"/>
<path d="M57.0474 36.5678V33.2276H58.4469C58.5948 33.2239 58.7418 33.2506 58.8789 33.3062C59.016 33.3618 59.1401 33.4451 59.2436 33.5509C59.3658 33.6701 59.4579 33.8167 59.5124 33.9785C59.5669 34.1404 59.5821 34.3129 59.5569 34.4818C59.5316 34.6507 59.4666 34.8112 59.3673 34.95C59.2679 35.0888 59.1369 35.202 58.9852 35.2802L59.798 36.5678H58.9691L58.2747 35.458H57.7794V36.5678H57.0474ZM57.7794 34.8061H58.3662C58.4289 34.8107 58.4919 34.802 58.551 34.7806C58.6101 34.7592 58.6641 34.7255 58.7093 34.6817C58.7545 34.638 58.79 34.5852 58.8134 34.5268C58.8368 34.4684 58.8477 34.4057 58.8453 34.3428C58.8482 34.2859 58.8395 34.2289 58.8197 34.1754C58.7999 34.1219 58.7694 34.073 58.7302 34.0317C58.6909 33.9903 58.6436 33.9574 58.5912 33.935C58.5388 33.9125 58.4824 33.901 58.4254 33.9011H57.7794V34.8061Z" fill="#E9464C"/>
<path d="M62.1558 33.6801C62.326 33.5173 62.527 33.39 62.747 33.3059C62.967 33.2217 63.2016 33.1823 63.4369 33.1899C63.6697 33.1851 63.901 33.2269 64.1174 33.3129C64.3337 33.399 64.5306 33.5275 64.6966 33.6909C64.8689 33.8452 65.0062 34.0346 65.099 34.2466C65.1919 34.4585 65.2382 34.6879 65.2349 34.9192C65.2358 35.1503 65.1884 35.3789 65.0957 35.5905C65.003 35.802 64.867 35.9918 64.6966 36.1476C64.53 36.3116 64.3322 36.4405 64.1149 36.5266C63.8976 36.6127 63.6652 36.6542 63.4316 36.6486C63.1981 36.6527 62.9662 36.6105 62.7491 36.5245C62.532 36.4385 62.334 36.3104 62.1666 36.1476C62.0032 35.9875 61.8733 35.7964 61.7847 35.5855C61.696 35.3746 61.6504 35.1481 61.6504 34.9192C61.6504 34.6904 61.696 34.4639 61.7847 34.253C61.8733 34.0421 62.0032 33.851 62.1666 33.6909L62.1558 33.6801ZM62.6941 35.6627C62.7907 35.7612 62.9064 35.8389 63.0342 35.8907C63.162 35.9426 63.2991 35.9677 63.4369 35.9644C63.5746 35.9683 63.7114 35.9429 63.8386 35.89C63.9657 35.837 64.0801 35.7577 64.1744 35.6573C64.3684 35.4564 64.4769 35.1879 64.4769 34.9085C64.4769 34.629 64.3684 34.3605 64.1744 34.1596C64.0776 34.0606 63.9621 33.9819 63.8345 33.9282C63.707 33.8744 63.57 33.8468 63.4316 33.8468C63.2932 33.8468 63.1562 33.8744 63.0286 33.9282C62.901 33.9819 62.7855 34.0606 62.6887 34.1596C62.4931 34.3608 62.3836 34.6304 62.3836 34.9112C62.3836 35.1919 62.4931 35.4615 62.6887 35.6627H62.6941Z" fill="#E9464C"/>
<path d="M67.3721 36.5677V33.2275H68.7824C69.0688 33.2328 69.3431 33.3441 69.5522 33.54C69.669 33.641 69.7617 33.7671 69.8232 33.9089C69.8847 34.0506 69.9135 34.2044 69.9075 34.3589C69.9107 34.5111 69.8817 34.6624 69.8223 34.8026C69.763 34.9428 69.6746 35.0688 69.5629 35.1724C69.3547 35.377 69.0742 35.4912 68.7824 35.4902H68.1095V36.5677H67.3721ZM68.1095 34.8222H68.7393C68.8456 34.8199 68.948 34.782 69.03 34.7145C69.1149 34.6165 69.1616 34.4912 69.1616 34.3616C69.1616 34.2319 69.1149 34.1067 69.03 34.0087C68.948 33.9412 68.8456 33.9032 68.7393 33.901H68.1095V34.8222Z" fill="#E9464C"/>
<path d="M72.0498 36.5677V33.2275H74.3268V33.901H72.7873V34.5259H74.203V35.1832H72.7657V35.8835H74.3376V36.5515L72.0498 36.5677Z" fill="#E9464C"/>
</svg>
