<svg xmlns="http://www.w3.org/2000/svg" xmlns:xlink="http://www.w3.org/1999/xlink" width="13" height="17" viewBox="0 0 13 17">
  <defs>
    <path id="shop-a" d="M12.067,3.81 C12.047,3.482 11.775,3.237 11.464,3.237 L9.774,3.237 C9.657,1.434 8.239,0 6.49,0 C4.741,0 3.322,1.434 3.206,3.237 L1.515,3.237 C1.204,3.237 0.932,3.482 0.913,3.81 L0,14.542 L0,14.604 C0,15.914 1.146,17 2.545,17 L10.455,17 C11.853,17 13,15.935 13,14.604 L13,14.542 L12.067,3.81 Z M6.49,1.27 C7.558,1.27 8.453,2.13 8.569,3.237 L4.411,3.237 C4.527,2.13 5.421,1.27 6.49,1.27 L6.49,1.27 Z M10.434,15.731 L2.545,15.731 C1.826,15.731 1.224,15.239 1.204,14.624 L2.059,4.506 L3.206,4.506 L3.206,5.715 C3.206,6.063 3.478,6.35 3.808,6.35 C4.139,6.35 4.411,6.063 4.411,5.715 L4.411,4.506 L8.569,4.506 L8.569,5.715 C8.569,6.063 8.841,6.35 9.171,6.35 C9.502,6.35 9.774,6.063 9.774,5.715 L9.774,4.506 L10.921,4.506 L11.775,14.645 C11.756,15.239 11.173,15.731 10.434,15.731 L10.434,15.731 Z"/>
  </defs>
  <use fill="#FFF" fill-rule="evenodd" xlink:href="#shop-a"/>
</svg>
