<svg width="691" height="572" viewBox="0 0 691 572" fill="none" xmlns="http://www.w3.org/2000/svg">
<rect x="120" width="575" height="572" fill="url(#paint0_linear_33_251)"/>
<rect x="120" width="575" height="572" fill="url(#paint1_linear_33_251)"/>
<g filter="url(#filter0_i_33_251)">
<path d="M90 156.991C178 147.991 221 170.991 265 195.991" stroke="#E9454C" stroke-width="14" stroke-linecap="round"/>
<path d="M90 156.991C178 147.991 221 170.991 265 195.991" stroke="#F6AAA0" stroke-width="14" stroke-linecap="round"/>
<path d="M90 156.991C178 147.991 221 170.991 265 195.991" stroke="#001733" stroke-width="14" stroke-linecap="round"/>
</g>
<g filter="url(#filter1_i_33_251)">
<path d="M24 450C76 374.333 198.8 224.2 274 229C349 229 330.186 312 384 312C460 312 518 224 592 224C666 224 765 301 828 370" stroke="#E9454C" stroke-width="14" stroke-linecap="round"/>
<path d="M24 450C76 374.333 198.8 224.2 274 229C349 229 330.186 312 384 312C460 312 518 224 592 224C666 224 765 301 828 370" stroke="#F6AAA0" stroke-width="14" stroke-linecap="round"/>
<path d="M24 450C76 374.333 198.8 224.2 274 229C349 229 330.186 312 384 312C460 312 518 224 592 224C666 224 765 301 828 370" stroke="#001733" stroke-width="14" stroke-linecap="round"/>
</g>
<g filter="url(#filter2_i_33_251)">
<path d="M7 313C66 277 117.051 337 162 337C206.949 337 267 256 345 256C423 256 483 415 615 415C704 415 775.667 385.667 806 371" stroke="#E9454C" stroke-width="14" stroke-linecap="round"/>
<path d="M7 313C66 277 117.051 337 162 337C206.949 337 267 256 345 256C423 256 483 415 615 415C704 415 775.667 385.667 806 371" stroke="#F6AAA0" stroke-width="14" stroke-linecap="round"/>
<path d="M7 313C66 277 117.051 337 162 337C206.949 337 267 256 345 256C423 256 483 415 615 415C704 415 775.667 385.667 806 371" stroke="#001733" stroke-width="14" stroke-linecap="round"/>
</g>
<g filter="url(#filter3_i_33_251)">
<path d="M24 394C67.5 419 105.149 464.656 194 438C319 400.5 390 83 816 60" stroke="#E9454C" stroke-width="14" stroke-linecap="round"/>
<path d="M24 394C67.5 419 105.149 464.656 194 438C319 400.5 390 83 816 60" stroke="#F6AAA0" stroke-width="14" stroke-linecap="round"/>
<path d="M24 394C67.5 419 105.149 464.656 194 438C319 400.5 390 83 816 60" stroke="#001733" stroke-width="14" stroke-linecap="round"/>
</g>
<g filter="url(#filter4_i_33_251)">
<path d="M19 279.991C116 218.991 208 314.991 236 342.991C259 365.991 294 400.991 382 408.991" stroke="#FAD0CB" stroke-width="14" stroke-linecap="round"/>
<path d="M19 279.991C116 218.991 208 314.991 236 342.991C259 365.991 294 400.991 382 408.991" stroke="#FF4B53" stroke-width="14" stroke-linecap="round"/>
<path d="M19 279.991C116 218.991 208 314.991 236 342.991C259 365.991 294 400.991 382 408.991" stroke="#E9454C" stroke-width="14" stroke-linecap="round"/>
</g>
<g filter="url(#filter5_i_33_251)">
<path d="M464 392C548 456 599 478 821 440" stroke="#E9454C" stroke-width="14" stroke-linecap="round"/>
<path d="M464 392C548 456 599 478 821 440" stroke="#F6AAA0" stroke-width="14" stroke-linecap="round"/>
<path d="M464 392C548 456 599 478 821 440" stroke="#001733" stroke-width="14" stroke-linecap="round"/>
</g>
<g filter="url(#filter6_i_33_251)">
<path d="M7 313C66 277 117.051 337 162 337C206.949 337 267 256 345 256C423 256 483 415 615 415C704 415 775.667 385.667 806 371" stroke="#E9454C" stroke-width="14" stroke-linecap="round"/>
<path d="M7 313C66 277 117.051 337 162 337C206.949 337 267 256 345 256C423 256 483 415 615 415C704 415 775.667 385.667 806 371" stroke="#F6AAA0" stroke-width="14" stroke-linecap="round"/>
<path d="M7 313C66 277 117.051 337 162 337C206.949 337 267 256 345 256C423 256 483 415 615 415C704 415 775.667 385.667 806 371" stroke="#001733" stroke-width="14" stroke-linecap="round"/>
</g>
<g filter="url(#filter7_i_33_251)">
<path d="M7 313C66 277 117.051 337 162 337C206.949 337 267 256 345 256C423 256 483 415 615 415C704 415 775.667 385.667 806 371" stroke="#E9454C" stroke-width="14" stroke-linecap="round"/>
<path d="M7 313C66 277 117.051 337 162 337C206.949 337 267 256 345 256C423 256 483 415 615 415C704 415 775.667 385.667 806 371" stroke="#F6AAA0" stroke-width="14" stroke-linecap="round"/>
<path d="M7 313C66 277 117.051 337 162 337C206.949 337 267 256 345 256C423 256 483 415 615 415C704 415 775.667 385.667 806 371" stroke="#001733" stroke-width="14" stroke-linecap="round"/>
</g>
<g filter="url(#filter8_i_33_251)">
<path d="M27 324.991C76 366.991 112 404.991 167 404.991C261 404.991 434 172.991 589 172.991C754 172.991 804 225.325 846 238.991" stroke="#FAD0CB" stroke-width="14" stroke-linecap="round"/>
<path d="M27 324.991C76 366.991 112 404.991 167 404.991C261 404.991 434 172.991 589 172.991C754 172.991 804 225.325 846 238.991" stroke="#FF4B53" stroke-width="14" stroke-linecap="round"/>
<path d="M27 324.991C76 366.991 112 404.991 167 404.991C261 404.991 434 172.991 589 172.991C754 172.991 804 225.325 846 238.991" stroke="#E9454C" stroke-width="14" stroke-linecap="round"/>
</g>
<g filter="url(#filter9_i_33_251)">
<path d="M17 204C262 128 256 317.461 424 339C592 360.538 829 270 879 251" stroke="#FAD0CB" stroke-width="14" stroke-linecap="round"/>
<path d="M17 204C262 128 256 317.461 424 339C592 360.538 829 270 879 251" stroke="#FF4B53" stroke-width="14" stroke-linecap="round"/>
<path d="M17 204C262 128 256 317.461 424 339C592 360.538 829 270 879 251" stroke="#E9454C" stroke-width="14" stroke-linecap="round"/>
</g>
<defs>
<filter id="filter0_i_33_251" x="82.9995" y="148" width="189.002" height="58.9927" filterUnits="userSpaceOnUse" color-interpolation-filters="sRGB">
<feFlood flood-opacity="0" result="BackgroundImageFix"/>
<feBlend mode="normal" in="SourceGraphic" in2="BackgroundImageFix" result="shape"/>
<feColorMatrix in="SourceAlpha" type="matrix" values="0 0 0 0 0 0 0 0 0 0 0 0 0 0 0 0 0 0 127 0" result="hardAlpha"/>
<feOffset dy="4"/>
<feGaussianBlur stdDeviation="3"/>
<feComposite in2="hardAlpha" operator="arithmetic" k2="-1" k3="1"/>
<feColorMatrix type="matrix" values="0 0 0 0 1 0 0 0 0 1 0 0 0 0 1 0 0 0 0.4 0"/>
<feBlend mode="normal" in2="shape" result="effect1_innerShadow_33_251"/>
</filter>
<filter id="filter1_i_33_251" x="16.9993" y="217" width="818.001" height="244.001" filterUnits="userSpaceOnUse" color-interpolation-filters="sRGB">
<feFlood flood-opacity="0" result="BackgroundImageFix"/>
<feBlend mode="normal" in="SourceGraphic" in2="BackgroundImageFix" result="shape"/>
<feColorMatrix in="SourceAlpha" type="matrix" values="0 0 0 0 0 0 0 0 0 0 0 0 0 0 0 0 0 0 127 0" result="hardAlpha"/>
<feOffset dy="4"/>
<feGaussianBlur stdDeviation="3"/>
<feComposite in2="hardAlpha" operator="arithmetic" k2="-1" k3="1"/>
<feColorMatrix type="matrix" values="0 0 0 0 1 0 0 0 0 1 0 0 0 0 1 0 0 0 0.4 0"/>
<feBlend mode="normal" in2="shape" result="effect1_innerShadow_33_251"/>
</filter>
<filter id="filter2_i_33_251" x="-0.000976562" y="249" width="813.003" height="177" filterUnits="userSpaceOnUse" color-interpolation-filters="sRGB">
<feFlood flood-opacity="0" result="BackgroundImageFix"/>
<feBlend mode="normal" in="SourceGraphic" in2="BackgroundImageFix" result="shape"/>
<feColorMatrix in="SourceAlpha" type="matrix" values="0 0 0 0 0 0 0 0 0 0 0 0 0 0 0 0 0 0 127 0" result="hardAlpha"/>
<feOffset dy="4"/>
<feGaussianBlur stdDeviation="3"/>
<feComposite in2="hardAlpha" operator="arithmetic" k2="-1" k3="1"/>
<feColorMatrix type="matrix" values="0 0 0 0 1 0 0 0 0 1 0 0 0 0 1 0 0 0 0.4 0"/>
<feBlend mode="normal" in2="shape" result="effect1_innerShadow_33_251"/>
</filter>
<filter id="filter3_i_33_251" x="16.9988" y="52.9998" width="806.001" height="404.09" filterUnits="userSpaceOnUse" color-interpolation-filters="sRGB">
<feFlood flood-opacity="0" result="BackgroundImageFix"/>
<feBlend mode="normal" in="SourceGraphic" in2="BackgroundImageFix" result="shape"/>
<feColorMatrix in="SourceAlpha" type="matrix" values="0 0 0 0 0 0 0 0 0 0 0 0 0 0 0 0 0 0 127 0" result="hardAlpha"/>
<feOffset dy="4"/>
<feGaussianBlur stdDeviation="3"/>
<feComposite in2="hardAlpha" operator="arithmetic" k2="-1" k3="1"/>
<feColorMatrix type="matrix" values="0 0 0 0 1 0 0 0 0 1 0 0 0 0 1 0 0 0 0.4 0"/>
<feBlend mode="normal" in2="shape" result="effect1_innerShadow_33_251"/>
</filter>
<filter id="filter4_i_33_251" x="11.999" y="253.074" width="377.001" height="166.917" filterUnits="userSpaceOnUse" color-interpolation-filters="sRGB">
<feFlood flood-opacity="0" result="BackgroundImageFix"/>
<feBlend mode="normal" in="SourceGraphic" in2="BackgroundImageFix" result="shape"/>
<feColorMatrix in="SourceAlpha" type="matrix" values="0 0 0 0 0 0 0 0 0 0 0 0 0 0 0 0 0 0 127 0" result="hardAlpha"/>
<feOffset dy="4"/>
<feGaussianBlur stdDeviation="3"/>
<feComposite in2="hardAlpha" operator="arithmetic" k2="-1" k3="1"/>
<feColorMatrix type="matrix" values="0 0 0 0 1 0 0 0 0 1 0 0 0 0 1 0 0 0 0.4 0"/>
<feBlend mode="normal" in2="shape" result="effect1_innerShadow_33_251"/>
</filter>
<filter id="filter5_i_33_251" x="457" y="385" width="371.002" height="84.666" filterUnits="userSpaceOnUse" color-interpolation-filters="sRGB">
<feFlood flood-opacity="0" result="BackgroundImageFix"/>
<feBlend mode="normal" in="SourceGraphic" in2="BackgroundImageFix" result="shape"/>
<feColorMatrix in="SourceAlpha" type="matrix" values="0 0 0 0 0 0 0 0 0 0 0 0 0 0 0 0 0 0 127 0" result="hardAlpha"/>
<feOffset dy="4"/>
<feGaussianBlur stdDeviation="3"/>
<feComposite in2="hardAlpha" operator="arithmetic" k2="-1" k3="1"/>
<feColorMatrix type="matrix" values="0 0 0 0 1 0 0 0 0 1 0 0 0 0 1 0 0 0 0.4 0"/>
<feBlend mode="normal" in2="shape" result="effect1_innerShadow_33_251"/>
</filter>
<filter id="filter6_i_33_251" x="-0.000976562" y="249" width="813.003" height="177" filterUnits="userSpaceOnUse" color-interpolation-filters="sRGB">
<feFlood flood-opacity="0" result="BackgroundImageFix"/>
<feBlend mode="normal" in="SourceGraphic" in2="BackgroundImageFix" result="shape"/>
<feColorMatrix in="SourceAlpha" type="matrix" values="0 0 0 0 0 0 0 0 0 0 0 0 0 0 0 0 0 0 127 0" result="hardAlpha"/>
<feOffset dy="4"/>
<feGaussianBlur stdDeviation="3"/>
<feComposite in2="hardAlpha" operator="arithmetic" k2="-1" k3="1"/>
<feColorMatrix type="matrix" values="0 0 0 0 1 0 0 0 0 1 0 0 0 0 1 0 0 0 0.4 0"/>
<feBlend mode="normal" in2="shape" result="effect1_innerShadow_33_251"/>
</filter>
<filter id="filter7_i_33_251" x="-0.000976562" y="249" width="813.003" height="177" filterUnits="userSpaceOnUse" color-interpolation-filters="sRGB">
<feFlood flood-opacity="0" result="BackgroundImageFix"/>
<feBlend mode="normal" in="SourceGraphic" in2="BackgroundImageFix" result="shape"/>
<feColorMatrix in="SourceAlpha" type="matrix" values="0 0 0 0 0 0 0 0 0 0 0 0 0 0 0 0 0 0 127 0" result="hardAlpha"/>
<feOffset dy="4"/>
<feGaussianBlur stdDeviation="3"/>
<feComposite in2="hardAlpha" operator="arithmetic" k2="-1" k3="1"/>
<feColorMatrix type="matrix" values="0 0 0 0 1 0 0 0 0 1 0 0 0 0 1 0 0 0 0.4 0"/>
<feBlend mode="normal" in2="shape" result="effect1_innerShadow_33_251"/>
</filter>
<filter id="filter8_i_33_251" x="19.9998" y="165.991" width="833.002" height="250" filterUnits="userSpaceOnUse" color-interpolation-filters="sRGB">
<feFlood flood-opacity="0" result="BackgroundImageFix"/>
<feBlend mode="normal" in="SourceGraphic" in2="BackgroundImageFix" result="shape"/>
<feColorMatrix in="SourceAlpha" type="matrix" values="0 0 0 0 0 0 0 0 0 0 0 0 0 0 0 0 0 0 127 0" result="hardAlpha"/>
<feOffset dy="4"/>
<feGaussianBlur stdDeviation="3"/>
<feComposite in2="hardAlpha" operator="arithmetic" k2="-1" k3="1"/>
<feColorMatrix type="matrix" values="0 0 0 0 1 0 0 0 0 1 0 0 0 0 1 0 0 0 0.4 0"/>
<feBlend mode="normal" in2="shape" result="effect1_innerShadow_33_251"/>
</filter>
<filter id="filter9_i_33_251" x="9.99805" y="179.114" width="876.004" height="174.175" filterUnits="userSpaceOnUse" color-interpolation-filters="sRGB">
<feFlood flood-opacity="0" result="BackgroundImageFix"/>
<feBlend mode="normal" in="SourceGraphic" in2="BackgroundImageFix" result="shape"/>
<feColorMatrix in="SourceAlpha" type="matrix" values="0 0 0 0 0 0 0 0 0 0 0 0 0 0 0 0 0 0 127 0" result="hardAlpha"/>
<feOffset dy="4"/>
<feGaussianBlur stdDeviation="3"/>
<feComposite in2="hardAlpha" operator="arithmetic" k2="-1" k3="1"/>
<feColorMatrix type="matrix" values="0 0 0 0 1 0 0 0 0 1 0 0 0 0 1 0 0 0 0.4 0"/>
<feBlend mode="normal" in2="shape" result="effect1_innerShadow_33_251"/>
</filter>
<linearGradient id="paint0_linear_33_251" x1="126" y1="572" x2="423" y2="279" gradientUnits="userSpaceOnUse">
<stop stop-color="#DEDEE8"/>
<stop offset="1" stop-color="#DEDEE8" stop-opacity="0"/>
</linearGradient>
<linearGradient id="paint1_linear_33_251" x1="695" y1="6.99999" x2="387" y2="315" gradientUnits="userSpaceOnUse">
<stop stop-color="#F59F94"/>
<stop offset="1" stop-color="#F59F94" stop-opacity="0"/>
</linearGradient>
</defs>
</svg>
