<svg xmlns="http://www.w3.org/2000/svg" xmlns:xlink="http://www.w3.org/1999/xlink" width="17" height="17" viewBox="0 0 17 17">
  <defs>
    <path id="account-a" d="M4,11.5 C4,16.186 7.813,20 12.5,20 L12.5,20 C17.186,20 21,16.186 21,11.5 L21,11.5 C21,6.813 17.186,3 12.5,3 L12.5,3 C7.813,3 4,6.813 4,11.5 L4,11.5 Z M6.816,15.495 C5.985,14.315 5.546,12.934 5.546,11.5 L5.546,11.5 C5.546,7.665 8.665,4.546 12.5,4.546 L12.5,4.546 C16.335,4.546 19.454,7.665 19.454,11.5 L19.454,11.5 C19.454,12.936 19.014,14.317 18.183,15.496 L18.183,15.496 L17.94,15.842 L17.744,15.467 C17.174,14.376 16.297,13.5 15.207,12.936 L15.207,12.936 L14.929,12.791 L15.124,12.546 C15.598,11.949 15.849,11.231 15.849,10.469 L15.849,10.469 C15.849,8.624 14.347,7.122 12.5,7.122 L12.5,7.122 C10.654,7.122 9.151,8.624 9.151,10.469 L9.151,10.469 C9.151,11.231 9.402,11.949 9.877,12.546 L9.877,12.546 L10.071,12.791 L9.794,12.936 C8.702,13.5 7.825,14.376 7.256,15.465 L7.256,15.465 L7.06,15.841 L6.816,15.495 Z M10.696,10.469 C10.696,9.476 11.506,8.667 12.5,8.667 L12.5,8.667 C13.495,8.667 14.303,9.476 14.303,10.469 L14.303,10.469 C14.303,11.463 13.495,12.272 12.5,12.272 L12.5,12.272 C11.506,12.272 10.696,11.463 10.696,10.469 L10.696,10.469 Z M8.432,17.13 L8.28,17.02 L8.338,16.841 C8.93,15.033 10.602,13.818 12.5,13.818 L12.5,13.818 C14.398,13.818 16.071,15.033 16.661,16.841 L16.661,16.841 L16.72,17.02 L16.567,17.13 C15.371,17.996 13.965,18.454 12.5,18.454 L12.5,18.454 C11.036,18.454 9.629,17.996 8.432,17.13 L8.432,17.13 Z"/>
  </defs>
  <g fill="none" fill-rule="evenodd" transform="translate(-4 -3)">
    <rect width="24" height="24"/>
    <mask id="account-b" fill="#fff">
      <use xlink:href="#account-a"/>
    </mask>
    <g fill="#FFF" mask="url(#account-b)">
      <rect width="24" height="24"/>
    </g>
  </g>
</svg>
