<svg xmlns="http://www.w3.org/2000/svg" width="12" height="11" viewBox="0 0 12 11">
  <path fill="#BDC1D9" d="M34.1161959,235.731752 L34.712414,235.176371 C34.9648667,234.94121 35.3730881,234.94121 35.6228552,235.176371 L40.8437921,240.037208 C41.0962448,240.272369 41.0962448,240.65263 40.8437921,240.88529 L35.6228552,245.748629 C35.3704025,245.98379 34.9621811,245.98379 34.712414,245.748629 L34.1161959,245.193247 C33.8610575,244.955584 33.8664289,244.567818 34.1269386,244.335158 L37.3631675,241.463187 L29.6445601,241.463187 C29.2873664,241.463187 29,241.195503 29,240.862775 L29,240.062225 C29,239.729497 29.2873664,239.461813 29.6445601,239.461813 L37.3631675,239.461813 L34.1269386,236.589841 C33.8637432,236.357182 33.8583719,235.969415 34.1161959,235.731752 Z" transform="translate(-29 -235)"/>
</svg>
