<svg xmlns="http://www.w3.org/2000/svg" width="12" height="11" viewBox="0 0 12 11">
  <path fill="#E38500" d="M5.11619592,195.731752 L5.71241402,195.176371 C5.96486673,194.94121 6.37308814,194.94121 6.62285519,195.176371 L11.8437921,200.037208 C12.0962448,200.272369 12.0962448,200.65263 11.8437921,200.88529 L6.62285519,205.748629 C6.37040247,205.98379 5.96218107,205.98379 5.71241402,205.748629 L5.11619592,205.193247 C4.86105754,204.955584 4.86642887,204.567818 5.12693858,204.335158 L8.3631675,201.463187 L0.644560115,201.463187 C0.287366385,201.463187 0,201.195503 0,200.862775 L0,200.062225 C0,199.729497 0.287366385,199.461813 0.644560115,199.461813 L8.3631675,199.461813 L5.12693858,196.589841 C4.8637432,196.357182 4.85837187,195.969415 5.11619592,195.731752 Z" transform="translate(0 -195)"/>
</svg>
