<svg xmlns="http://www.w3.org/2000/svg" width="32" height="32" viewBox="0 0 32 32">
  <g fill="#E38500" stroke="#E38500" transform="translate(1 1)">
    <path d="M14.9741546,0 C6.70415737,0 0,6.70415737 0,14.9741546 C0,23.2441518 6.70415737,29.9483092 14.9741546,29.9483092 C23.2441518,29.9483092 29.9483092,23.2441518 29.9483092,14.9741546 C29.9420484,6.70675207 23.2415571,0.0062608149 14.9741546,0 Z M14.9741546,28.7449275 C7.3687667,28.7449275 1.20338164,22.5795425 1.20338164,14.9741546 C1.20338164,7.3687667 7.3687667,1.20338164 14.9741546,1.20338164 C22.5795425,1.20338164 28.7449275,7.3687667 28.7449275,14.9741546 C28.7324272,22.5743586 22.5743586,28.7324272 14.9741546,28.7449275 Z"/>
    <path d="M14.9496284 23.6952806C15.281933 23.6952806 15.5513192 23.4258944 15.5513192 23.0935897L15.5513192 22.7757153C15.5513192 22.4434107 15.281933 22.1740245 14.9496284 22.1740245 14.7891146 22.1709069 14.6342541 22.2332975 14.5207323 22.3468192 14.4072105 22.460341 14.3448199 22.6152016 14.3479376 22.7757153L14.3479376 23.0935897C14.3479376 23.2531681 14.4113298 23.4062105 14.5241687 23.5190494 14.6370076 23.6318883 14.7900501 23.6952806 14.9496284 23.6952806zM17.560906 16.2799517C18.9232249 15.3149758 20.3309543 14.315942 20.5920654 12.3178744 20.7885192 10.7569398 20.2905612 9.18837184 19.2297466 8.02657005 18.0447581 6.67347266 16.3396241 5.88902843 14.5410992 5.86956522 11.1955642 5.87581273 8.48502792 8.58634904 8.47878041 11.9318841 8.46905881 12.1618311 8.5964561 12.3757019 8.80328621 12.4766547 9.01011632 12.5776075 9.25710066 12.5464706 9.4324036 12.397343 9.58295232 12.2889825 9.67510638 12.1172408 9.68216205 11.9318841 9.68216205 9.24836714 11.8575823 7.07294686 14.5410992 7.07294686 15.9960318 7.0904591 17.3747964 7.72617689 18.3328867 8.82125604 19.163282 9.72207621 19.5537914 10.9434567 19.4000364 12.1589372 19.2070413 13.6461353 18.0717756 14.4294686 16.8683939 15.2922705 15.6674674 15.9693701 14.7132012 17.0111107 14.1437563 18.2666667 14.045431 18.5416929 13.9806315 18.8275732 13.9507611 19.1181159 13.9283306 19.2754523 13.9715606 19.4350916 14.0703172 19.5596108 14.1690737 19.6841299 14.314673 19.7625798 14.4729833 19.77657 14.7968369 19.7990386 15.0855985 19.5739024 15.1427901 19.2543478 15.2903746 17.8806763 16.3461717 17.131401 17.560906 16.2799517z"/>
  </g>
</svg>
