<svg xmlns="http://www.w3.org/2000/svg" xmlns:xlink="http://www.w3.org/1999/xlink" width="24" height="22" viewBox="0 0 24 22">
  <defs>
    <path id="in-footer-a" d="M28.3333333,26.9166667 L23.3236908,26.9166667 L23.3236908,19.4464419 C23.3236908,17.4911208 22.5400596,16.1562773 20.8168705,16.1562773 C19.4988241,16.1562773 18.7658357,17.0570585 18.4246629,17.925183 C18.2967231,18.2367826 18.3167137,18.6708448 18.3167137,19.104907 L18.3167137,26.9166667 L13.3537159,26.9166667 C13.3537159,26.9166667 13.4176858,13.6838915 13.3537159,12.4810356 L18.3167137,12.4810356 L18.3167137,14.7465956 C18.6099091,13.7560084 20.1958294,12.3422446 22.7266384,12.3422446 C25.8664942,12.3422446 28.3333333,14.4186677 28.3333333,18.889917 L28.3333333,26.9166667 L28.3333333,26.9166667 Z M8.33474443,10.6753911 L8.30275949,10.6753911 C6.70351207,10.6753911 5.66666667,9.57186613 5.66666667,8.17306995 C5.66666667,6.74705983 6.73416431,5.66666667 8.36539668,5.66666667 C9.99529633,5.66666667 10.9974914,6.74433843 11.0294763,8.16898786 C11.0294763,9.56778404 9.99529633,10.6753911 8.33474443,10.6753911 L8.33474443,10.6753911 L8.33474443,10.6753911 Z M6.23839762,12.4810356 L10.6563186,12.4810356 L10.6563186,26.9166667 L6.23839762,26.9166667 L6.23839762,12.4810356 L6.23839762,12.4810356 Z"/>
  </defs>
  <g fill="none" fill-rule="evenodd" transform="translate(-5 -5)">
    <rect width="34" height="34"/>
    <mask id="in-footer-b" fill="#fff">
      <use xlink:href="#in-footer-a"/>
    </mask>
    <use fill="#000" xlink:href="#in-footer-a"/>
    <g fill="#1D213A" mask="url(#in-footer-b)">
      <rect width="34" height="34"/>
    </g>
  </g>
</svg>
