<svg xmlns="http://www.w3.org/2000/svg" xmlns:xlink="http://www.w3.org/1999/xlink" width="26" height="26" viewBox="0 0 26 26">
  <defs>
    <path id="insta-footer-a" d="M17,4.25 C20.4623333,4.25 20.89725,4.26416667 22.2558333,4.3265 C23.613,4.38883333 24.5409167,4.60416667 25.3526667,4.92008333 C26.1899167,5.24591667 26.9010833,5.68083333 27.6094167,6.39058333 C28.3191667,7.09891667 28.7540833,7.81008333 29.0799167,8.64733333 C29.3958333,9.45908333 29.6111667,10.387 29.6735,11.7441667 C29.7358333,13.10275 29.75,13.5376667 29.75,17 C29.75,20.4623333 29.7358333,20.89725 29.6735,22.2558333 C29.6111667,23.613 29.3958333,24.5409167 29.0799167,25.3526667 C28.7540833,26.1899167 28.3191667,26.9010833 27.6094167,27.6094167 C26.9010833,28.3191667 26.1899167,28.7540833 25.3526667,29.0799167 C24.5409167,29.3958333 23.613,29.6111667 22.2558333,29.6735 C20.89725,29.7358333 20.4623333,29.75 17,29.75 C13.5376667,29.75 13.10275,29.7358333 11.7441667,29.6735 C10.387,29.6111667 9.45908333,29.3958333 8.64733333,29.0799167 C7.81008333,28.7540833 7.09891667,28.3191667 6.39058333,27.6094167 C5.68083333,26.9010833 5.24591667,26.1899167 4.92008333,25.3526667 C4.60416667,24.5409167 4.38883333,23.613 4.3265,22.2558333 C4.26416667,20.89725 4.25,20.4623333 4.25,17 C4.25,13.5376667 4.26416667,13.10275 4.3265,11.7441667 C4.38883333,10.387 4.60416667,9.45908333 4.92008333,8.64733333 C5.24591667,7.81008333 5.68083333,7.09891667 6.39058333,6.39058333 C7.09891667,5.68083333 7.81008333,5.24591667 8.64733333,4.92008333 C9.45908333,4.60416667 10.387,4.38883333 11.7441667,4.3265 C13.10275,4.26416667 13.5376667,4.25 17,4.25 M17,6.54783333 C13.59575,6.54783333 13.192,6.56058333 11.8475833,6.6215 C10.6051667,6.67816667 9.92941667,6.88641667 9.48033333,7.06066667 C8.88533333,7.29158333 8.46033333,7.56783333 8.01408333,8.01408333 C7.56783333,8.46033333 7.29158333,8.88533333 7.06066667,9.48033333 C6.88641667,9.92941667 6.67816667,10.6051667 6.6215,11.8475833 C6.56058333,13.192 6.54783333,13.59575 6.54783333,17 C6.54783333,20.40425 6.56058333,20.808 6.6215,22.1524167 C6.67816667,23.3948333 6.88641667,24.0705833 7.06066667,24.5196667 C7.29158333,25.1146667 7.56783333,25.5396667 8.01408333,25.9859167 C8.46033333,26.4321667 8.88533333,26.7084167 9.48033333,26.9393333 C9.92941667,27.1135833 10.6051667,27.3218333 11.8475833,27.3785 C13.192,27.4394167 13.59575,27.4521667 17,27.4521667 C20.40425,27.4521667 20.808,27.4394167 22.1524167,27.3785 C23.3948333,27.3218333 24.0705833,27.1135833 24.5196667,26.9393333 C25.1146667,26.7084167 25.5396667,26.4321667 25.9859167,25.9859167 C26.4321667,25.5396667 26.7084167,25.1146667 26.9393333,24.5196667 C27.1135833,24.0705833 27.3218333,23.3948333 27.3785,22.1524167 C27.4394167,20.808 27.4521667,20.40425 27.4521667,17 C27.4521667,13.59575 27.4394167,13.192 27.3785,11.8475833 C27.3218333,10.6051667 27.1135833,9.92941667 26.9393333,9.48033333 C26.7084167,8.88533333 26.4321667,8.46033333 25.9859167,8.01408333 C25.5396667,7.56783333 25.1146667,7.29158333 24.5196667,7.06066667 C24.0705833,6.88641667 23.3948333,6.67816667 22.1524167,6.6215 C20.808,6.56058333 20.40425,6.54783333 17,6.54783333 M17,10.4521667 C20.6153333,10.4521667 23.5478333,13.3846667 23.5478333,17 C23.5478333,20.6153333 20.6153333,23.5478333 17,23.5478333 C13.3846667,23.5478333 10.4521667,20.6153333 10.4521667,17 C10.4521667,13.3846667 13.3846667,10.4521667 17,10.4521667 M17,21.25 C19.3474167,21.25 21.25,19.3474167 21.25,17 C21.25,14.6525833 19.3474167,12.75 17,12.75 C14.6525833,12.75 12.75,14.6525833 12.75,17 C12.75,19.3474167 14.6525833,21.25 17,21.25 M25.3356667,10.1943333 C25.3356667,11.0386667 24.6514167,11.7243333 23.8056667,11.7243333 C22.9613333,11.7243333 22.2756667,11.0386667 22.2756667,10.1943333 C22.2756667,9.34858333 22.9613333,8.66433333 23.8056667,8.66433333 C24.6514167,8.66433333 25.3356667,9.34858333 25.3356667,10.1943333"/>
  </defs>
  <g fill="none" fill-rule="evenodd" transform="translate(-4 -4)">
    <rect width="34" height="34"/>
    <mask id="insta-footer-b" fill="#fff">
      <use xlink:href="#insta-footer-a"/>
    </mask>
    <use fill="#000" xlink:href="#insta-footer-a"/>
    <g fill="#1D213A" mask="url(#insta-footer-b)">
      <rect width="34" height="34"/>
    </g>
  </g>
</svg>
