<svg xmlns="http://www.w3.org/2000/svg" xmlns:xlink="http://www.w3.org/1999/xlink" width="16" height="16" viewBox="0 0 16 16">
  <defs>
    <path id="instagram-a" d="M10,2.5 C12.0366667,2.5 12.2925,2.50833333 13.0916667,2.545 C13.89,2.58166667 14.4358333,2.70833333 14.9133333,2.89416667 C15.4058333,3.08583333 15.8241667,3.34166667 16.2408333,3.75916667 C16.6583333,4.17583333 16.9141667,4.59416667 17.1058333,5.08666667 C17.2916667,5.56416667 17.4183333,6.11 17.455,6.90833333 C17.4916667,7.7075 17.5,7.96333333 17.5,10 C17.5,12.0366667 17.4916667,12.2925 17.455,13.0916667 C17.4183333,13.89 17.2916667,14.4358333 17.1058333,14.9133333 C16.9141667,15.4058333 16.6583333,15.8241667 16.2408333,16.2408333 C15.8241667,16.6583333 15.4058333,16.9141667 14.9133333,17.1058333 C14.4358333,17.2916667 13.89,17.4183333 13.0916667,17.455 C12.2925,17.4916667 12.0366667,17.5 10,17.5 C7.96333333,17.5 7.7075,17.4916667 6.90833333,17.455 C6.11,17.4183333 5.56416667,17.2916667 5.08666667,17.1058333 C4.59416667,16.9141667 4.17583333,16.6583333 3.75916667,16.2408333 C3.34166667,15.8241667 3.08583333,15.4058333 2.89416667,14.9133333 C2.70833333,14.4358333 2.58166667,13.89 2.545,13.0916667 C2.50833333,12.2925 2.5,12.0366667 2.5,10 C2.5,7.96333333 2.50833333,7.7075 2.545,6.90833333 C2.58166667,6.11 2.70833333,5.56416667 2.89416667,5.08666667 C3.08583333,4.59416667 3.34166667,4.17583333 3.75916667,3.75916667 C4.17583333,3.34166667 4.59416667,3.08583333 5.08666667,2.89416667 C5.56416667,2.70833333 6.11,2.58166667 6.90833333,2.545 C7.7075,2.50833333 7.96333333,2.5 10,2.5 M10,3.85166667 C7.9975,3.85166667 7.76,3.85916667 6.96916667,3.895 C6.23833333,3.92833333 5.84083333,4.05083333 5.57666667,4.15333333 C5.22666667,4.28916667 4.97666667,4.45166667 4.71416667,4.71416667 C4.45166667,4.97666667 4.28916667,5.22666667 4.15333333,5.57666667 C4.05083333,5.84083333 3.92833333,6.23833333 3.895,6.96916667 C3.85916667,7.76 3.85166667,7.9975 3.85166667,10 C3.85166667,12.0025 3.85916667,12.24 3.895,13.0308333 C3.92833333,13.7616667 4.05083333,14.1591667 4.15333333,14.4233333 C4.28916667,14.7733333 4.45166667,15.0233333 4.71416667,15.2858333 C4.97666667,15.5483333 5.22666667,15.7108333 5.57666667,15.8466667 C5.84083333,15.9491667 6.23833333,16.0716667 6.96916667,16.105 C7.76,16.1408333 7.9975,16.1483333 10,16.1483333 C12.0025,16.1483333 12.24,16.1408333 13.0308333,16.105 C13.7616667,16.0716667 14.1591667,15.9491667 14.4233333,15.8466667 C14.7733333,15.7108333 15.0233333,15.5483333 15.2858333,15.2858333 C15.5483333,15.0233333 15.7108333,14.7733333 15.8466667,14.4233333 C15.9491667,14.1591667 16.0716667,13.7616667 16.105,13.0308333 C16.1408333,12.24 16.1483333,12.0025 16.1483333,10 C16.1483333,7.9975 16.1408333,7.76 16.105,6.96916667 C16.0716667,6.23833333 15.9491667,5.84083333 15.8466667,5.57666667 C15.7108333,5.22666667 15.5483333,4.97666667 15.2858333,4.71416667 C15.0233333,4.45166667 14.7733333,4.28916667 14.4233333,4.15333333 C14.1591667,4.05083333 13.7616667,3.92833333 13.0308333,3.895 C12.24,3.85916667 12.0025,3.85166667 10,3.85166667 M10,6.14833333 C12.1266667,6.14833333 13.8516667,7.87333333 13.8516667,10 C13.8516667,12.1266667 12.1266667,13.8516667 10,13.8516667 C7.87333333,13.8516667 6.14833333,12.1266667 6.14833333,10 C6.14833333,7.87333333 7.87333333,6.14833333 10,6.14833333 M10,12.5 C11.3808333,12.5 12.5,11.3808333 12.5,10 C12.5,8.61916667 11.3808333,7.5 10,7.5 C8.61916667,7.5 7.5,8.61916667 7.5,10 C7.5,11.3808333 8.61916667,12.5 10,12.5 M14.9033333,5.99666667 C14.9033333,6.49333333 14.5008333,6.89666667 14.0033333,6.89666667 C13.5066667,6.89666667 13.1033333,6.49333333 13.1033333,5.99666667 C13.1033333,5.49916667 13.5066667,5.09666667 14.0033333,5.09666667 C14.5008333,5.09666667 14.9033333,5.49916667 14.9033333,5.99666667"/>
  </defs>
  <g fill="none" fill-rule="evenodd" transform="translate(-2 -2)">
    <rect width="20" height="20"/>
    <mask id="instagram-b" fill="#fff">
      <use xlink:href="#instagram-a"/>
    </mask>
    <use fill="#000" xlink:href="#instagram-a"/>
    <g fill="#FFF" mask="url(#instagram-b)">
      <rect width="20" height="20"/>
    </g>
  </g>
</svg>
