<svg xmlns="http://www.w3.org/2000/svg" xmlns:xlink="http://www.w3.org/1999/xlink" width="14" height="13" viewBox="0 0 14 13">
  <defs>
    <path id="linkedin-a" d="M16.6666667,15.8333333 L13.7198181,15.8333333 L13.7198181,11.4390835 C13.7198181,10.2888946 13.2588586,9.50369256 12.2452179,9.50369256 C11.4698965,9.50369256 11.0387269,10.0335639 10.838037,10.5442253 C10.7627783,10.7275192 10.7745375,10.9828499 10.7745375,11.2381806 L10.7745375,15.8333333 L7.855127,15.8333333 C7.855127,15.8333333 7.89275635,8.04934793 7.855127,7.34178566 L10.7745375,7.34178566 L10.7745375,8.67446799 C10.9470053,8.09176965 11.8798997,7.26014386 13.3686108,7.26014386 C15.2155848,7.26014386 16.6666667,8.48156923 16.6666667,11.1117159 L16.6666667,15.8333333 L16.6666667,15.8333333 Z M4.90279084,6.27964184 L4.88397617,6.27964184 C3.9432424,6.27964184 3.33333333,5.63050949 3.33333333,4.8076882 C3.33333333,3.96885872 3.96127313,3.33333333 4.92082157,3.33333333 C5.87958608,3.33333333 6.46911257,3.9672579 6.48792725,4.80528697 C6.48792725,5.62810826 5.87958608,6.27964184 4.90279084,6.27964184 L4.90279084,6.27964184 L4.90279084,6.27964184 Z M3.66964566,7.34178566 L6.2684227,7.34178566 L6.2684227,15.8333333 L3.66964566,15.8333333 L3.66964566,7.34178566 L3.66964566,7.34178566 Z"/>
  </defs>
  <g fill="none" fill-rule="evenodd" transform="translate(-3 -3)">
    <rect width="20" height="20"/>
    <mask id="linkedin-b" fill="#fff">
      <use xlink:href="#linkedin-a"/>
    </mask>
    <use fill="#000" xlink:href="#linkedin-a"/>
    <g fill="#FFF" mask="url(#linkedin-b)">
      <rect width="20" height="20"/>
    </g>
  </g>
</svg>
