<svg xmlns="http://www.w3.org/2000/svg" xmlns:xlink="http://www.w3.org/1999/xlink" width="199" height="93" viewBox="0 0 199 93">
  <defs>
    <polygon id="logo-insiders-a" points="0 92 198.871 92 198.871 .534 0 .534"/>
  </defs>
  <g fill="none" fill-rule="evenodd" transform="translate(.176)">
    <polygon fill="#F05A28" points="117.028 81.176 117.662 81.176 117.662 80.094 117.028 80.094"/>
    <polygon stroke="#F05A28" stroke-width=".15" points="117.028 81.176 117.662 81.176 117.662 80.094 117.028 80.094"/>
    <polygon fill="#F05A28" points="122.435 81.176 123.071 81.176 123.071 80.094 122.435 80.094"/>
    <polygon stroke="#F05A28" stroke-width=".15" points="122.435 81.176 123.07 81.176 123.07 80.094 122.435 80.094"/>
    <polygon fill="#F05A28" points="122.435 81.176 123.071 81.176 123.071 80.094 122.435 80.094"/>
    <polygon stroke="#F05A28" stroke-width=".15" points="122.435 81.176 123.07 81.176 123.07 80.094 122.435 80.094"/>
    <path fill="#008EB3" d="M88.3896826,85.0325088 C87.7455122,84.6836448 86.7158715,84.5106848 85.2992863,84.5106848 L83.16409,84.5106848 L83.16409,88.4291488 L85.1076567,88.4291488 C85.612527,88.4291488 86.1173974,88.4092768 86.6215307,88.3636448 C87.123453,88.3216928 87.581153,88.2311648 87.9887344,88.0913248 C88.3963159,87.9522208 88.7272456,87.7520288 88.9771011,87.4914848 C89.2299048,87.2302048 89.3559381,86.8820768 89.3559381,86.4478368 C89.3559381,85.8538848 89.033853,85.3813728 88.3896826,85.0325088 M88.6240604,81.6542688 C88.5046604,81.4518688 88.299027,81.2781728 88.0137937,81.1324448 C87.7248752,80.9837728 87.3445641,80.8696928 86.8713863,80.7821088 C86.4004196,80.6937888 85.8174233,80.6511008 85.1209233,80.6511008 L83.16409,80.6511008 L83.16409,84.0948448 L85.1327159,84.0948448 C85.9324011,84.0948448 86.5743604,84.0403808 87.0585937,83.9351328 C87.542827,83.8269408 87.9142937,83.6900448 88.1752048,83.5185568 C88.4346419,83.3478048 88.6034233,83.1564448 88.6844974,82.9430048 C88.7633604,82.7295648 88.8038974,82.5153888 88.8038974,82.3019488 C88.8038974,82.0730528 88.7456715,81.8574048 88.6240604,81.6542688 M89.6035826,87.3722528 C89.4620715,87.6350048 89.2748641,87.8535968 89.0382752,88.0331808 C88.8016863,88.2105568 88.5289826,88.3526048 88.2164789,88.4607968 C87.9054493,88.5667808 87.5745196,88.6470048 87.2273752,88.7036768 C86.8780196,88.7581408 86.5220307,88.7956768 86.1571974,88.8162848 C85.7945752,88.8361568 85.4430085,88.8457248 85.1076567,88.8457248 L82.7086011,88.8457248 L82.7086011,80.2345248 L85.1570381,80.2345248 C85.9007085,80.2345248 86.5338233,80.2867808 87.0585937,80.3876128 C87.5833641,80.4913888 88.0064233,80.6371168 88.3307196,80.8218528 C88.6550159,81.0087968 88.8893937,81.2288608 89.0382752,81.4813088 C89.1871567,81.7359648 89.2615974,82.0163808 89.2615974,82.3240288 C89.2615974,82.8083168 89.1038715,83.2219488 88.7928419,83.5663968 C88.4796011,83.9108448 87.9636752,84.1515168 87.2450641,84.2854688 C88.0292715,84.3966048 88.6528048,84.6321248 89.1171381,84.9920288 C89.5814715,85.3526688 89.8129011,85.8384288 89.8129011,86.4478368 C89.8129011,86.8025888 89.7428826,87.1109728 89.6035826,87.3722528"/>
    <path stroke="#008EB3" stroke-width=".15" d="M88.3896826,85.0325088 C87.7455122,84.6836448 86.7158715,84.5106848 85.2992863,84.5106848 L83.16409,84.5106848 L83.16409,88.4291488 L85.1076567,88.4291488 C85.612527,88.4291488 86.1173974,88.4092768 86.6215307,88.3636448 C87.123453,88.3216928 87.581153,88.2311648 87.9887344,88.0913248 C88.3963159,87.9522208 88.7272456,87.7520288 88.9771011,87.4914848 C89.2299048,87.2302048 89.3559381,86.8820768 89.3559381,86.4478368 C89.3559381,85.8538848 89.033853,85.3813728 88.3896826,85.0325088 Z M88.6240604,81.6542688 C88.5046604,81.4518688 88.299027,81.2781728 88.0137937,81.1324448 C87.7248752,80.9837728 87.3445641,80.8696928 86.8713863,80.7821088 C86.4004196,80.6937888 85.8174233,80.6511008 85.1209233,80.6511008 L83.16409,80.6511008 L83.16409,84.0948448 L85.1327159,84.0948448 C85.9324011,84.0948448 86.5743604,84.0403808 87.0585937,83.9351328 C87.542827,83.8269408 87.9142937,83.6900448 88.1752048,83.5185568 C88.4346419,83.3478048 88.6034233,83.1564448 88.6844974,82.9430048 C88.7633604,82.7295648 88.8038974,82.5153888 88.8038974,82.3019488 C88.8038974,82.0730528 88.7456715,81.8574048 88.6240604,81.6542688 Z M89.6035826,87.3722528 C89.4620715,87.6350048 89.2748641,87.8535968 89.0382752,88.0331808 C88.8016863,88.2105568 88.5289826,88.3526048 88.2164789,88.4607968 C87.9054493,88.5667808 87.5745196,88.6470048 87.2273752,88.7036768 C86.8780196,88.7581408 86.5220307,88.7956768 86.1571974,88.8162848 C85.7945752,88.8361568 85.4430085,88.8457248 85.1076567,88.8457248 L82.7086011,88.8457248 L82.7086011,80.2345248 L85.1570381,80.2345248 C85.9007085,80.2345248 86.5338233,80.2867808 87.0585937,80.3876128 C87.5833641,80.4913888 88.0064233,80.6371168 88.3307196,80.8218528 C88.6550159,81.0087968 88.8893937,81.2288608 89.0382752,81.4813088 C89.1871567,81.7359648 89.2615974,82.0163808 89.2615974,82.3240288 C89.2615974,82.8083168 89.1038715,83.2219488 88.7928419,83.5663968 C88.4796011,83.9108448 87.9636752,84.1515168 87.2450641,84.2854688 C88.0292715,84.3966048 88.6528048,84.6321248 89.1171381,84.9920288 C89.5814715,85.3526688 89.8129011,85.8384288 89.8129011,86.4478368 C89.8129011,86.8025888 89.7428826,87.1109728 89.6035826,87.3722528 Z"/>
    <path fill="#008EB3" d="M94.8542344,90.1521248 C94.7820048,90.3339168 94.6832419,90.5282208 94.5594196,90.7343008 C94.4355974,90.9389088 94.269027,91.1354208 94.0611826,91.3172128 C93.8607085,91.4997408 93.6196974,91.6476768 93.3359381,91.7669088 C93.0521789,91.8861408 92.7050344,91.9450208 92.297453,91.9450208 C92.0903456,91.9450208 91.9127196,91.9361888 91.7638381,91.9155808 C91.6149567,91.8949728 91.4778678,91.8662688 91.3496233,91.8272608 C91.1963196,91.7808928 91.065127,91.7315808 90.9530974,91.6793248 C90.8403307,91.6278048 90.7165085,91.5623008 90.5816307,91.4842848 L90.7975826,91.1148128 C90.9103493,91.1781088 91.0179567,91.2362528 91.1218789,91.2929248 C91.2258011,91.3488608 91.3400419,91.3959648 91.4690233,91.4342368 C91.58179,91.4747168 91.7070863,91.5041568 91.8471233,91.5240288 C91.9864233,91.5446368 92.1375159,91.5534688 92.297453,91.5534688 C92.6018493,91.5534688 92.8767641,91.5107808 93.1266196,91.4231968 C93.3742641,91.3348768 93.5931641,91.2023968 93.7862678,91.0206048 C94.0567604,90.7571168 94.2867159,90.4266528 94.4695011,90.0211168 L95.0701863,88.6676128 L91.0496493,82.3358048 L91.5405159,82.3358048 L93.4376493,85.3188128 C93.7413085,85.8023648 94.0479159,86.2851808 94.3567344,86.7738848 C94.6626048,87.2589088 94.9692122,87.7409888 95.2728715,88.2157088 C95.6988789,87.2257888 96.1175159,86.2564768 96.5346789,85.3070368 L97.8185974,82.3358048 L98.2733493,82.3358048 L94.8542344,90.1521248 Z"/>
    <path stroke="#008EB3" stroke-width=".15" d="M94.8542344,90.1521248 C94.7820048,90.3339168 94.6832419,90.5282208 94.5594196,90.7343008 C94.4355974,90.9389088 94.269027,91.1354208 94.0611826,91.3172128 C93.8607085,91.4997408 93.6196974,91.6476768 93.3359381,91.7669088 C93.0521789,91.8861408 92.7050344,91.9450208 92.297453,91.9450208 C92.0903456,91.9450208 91.9127196,91.9361888 91.7638381,91.9155808 C91.6149567,91.8949728 91.4778678,91.8662688 91.3496233,91.8272608 C91.1963196,91.7808928 91.065127,91.7315808 90.9530974,91.6793248 C90.8403307,91.6278048 90.7165085,91.5623008 90.5816307,91.4842848 L90.7975826,91.1148128 C90.9103493,91.1781088 91.0179567,91.2362528 91.1218789,91.2929248 C91.2258011,91.3488608 91.3400419,91.3959648 91.4690233,91.4342368 C91.58179,91.4747168 91.7070863,91.5041568 91.8471233,91.5240288 C91.9864233,91.5446368 92.1375159,91.5534688 92.297453,91.5534688 C92.6018493,91.5534688 92.8767641,91.5107808 93.1266196,91.4231968 C93.3742641,91.3348768 93.5931641,91.2023968 93.7862678,91.0206048 C94.0567604,90.7571168 94.2867159,90.4266528 94.4695011,90.0211168 L95.0701863,88.6676128 L91.0496493,82.3358048 L91.5405159,82.3358048 L93.4376493,85.3188128 C93.7413085,85.8023648 94.0479159,86.2851808 94.3567344,86.7738848 C94.6626048,87.2589088 94.9692122,87.7409888 95.2728715,88.2157088 C95.6988789,87.2257888 96.1175159,86.2564768 96.5346789,85.3070368 L97.8185974,82.3358048 L98.2733493,82.3358048 L94.8542344,90.1521248 Z"/>
    <path fill="#008EB3" d="M114.907907,88.8454304 L114.907907,83.9532384 C114.907907,82.6365344 114.91454,81.6164384 114.932229,80.8870624 C114.443573,81.6164384 113.755181,82.6394784 112.867051,83.9569184 C111.979659,85.2750944 110.882947,86.9060704 109.579129,88.8454304 L109.217981,88.8454304 C107.907529,86.8979744 106.80787,85.2647904 105.924899,83.9466144 C105.039718,82.6284384 104.359433,81.6090784 103.87741,80.8870624 C103.886992,81.6164384 103.893625,82.6365344 103.895836,83.9532384 C103.899521,85.2669984 103.901733,86.8979744 103.901733,88.8454304 L103.446981,88.8454304 L103.446981,80.2349664 L103.962907,80.2349664 C105.305788,82.2390944 106.431981,83.9105504 107.341484,85.2530144 C108.249514,86.5954784 108.938644,87.6214624 109.411821,88.3346464 C109.882788,87.6214624 110.571918,86.5954784 111.475525,85.2530144 C112.378396,83.9105504 113.506799,82.2390944 114.860736,80.2349664 L115.362659,80.2349664 L115.362659,88.8454304 L114.907907,88.8454304 Z"/>
    <path stroke="#008EB3" stroke-width=".15" d="M114.907907,88.8454304 L114.907907,83.9532384 C114.907907,82.6365344 114.91454,81.6164384 114.932229,80.8870624 C114.443573,81.6164384 113.755181,82.6394784 112.867051,83.9569184 C111.979659,85.2750944 110.882947,86.9060704 109.579129,88.8454304 L109.217981,88.8454304 C107.907529,86.8979744 106.80787,85.2647904 105.924899,83.9466144 C105.039718,82.6284384 104.359433,81.6090784 103.87741,80.8870624 C103.886992,81.6164384 103.893625,82.6365344 103.895836,83.9532384 C103.899521,85.2669984 103.901733,86.8979744 103.901733,88.8454304 L103.446981,88.8454304 L103.446981,80.2349664 L103.962907,80.2349664 C105.305788,82.2390944 106.431981,83.9105504 107.341484,85.2530144 C108.249514,86.5954784 108.938644,87.6214624 109.411821,88.3346464 C109.882788,87.6214624 110.571918,86.5954784 111.475525,85.2530144 C112.378396,83.9105504 113.506799,82.2390944 114.860736,80.2349664 L115.362659,80.2349664 L115.362659,88.8454304 L114.907907,88.8454304 Z"/>
    <mask id="logo-insiders-b" fill="#fff">
      <use xlink:href="#logo-insiders-a"/>
    </mask>
    <polygon fill="#008EB3" points="120.151 88.846 120.584 88.846 120.584 80.022 120.151 80.022" mask="url(#logo-insiders-b)"/>
    <polygon stroke="#008EB3" stroke-width=".15" points="120.151 88.846 120.584 88.846 120.584 80.022 120.151 80.022" mask="url(#logo-insiders-b)"/>
    <path fill="#008EB3" d="M131.488366,84.456736 C131.354962,84.096832 131.161858,83.777408 130.904632,83.500672 C130.650354,83.223936 130.326058,83.000928 129.933954,82.835328 C129.541851,82.668256 129.08931,82.585088 128.578543,82.585088 C128.330162,82.585088 128.080306,82.605696 127.827503,82.646176 C127.575436,82.684448 127.321158,82.760992 127.064669,82.871392 C126.84798,82.974432 126.63424,83.09808 126.42271,83.244544 C126.210443,83.393216 126.01218,83.556608 125.830132,83.739136 L125.830132,87.44416 C126.08441,87.673056 126.318788,87.857792 126.530317,87.997632 C126.742584,88.134528 126.935688,88.244192 127.113314,88.32368 C127.296836,88.401696 127.510577,88.4672 127.75601,88.519456 C127.999232,88.570976 128.274147,88.595264 128.578543,88.595264 C129.008236,88.595264 129.426873,88.527552 129.830769,88.388448 C130.23614,88.248608 130.58918,88.015296 130.893577,87.682624 C131.125743,87.427968 131.315162,87.126944 131.463306,86.77808 C131.612188,86.43216 131.686629,86.02736 131.686629,85.568096 C131.686629,85.187584 131.618821,84.81664 131.488366,84.456736 M131.907003,86.814144 C131.767703,87.226304 131.533325,87.605344 131.206817,87.954208 C130.924532,88.255968 130.562647,88.503264 130.118951,88.696832 C129.675254,88.889664 129.16154,88.989024 128.578543,88.989024 C128.383966,88.989024 128.152536,88.973568 127.882043,88.939712 C127.60934,88.908064 127.310103,88.822688 126.981384,88.678432 C126.796388,88.609248 126.602547,88.50768 126.399862,88.377408 C126.194966,88.2464 126.006284,88.105088 125.830132,87.954208 L125.830132,91.791712 L125.397491,91.791712 L125.397491,82.335584 L125.830132,82.335584 L125.816866,83.229088 C125.953954,83.100288 126.11168,82.978848 126.291517,82.859616 C126.472091,82.740384 126.676988,82.63072 126.909154,82.526944 C127.141321,82.41728 127.392651,82.333376 127.665354,82.27744 C127.936584,82.221504 128.240243,82.194272 128.578543,82.194272 C129.672306,82.194272 130.557488,82.546816 131.228929,83.251168 C131.502369,83.536736 131.718321,83.872352 131.877521,84.26096 C132.037458,84.648096 132.117058,85.084544 132.117058,85.568096 C132.117058,85.986144 132.04704,86.40272 131.907003,86.814144" mask="url(#logo-insiders-b)"/>
    <path stroke="#008EB3" stroke-width=".15" d="M131.488366,84.456736 C131.354962,84.096832 131.161858,83.777408 130.904632,83.500672 C130.650354,83.223936 130.326058,83.000928 129.933954,82.835328 C129.541851,82.668256 129.08931,82.585088 128.578543,82.585088 C128.330162,82.585088 128.080306,82.605696 127.827503,82.646176 C127.575436,82.684448 127.321158,82.760992 127.064669,82.871392 C126.84798,82.974432 126.63424,83.09808 126.42271,83.244544 C126.210443,83.393216 126.01218,83.556608 125.830132,83.739136 L125.830132,87.44416 C126.08441,87.673056 126.318788,87.857792 126.530317,87.997632 C126.742584,88.134528 126.935688,88.244192 127.113314,88.32368 C127.296836,88.401696 127.510577,88.4672 127.75601,88.519456 C127.999232,88.570976 128.274147,88.595264 128.578543,88.595264 C129.008236,88.595264 129.426873,88.527552 129.830769,88.388448 C130.23614,88.248608 130.58918,88.015296 130.893577,87.682624 C131.125743,87.427968 131.315162,87.126944 131.463306,86.77808 C131.612188,86.43216 131.686629,86.02736 131.686629,85.568096 C131.686629,85.187584 131.618821,84.81664 131.488366,84.456736 Z M131.907003,86.814144 C131.767703,87.226304 131.533325,87.605344 131.206817,87.954208 C130.924532,88.255968 130.562647,88.503264 130.118951,88.696832 C129.675254,88.889664 129.16154,88.989024 128.578543,88.989024 C128.383966,88.989024 128.152536,88.973568 127.882043,88.939712 C127.60934,88.908064 127.310103,88.822688 126.981384,88.678432 C126.796388,88.609248 126.602547,88.50768 126.399862,88.377408 C126.194966,88.2464 126.006284,88.105088 125.830132,87.954208 L125.830132,91.791712 L125.397491,91.791712 L125.397491,82.335584 L125.830132,82.335584 L125.816866,83.229088 C125.953954,83.100288 126.11168,82.978848 126.291517,82.859616 C126.472091,82.740384 126.676988,82.63072 126.909154,82.526944 C127.141321,82.41728 127.392651,82.333376 127.665354,82.27744 C127.936584,82.221504 128.240243,82.194272 128.578543,82.194272 C129.672306,82.194272 130.557488,82.546816 131.228929,83.251168 C131.502369,83.536736 131.718321,83.872352 131.877521,84.26096 C132.037458,84.648096 132.117058,85.084544 132.117058,85.568096 C132.117058,85.986144 132.04704,86.40272 131.907003,86.814144 Z" mask="url(#logo-insiders-b)"/>
    <path fill="#008EB3" d="M140.299717,84.3331616 C140.133147,83.9600096 139.903191,83.6442656 139.610587,83.3888736 C139.317984,83.1298016 138.975261,82.9347616 138.578736,82.7993376 C138.182947,82.6661216 137.756939,82.5991456 137.299976,82.5991456 C136.835643,82.5991456 136.405213,82.6661216 136.011636,82.7993376 C135.61511,82.9347616 135.270176,83.1298016 134.976836,83.3888736 C134.68718,83.6442656 134.456487,83.9600096 134.288443,84.3331616 C134.118924,84.7041056 134.035639,85.1273056 134.035639,85.6042336 C134.035639,86.0002016 134.101236,86.3777696 134.234639,86.7376736 C134.366569,87.0975776 134.565569,87.4170016 134.833113,87.6930016 C135.100658,87.9697376 135.441169,88.1927456 135.85391,88.3598176 C136.265176,88.5254176 136.747936,88.6093216 137.299976,88.6093216 L137.313243,88.6093216 C137.856439,88.6093216 138.333302,88.5254176 138.741621,88.3598176 C139.148465,88.1927456 139.486028,87.9697376 139.755047,87.6930016 C140.022591,87.4170016 140.223065,87.0975776 140.353521,86.7376736 C140.486924,86.3777696 140.552521,86.0002016 140.552521,85.6042336 C140.552521,85.1273056 140.468499,84.7041056 140.299717,84.3331616 M140.768473,86.8569056 C140.624013,87.2639136 140.403639,87.6238176 140.101454,87.9366176 C139.802217,88.2486816 139.421906,88.5033376 138.957573,88.6969056 C138.493239,88.8897376 137.941936,88.9890976 137.299976,88.9890976 C136.675706,88.9890976 136.133247,88.8948896 135.668913,88.7101536 C135.20458,88.5232096 134.81911,88.2759136 134.51545,87.9660576 C134.211054,87.6576736 133.984047,87.2977696 133.833691,86.8863456 C133.680387,86.4741856 133.602999,86.0421536 133.602999,85.5902496 C133.602999,85.0537056 133.700287,84.5738336 133.891917,84.1535776 C134.08281,83.7355296 134.34888,83.3770976 134.684232,83.0849056 C135.020321,82.7919776 135.411687,82.5697056 135.860543,82.4188256 C136.308661,82.2701536 136.787736,82.1943456 137.299976,82.1943456 C137.812954,82.1943456 138.292765,82.2701536 138.741621,82.4188256 C139.189002,82.5697056 139.578895,82.7919776 139.910561,83.0849056 C140.243702,83.3770976 140.504613,83.7355296 140.696243,84.1535776 C140.887873,84.5738336 140.985161,85.0537056 140.985161,85.5902496 L140.985161,85.6042336 C140.985161,86.0318496 140.912195,86.4476896 140.768473,86.8569056" mask="url(#logo-insiders-b)"/>
    <path stroke="#008EB3" stroke-width=".15" d="M140.299717,84.3331616 C140.133147,83.9600096 139.903191,83.6442656 139.610587,83.3888736 C139.317984,83.1298016 138.975261,82.9347616 138.578736,82.7993376 C138.182947,82.6661216 137.756939,82.5991456 137.299976,82.5991456 C136.835643,82.5991456 136.405213,82.6661216 136.011636,82.7993376 C135.61511,82.9347616 135.270176,83.1298016 134.976836,83.3888736 C134.68718,83.6442656 134.456487,83.9600096 134.288443,84.3331616 C134.118924,84.7041056 134.035639,85.1273056 134.035639,85.6042336 C134.035639,86.0002016 134.101236,86.3777696 134.234639,86.7376736 C134.366569,87.0975776 134.565569,87.4170016 134.833113,87.6930016 C135.100658,87.9697376 135.441169,88.1927456 135.85391,88.3598176 C136.265176,88.5254176 136.747936,88.6093216 137.299976,88.6093216 L137.313243,88.6093216 C137.856439,88.6093216 138.333302,88.5254176 138.741621,88.3598176 C139.148465,88.1927456 139.486028,87.9697376 139.755047,87.6930016 C140.022591,87.4170016 140.223065,87.0975776 140.353521,86.7376736 C140.486924,86.3777696 140.552521,86.0002016 140.552521,85.6042336 C140.552521,85.1273056 140.468499,84.7041056 140.299717,84.3331616 Z M140.768473,86.8569056 C140.624013,87.2639136 140.403639,87.6238176 140.101454,87.9366176 C139.802217,88.2486816 139.421906,88.5033376 138.957573,88.6969056 C138.493239,88.8897376 137.941936,88.9890976 137.299976,88.9890976 C136.675706,88.9890976 136.133247,88.8948896 135.668913,88.7101536 C135.20458,88.5232096 134.81911,88.2759136 134.51545,87.9660576 C134.211054,87.6576736 133.984047,87.2977696 133.833691,86.8863456 C133.680387,86.4741856 133.602999,86.0421536 133.602999,85.5902496 C133.602999,85.0537056 133.700287,84.5738336 133.891917,84.1535776 C134.08281,83.7355296 134.34888,83.3770976 134.684232,83.0849056 C135.020321,82.7919776 135.411687,82.5697056 135.860543,82.4188256 C136.308661,82.2701536 136.787736,82.1943456 137.299976,82.1943456 C137.812954,82.1943456 138.292765,82.2701536 138.741621,82.4188256 C139.189002,82.5697056 139.578895,82.7919776 139.910561,83.0849056 C140.243702,83.3770976 140.504613,83.7355296 140.696243,84.1535776 C140.887873,84.5738336 140.985161,85.0537056 140.985161,85.5902496 L140.985161,85.6042336 C140.985161,86.0318496 140.912195,86.4476896 140.768473,86.8569056 Z" mask="url(#logo-insiders-b)"/>
    <polygon fill="#008EB3" points="143.303 88.846 143.735 88.846 143.735 80.022 143.303 80.022" mask="url(#logo-insiders-b)"/>
    <polygon stroke="#008EB3" stroke-width=".15" points="143.303 88.846 143.735 88.846 143.735 80.022 143.303 80.022" mask="url(#logo-insiders-b)"/>
    <polygon fill="#008EB3" points="122.78 88.846 123.213 88.846 123.213 82.336 122.78 82.336" mask="url(#logo-insiders-b)"/>
    <polygon stroke="#008EB3" stroke-width=".15" points="122.78 88.846 123.213 88.846 123.213 82.336 122.78 82.336" mask="url(#logo-insiders-b)"/>
    <polygon fill="#008EB3" points="117.548 88.846 117.98 88.846 117.98 82.336 117.548 82.336" mask="url(#logo-insiders-b)"/>
    <polygon stroke="#008EB3" stroke-width=".15" points="117.548 88.846 117.98 88.846 117.98 82.336 117.548 82.336" mask="url(#logo-insiders-b)"/>
    <polygon fill="#00BDED" points="0 73.98 1.261 73.98 1.261 25.706 0 25.706" mask="url(#logo-insiders-b)"/>
    <polygon fill="#F05A28" points="0 24.359 1.261 24.359 1.261 22.999 0 22.999" mask="url(#logo-insiders-b)"/>
    <polygon fill="#FEFEFE" points="7.147 73.98 7.147 47.319 23.418 71.018 23.418 48.381 24.68 48.381 24.68 75.04 8.408 51.342 8.408 73.98" mask="url(#logo-insiders-b)"/>
    <path fill="#FEFEFE" d="M31.2805152,69.6649024 C32.5415856,72.1511104 35.2325078,73.3213504 38.2595189,73.3213504 C42.5063263,73.3213504 45.743393,70.8719424 45.743393,67.3972864 C45.743393,64.3244864 41.6226189,62.7163264 38.2595189,61.6918144 C34.4755707,60.5583744 29.9354226,58.7301504 29.9354226,54.9625664 C29.9354226,50.8306624 33.7613819,47.9411264 38.680367,47.9411264 C42.2122485,47.9411264 45.4073041,49.3314304 46.8364189,52.2577664 L45.6593707,52.6956864 C44.3975633,50.2087424 41.7066411,49.0385024 38.680367,49.0385024 C34.4335596,49.0385024 31.196493,51.4893824 31.196493,54.9625664 C31.196493,58.0353664 35.317267,59.6442624 38.680367,60.6680384 C42.4643152,61.8014784 47.0044633,63.6304384 47.0044633,67.3972864 C47.0044633,71.5291904 43.1792411,74.4187264 38.2595189,74.4187264 C34.6856263,74.4187264 31.5325819,73.0284224 30.103467,70.1028224 L31.2805152,69.6649024 Z" mask="url(#logo-insiders-b)"/>
    <polygon fill="#00BDED" points="52.26 89.001 53.522 89.001 53.522 48.381 52.26 48.381" mask="url(#logo-insiders-b)"/>
    <path fill="#FEFEFE" d="M76.056547,61.1800736 C76.056547,55.2560096 71.7257174,49.3312096 63.0647952,49.3312096 C62.4759026,49.3312096 61.3408656,49.3680096 60.6679507,49.4048096 L60.6679507,72.9553376 C61.3828767,72.9921376 62.4759026,72.9921376 63.0647952,72.9921376 C71.7257174,72.9921376 76.056547,67.1041376 76.056547,61.1800736 M77.3176174,61.1800736 C77.3176174,67.6531936 72.5666767,74.0887776 63.0647952,74.0887776 C62.1398137,74.0887776 60.4999063,74.0527136 59.4068804,73.9798496 L59.4068804,48.3802976 C60.4999063,48.3074336 62.1398137,48.2345696 63.0647952,48.2345696 C72.5666767,48.2345696 77.3176174,54.6701536 77.3176174,61.1800736" mask="url(#logo-insiders-b)"/>
    <polygon fill="#FEFEFE" points="82.573 73.98 82.573 48.381 99.223 48.381 99.223 49.477 83.834 49.477 83.834 59.132 96.448 59.132 96.448 60.23 83.834 60.23 83.834 72.883 99.223 72.883 99.223 73.98" mask="url(#logo-insiders-b)"/>
    <path fill="#FEFEFE" d="M105.738134 49.404736L105.738134 64.178464C106.411049 64.215264 107.125975 64.252064 107.714867 64.252064 116.37579 64.252064 120.705882 60.55808 120.705882 56.828768 120.705882 53.097984 116.37579 49.367936 107.714867 49.367936 107.125975 49.367936 106.45306 49.367936 105.738134 49.404736L105.738134 49.404736zM104.476327 73.979776L104.476327 48.380224C105.569353 48.30736 106.789886 48.27056 107.714867 48.27056 117.216012 48.27056 121.96769 52.585728 121.96769 56.828768 121.96769 59.936896 119.486086 63.008224 114.567101 64.472128L122.597856 73.650048 121.588853 74.308768 113.264019 64.800384C111.66686 65.166176 109.774886 65.348704 107.714867 65.348704 107.083227 65.348704 106.45306 65.311904 105.738134 65.275104L105.738134 73.979776 104.476327 73.979776zM128.147229 69.6649024C129.4083 72.1511104 132.099222 73.3213504 135.126233 73.3213504 139.372303 73.3213504 142.60937 70.8719424 142.60937 67.3972864 142.60937 64.3244864 138.489333 62.7163264 135.126233 61.6918144 131.342285 60.5583744 126.802137 58.7301504 126.802137 54.9625664 126.802137 50.8306624 130.627359 47.9411264 135.546344 47.9411264 139.078226 47.9411264 142.273281 49.3314304 143.702396 52.2577664L142.526085 52.6956864C141.264277 50.2087424 138.573355 49.0385024 135.546344 49.0385024 131.299537 49.0385024 128.063207 51.4893824 128.063207 54.9625664 128.063207 58.0353664 132.183981 59.6442624 135.546344 60.6680384 139.331029 61.8014784 143.871177 63.6304384 143.871177 67.3972864 143.871177 71.5291904 140.045955 74.4187264 135.126233 74.4187264 131.55234 74.4187264 128.399296 73.0284224 126.969444 70.1028224L128.147229 69.6649024z" mask="url(#logo-insiders-b)"/>
    <polygon fill="#F05A28" points="52.26 47.32 53.521 47.32 53.521 45.959 52.26 45.959" mask="url(#logo-insiders-b)"/>
    <polygon fill="#000" points="159.892 27.509 159.574 27.372 161.382 28.388" mask="url(#logo-insiders-b)"/>
    <polygon fill="#004A47" points="149.963 46.099 150.369 46.595 150.866 46.191 150.461 45.694" mask="url(#logo-insiders-b)"/>
    <polygon fill="#005563" points="153.049 48.692 152.507 48.029 151.843 48.57 152.385 49.233" mask="url(#logo-insiders-b)"/>
    <polygon fill="#00537E" points="147.738 46.97 146.935 47.367 147.332 48.167 148.135 47.771" mask="url(#logo-insiders-b)"/>
    <polygon fill="#00537E" points="147.289 44.19 146.909 44.999 147.72 45.379 148.099 44.57" mask="url(#logo-insiders-b)"/>
    <polygon fill="#0D71B9" points="150.164 42.212 148.854 42.527 149.167 43.837 150.477 43.522" mask="url(#logo-insiders-b)"/>
    <polygon fill="#2873BA" points="152.521 44.665 153.443 43.485 152.26 42.563 151.338 43.745" mask="url(#logo-insiders-b)"/>
    <polygon fill="#005CA7" points="154.176 46.644 154.163 45.563 153.08 45.574 153.092 46.657" mask="url(#logo-insiders-b)"/>
    <polygon fill="#002433" points="154.176 51.087 154.446 51.419 154.778 51.148 154.508 50.817" mask="url(#logo-insiders-b)"/>
    <polygon fill="#005539" points="144.355 45.841 143.613 45.848 143.621 46.591 144.365 46.582" mask="url(#logo-insiders-b)"/>
    <polygon fill="#0B6A56" points="145.189 43.209 144.378 42.83 144 43.638 144.809 44.019" mask="url(#logo-insiders-b)"/>
    <polygon fill="#005331" points="146.901 41.228 146.408 40.623 145.802 41.117 146.296 41.721" mask="url(#logo-insiders-b)"/>
    <polygon fill="#29783B" points="149.561 40.3 149.311 39.259 148.27 39.508 148.52 40.548" mask="url(#logo-insiders-b)"/>
    <polygon fill="#29783B" points="152.185 40.508 152.414 39.463 151.366 39.237 151.139 40.282" mask="url(#logo-insiders-b)"/>
    <polygon fill="#1F7ABF" points="154.494 42.116 155.401 40.955 154.238 40.05 153.331 41.211" mask="url(#logo-insiders-b)"/>
    <polygon fill="#3068B2" points="157.195 43.641 156.52 42.277 155.153 42.951 155.829 44.316" mask="url(#logo-insiders-b)"/>
    <polygon fill="#00A8B9" points="157.624 46.839 157.607 45.291 156.058 45.308 156.074 46.857" mask="url(#logo-insiders-b)"/>
    <polygon fill="#00A8B9" points="155.862 47.837 155.206 49.237 156.609 49.894 157.266 48.493" mask="url(#logo-insiders-b)"/>
    <polygon fill="#003C4C" points="156.047 53.557 156.462 54.065 156.969 53.652 156.554 53.143" mask="url(#logo-insiders-b)"/>
    <polygon fill="#002C40" points="154.174 54.74 153.708 54.927 153.897 55.395 154.365 55.205" mask="url(#logo-insiders-b)"/>
    <polygon fill="#35604A" points="141.366 45.476 141.528 44.316 140.368 44.155 140.206 45.314" mask="url(#logo-insiders-b)"/>
    <polygon fill="#2D5E2E" points="141.888 42.624 142.244 41.861 141.479 41.504 141.123 42.266" mask="url(#logo-insiders-b)"/>
    <polygon fill="#2D5E2E" points="143.872 39.646 143.247 39.08 142.68 39.704 143.306 40.27" mask="url(#logo-insiders-b)"/>
    <polygon fill="#1875A7" points="145.262 38.8 146.444 38.101 145.743 36.922 144.562 37.62" mask="url(#logo-insiders-b)"/>
    <polygon fill="#326EB6" points="148.785 35.775 147.155 36.166 147.547 37.791 149.176 37.401" mask="url(#logo-insiders-b)"/>
    <polygon fill="#4EC6E1" points="149.832 37.59 152.083 37.733 152.227 35.485 149.975 35.342" mask="url(#logo-insiders-b)"/>
    <polygon fill="#5290CC" points="155.243 36.514 153.206 35.741 152.432 37.777 154.47 38.549" mask="url(#logo-insiders-b)"/>
    <polygon fill="#16A74A" points="156.451 39.436 157.227 38.444 156.232 37.67 155.458 38.661" mask="url(#logo-insiders-b)"/>
    <polygon fill="#3D81C3" points="159.566 40.855 158.54 39.389 157.074 40.413 158.099 41.878" mask="url(#logo-insiders-b)"/>
    <polygon fill="#005652" points="159.119 42.961 159.35 43.681 160.07 43.449 159.84 42.731" mask="url(#logo-insiders-b)"/>
    <polygon fill="#0CA2AC" points="160.857 46.823 160.839 45.237 159.253 45.256 159.27 46.84" mask="url(#logo-insiders-b)"/>
    <polygon fill="#004461" points="159.412 48.427 159.204 49.126 159.903 49.334 160.112 48.636" mask="url(#logo-insiders-b)"/>
    <polygon fill="#0E719B" points="159.252 51.317 158.277 50.668 157.628 51.643 158.602 52.291" mask="url(#logo-insiders-b)"/>
    <polygon fill="#09A48E" points="159.479 56.187 158.634 55.154 157.6 55.996 158.444 57.03" mask="url(#logo-insiders-b)"/>
    <polygon fill="#535E2C" points="138.276 44.085 138.512 43.002 137.427 42.769 137.193 43.85" mask="url(#logo-insiders-b)"/>
    <polygon fill="#415224" points="138.955 41.205 139.275 40.521 138.591 40.201 138.27 40.885" mask="url(#logo-insiders-b)"/>
    <polygon fill="#545B25" points="141.011 38.162 140.187 37.52 139.543 38.344 140.368 38.986" mask="url(#logo-insiders-b)"/>
    <polygon fill="#43664A" points="143.212 36.292 142.383 35.278 141.368 36.106 142.196 37.119" mask="url(#logo-insiders-b)"/>
    <polygon fill="#707942" points="144.38 35.62 145.69 34.973 145.04 33.664 143.731 34.312" mask="url(#logo-insiders-b)"/>
    <polygon fill="#9D9F33" points="148.016 32.685 146.437 33.062 146.816 34.641 148.396 34.263" mask="url(#logo-insiders-b)"/>
    <polygon fill="#9D9F33" points="151.077 32.489 149.451 32.507 149.469 34.13 151.094 34.112" mask="url(#logo-insiders-b)"/>
    <polygon fill="#9CDAEB" points="154.53 34.159 154.897 32.468 152.003 31.842 151.376 34.732 154.269 35.358 154.286 35.282 154.054 35.174" mask="url(#logo-insiders-b)"/>
    <polygon fill="#79CFE7" points="157.673 33.865 155.208 32.712 154.53 34.159 154.055 35.174 154.286 35.282 156.52 36.326" mask="url(#logo-insiders-b)"/>
    <polygon fill="#24A6DE" points="158.474 37.285 159.582 35.865 158.161 34.759 157.053 36.178" mask="url(#logo-insiders-b)"/>
    <polygon fill="#22C3F3" points="160.22 39.563 161.909 38.187 160.532 36.499 158.842 37.876" mask="url(#logo-insiders-b)"/>
    <polygon fill="#22C3F3" points="163.395 40.941 162.427 38.99 160.473 39.956 161.441 41.906" mask="url(#logo-insiders-b)"/>
    <polygon fill="#005652" points="162.458 42.872 162.635 43.605 163.37 43.429 163.193 42.695" mask="url(#logo-insiders-b)"/>
    <polygon fill="#29C4F3" points="164.364 44.883 162.147 44.909 162.172 47.122 164.389 47.097" mask="url(#logo-insiders-b)"/>
    <polygon fill="#13909D" points="163.523 49.708 163.824 48.318 162.433 48.019 162.131 49.407" mask="url(#logo-insiders-b)"/>
    <polygon fill="#13909D" points="162.4 52.531 163.003 51.244 161.714 50.641 161.11 51.929" mask="url(#logo-insiders-b)"/>
    <polygon fill="#1398A9" points="161.56 53.913 160.427 53.031 159.544 54.162 160.678 55.044" mask="url(#logo-insiders-b)"/>
    <polygon fill="#00605F" points="161.192 58.641 160.633 57.958 159.95 58.515 160.508 59.198" mask="url(#logo-insiders-b)"/>
    <polygon fill="#3A3213" points="134.656 41.662 134.495 42.27 135.103 42.432 135.266 41.823" mask="url(#logo-insiders-b)"/>
    <polygon fill="#3E3914" points="136.03 39.802 136.323 39.176 135.695 38.883 135.401 39.509" mask="url(#logo-insiders-b)"/>
    <polygon fill="#544717" points="137.945 36.75 137.205 36.225 136.68 36.964 137.42 37.489" mask="url(#logo-insiders-b)"/>
    <polygon fill="#544717" points="138.542 34.663 139.177 35.311 139.824 34.678 139.191 34.03" mask="url(#logo-insiders-b)"/>
    <polygon fill="#71591D" points="142.203 33.005 141.568 32.066 140.628 32.7 141.264 33.638" mask="url(#logo-insiders-b)"/>
    <polygon fill="#897024" points="143.576 32.39 144.868 31.822 144.299 30.533 143.007 31.101" mask="url(#logo-insiders-b)"/>
    <polygon fill="#EE8B24" points="147.393 29.359 145.482 29.817 145.941 31.725 147.851 31.268" mask="url(#logo-insiders-b)"/>
    <polygon fill="#FABD9E" points="151.022 29.734 150.954 28.519 147.909 28.69 148.08 31.73 151.125 31.56 151.121 31.497 150.807 31.457" mask="url(#logo-insiders-b)"/>
    <polygon fill="#F9B28F" points="153.984 28.987 151.159 28.635 151.022 29.734 150.806 31.457 151.12 31.497 153.364 31.775 153.817 30.327" mask="url(#logo-insiders-b)"/>
    <polygon fill="#F9B28F" points="156.643 31.211 157.066 29.862 154.239 28.979 153.818 30.327 153.364 31.775 153.356 31.801 156.182 32.683 156.191 32.658 155.951 32.532" mask="url(#logo-insiders-b)"/>
    <polygon fill="#88D4EE" points="159.068 32.716 159.794 31.334 157.272 30.013 156.643 31.211 155.951 32.532 156.191 32.658 158.285 33.754 158.269 33.742" mask="url(#logo-insiders-b)"/>
    <polygon fill="#8ED5E9" points="159.068 32.716 158.269 33.742 158.285 33.754 160.545 35.513 162.319 33.24 160.043 31.468" mask="url(#logo-insiders-b)"/>
    <polygon fill="#4095D1" points="162.471 34.15 161.09 35.382 162.323 36.761 163.705 35.53" mask="url(#logo-insiders-b)"/>
    <polygon fill="#00B5B6" points="165.191 38.022 164.375 36.69 163.042 37.506 163.858 38.836" mask="url(#logo-insiders-b)"/>
    <polygon fill="#2578BD" points="164.433 39.918 164.971 41.302 166.356 40.765 165.819 39.381" mask="url(#logo-insiders-b)"/>
    <polygon fill="#4BC6E8" points="165.277 44.454 167.542 44.018 167.106 41.757 164.841 42.195" mask="url(#logo-insiders-b)"/>
    <polygon fill="#09BDEF" points="165.527 46.941 167.455 46.919 167.434 44.995 165.507 45.017" mask="url(#logo-insiders-b)"/>
    <polygon fill="#003844" points="165.906 49.083 166.503 49.184 166.604 48.589 166.007 48.487" mask="url(#logo-insiders-b)"/>
    <polygon fill="#004360" points="165.304 51.157 165.06 51.832 165.734 52.076 165.979 51.401" mask="url(#logo-insiders-b)"/>
    <polygon fill="#004360" points="164.428 54.712 164.789 54.092 164.168 53.731 163.807 54.352" mask="url(#logo-insiders-b)"/>
    <polygon fill="#003446" points="162.599 56.177 162.24 56.598 162.661 56.958 163.022 56.536" mask="url(#logo-insiders-b)"/>
    <polygon fill="#0B2E4D" points="162.982 61.103 162.641 60.685 162.221 61.027 162.563 61.445" mask="url(#logo-insiders-b)"/>
    <polygon fill="#004459" points="159.747 62.587 160.113 63.203 160.731 62.837 160.364 62.22" mask="url(#logo-insiders-b)"/>
    <polygon fill="#5D551F" points="132.243 41.252 132.508 40.359 131.613 40.095 131.349 40.987" mask="url(#logo-insiders-b)"/>
    <polygon fill="#4B3911" points="133.143 38.51 133.48 37.791 132.761 37.455 132.424 38.173" mask="url(#logo-insiders-b)"/>
    <polygon fill="#553C10" points="134.967 35.355 134.244 34.873 133.762 35.596 134.486 36.077" mask="url(#logo-insiders-b)"/>
    <polygon fill="#AB7A26" points="137.187 33.155 136.086 32.157 135.087 33.256 136.188 34.254" mask="url(#logo-insiders-b)"/>
    <polygon fill="#6D4616" points="138.972 31.3 138.303 30.481 137.483 31.149 138.152 31.968" mask="url(#logo-insiders-b)"/>
    <polygon fill="#7A4F1B" points="141.393 29.783 140.795 28.776 139.788 29.372 140.385 30.379" mask="url(#logo-insiders-b)"/>
    <polygon fill="#F58A2F" points="144.584 28.896 143.771 26.891 141.762 27.703 142.575 29.71" mask="url(#logo-insiders-b)"/>
    <polygon fill="#F58A2F" points="146.718 26.118 144.611 26.622 145.116 28.727 147.224 28.221" mask="url(#logo-insiders-b)"/>
    <polygon fill="#F05A28" points="147.112 25.575 147.373 28.609 149.947 28.388 150.143 25.315" mask="url(#logo-insiders-b)"/>
    <polygon fill="#DFEBCF" points="153.266 25.432 150.149 25.233 150.143 25.314 149.947 28.388 149.944 28.422 152.822 28.606 152.587 28.556" mask="url(#logo-insiders-b)"/>
    <polygon fill="#DEDFDE" points="156.337 26.092 156.404 26.117 156.408 26.099 153.268 25.42 153.266 25.432 152.587 28.555 152.822 28.606 155.536 29.194 155.205 29.068" mask="url(#logo-insiders-b)"/>
    <polygon fill="#E8E3CD" points="159.244 27.23 158.522 26.92 156.403 26.117 156.337 26.092 155.205 29.068 155.536 29.194 157.934 30.103 157.7 29.972" mask="url(#logo-insiders-b)"/>
    <polygon fill="#E8E3CD" points="159.574 27.372 159.244 27.23 157.7 29.972 157.934 30.103 160.479 31.533 162.034 28.772 161.382 28.388" mask="url(#logo-insiders-b)"/>
    <polygon fill="#74BF43" points="160.855 31.135 162.445 32.373 163.683 30.785 162.094 29.547" mask="url(#logo-insiders-b)"/>
    <polygon fill="#40ABE1" points="164.443 31.391 162.898 32.855 164.365 34.397 165.908 32.933" mask="url(#logo-insiders-b)"/>
    <polygon fill="#377CBF" points="165.058 34.917 166.018 36.289 167.392 35.33 166.432 33.959" mask="url(#logo-insiders-b)"/>
    <polygon fill="#0071B8" points="166.832 37.31 167.402 38.46 168.555 37.891 167.983 36.74" mask="url(#logo-insiders-b)"/>
    <polygon fill="#14929E" points="167.904 39.82 168.327 41.137 169.646 40.714 169.224 39.396" mask="url(#logo-insiders-b)"/>
    <polygon fill="#128796" points="169.964 42.351 168.732 42.55 168.932 43.781 170.164 43.58" mask="url(#logo-insiders-b)"/>
    <polygon fill="#128796" points="169.064 45.317 169.078 46.562 170.325 46.548 170.311 45.303" mask="url(#logo-insiders-b)"/>
    <polygon fill="#1EC3F3" points="168.317 49.706 170.413 49.997 170.706 47.903 168.609 47.611" mask="url(#logo-insiders-b)"/>
    <polygon fill="#00B1DA" points="170.029 51.006 168.289 50.491 167.772 52.227 169.513 52.742" mask="url(#logo-insiders-b)"/>
    <polygon fill="#43B874" points="169.034 53.888 167.459 53.154 166.721 54.725 168.296 55.461" mask="url(#logo-insiders-b)"/>
    <polygon fill="#43B874" points="167.669 56.573 166.223 55.611 165.26 57.056 166.706 58.018" mask="url(#logo-insiders-b)"/>
    <polygon fill="#087271" points="165.412 59.05 164.659 58.364 163.972 59.12 164.728 59.804" mask="url(#logo-insiders-b)"/>
    <polygon fill="#3F3011" points="128.777 38.891 128.577 39.514 129.202 39.713 129.401 39.091" mask="url(#logo-insiders-b)"/>
    <polygon fill="#49310F" points="129.548 36.801 130.22 37.116 130.536 36.443 129.862 36.13" mask="url(#logo-insiders-b)"/>
    <polygon fill="#55350F" points="132.011 33.969 131.297 33.517 130.845 34.23 131.558 34.681" mask="url(#logo-insiders-b)"/>
    <polygon fill="#55350F" points="133.181 32.367 133.722 31.719 133.072 31.179 132.533 31.827" mask="url(#logo-insiders-b)"/>
    <polygon fill="#965D22" points="134.192 29.649 135.074 30.6 136.026 29.717 135.142 28.768" mask="url(#logo-insiders-b)"/>
    <polygon fill="#88581E" points="137.482 27.03 136.508 27.725 137.203 28.699 138.176 28.004" mask="url(#logo-insiders-b)"/>
    <polygon fill="#995622" points="140.668 26.61 140.056 25.468 138.912 26.08 139.525 27.222" mask="url(#logo-insiders-b)"/>
    <polygon fill="#F4832E" points="141.072 24.549 141.811 26.491 143.755 25.751 143.016 23.812" mask="url(#logo-insiders-b)"/>
    <polygon fill="#F79926" points="146.535 25.138 146.006 22.936 143.8 23.464 144.33 25.667" mask="url(#logo-insiders-b)"/>
    <polygon fill="#E49825" points="149.166 24.743 148.942 22.653 146.849 22.879 147.075 24.968" mask="url(#logo-insiders-b)"/>
    <polygon fill="#E49825" points="151.917 24.759 151.962 22.659 149.858 22.614 149.814 24.715" mask="url(#logo-insiders-b)"/>
    <polygon fill="#FBD2C0" points="155.297 24.091 155.516 22.636 152.462 22.178 152.004 25.227 155.056 25.685 155.081 25.523 154.904 25.471" mask="url(#logo-insiders-b)"/>
    <polygon fill="#F58A2F" points="158.251 23.611 155.645 22.869 155.297 24.091 154.904 25.471 155.081 25.522 157.27 26.144 158.037 24.361" mask="url(#logo-insiders-b)"/>
    <polygon fill="#E2E3D6" points="161.403 24.664 161.348 24.641 161.399 24.671" mask="url(#logo-insiders-b)"/>
    <polygon fill="#E2E3D6" points="158.037 24.361 157.27 26.144 157.183 26.346 158.523 26.921 159.244 27.23 159.574 27.372 159.892 27.509 159.663 27.373 161.295 24.617 158.456 23.401 158.45 23.398" mask="url(#logo-insiders-b)"/>
    <polygon fill="#DADFDF" points="159.892 27.509 161.382 28.388 162.033 28.772 162.428 29.006 162.466 28.942 162.14 28.689 163.984 26.327 164.004 26.344 164.063 26.244 161.4 24.671 161.348 24.641 161.297 24.61 161.294 24.617 159.662 27.373" mask="url(#logo-insiders-b)"/>
    <polygon fill="#B4DFE0" points="162.14 28.689 162.466 28.942 164.505 30.531 166.349 28.168 164.004 26.343 163.984 26.327" mask="url(#logo-insiders-b)"/>
    <polygon fill="#2197D4" points="165.197 30.335 166.394 31.542 167.603 30.346 166.407 29.139" mask="url(#logo-insiders-b)"/>
    <polygon fill="#3E7DC0" points="166.976 32.335 168.116 33.826 169.608 32.688 168.469 31.197" mask="url(#logo-insiders-b)"/>
    <polygon fill="#005159" points="169.358 34.765 169.749 35.439 170.425 35.048 170.035 34.374" mask="url(#logo-insiders-b)"/>
    <polygon fill="#005159" points="170.66 37.277 170.961 37.996 171.682 37.695 171.382 36.976" mask="url(#logo-insiders-b)"/>
    <polygon fill="#4289C8" points="170.987 39.569 171.47 41.328 173.233 40.846 172.749 39.086" mask="url(#logo-insiders-b)"/>
    <polygon fill="#31C1DC" points="171.582 42.191 171.854 44.134 173.801 43.862 173.529 41.918" mask="url(#logo-insiders-b)"/>
    <polygon fill="#0F7B87" points="173.475 45.318 172.328 45.331 172.341 46.476 173.488 46.464" mask="url(#logo-insiders-b)"/>
    <polygon fill="#37C4ED" points="173.986 47.801 171.785 47.542 171.524 49.742 173.727 50.001" mask="url(#logo-insiders-b)"/>
    <polygon fill="#005CA5" points="172.611 52.229 172.862 51.228 171.859 50.977 171.609 51.978" mask="url(#logo-insiders-b)"/>
    <polygon fill="#003753" points="171.758 54.17 171.182 53.945 170.957 54.519 171.532 54.744" mask="url(#logo-insiders-b)"/>
    <polygon fill="#003B54" points="170.006 56.507 169.691 57.08 170.264 57.394 170.579 56.822" mask="url(#logo-insiders-b)"/>
    <polygon fill="#003B54" points="168.661 59.839 169.048 59.309 168.518 58.923 168.131 59.453" mask="url(#logo-insiders-b)"/>
    <polygon fill="#128572" points="167.627 61.568 166.721 60.712 165.863 61.617 166.768 62.473" mask="url(#logo-insiders-b)"/>
    <polygon fill="#00233B" points="166.983 66.07 166.696 65.719 166.344 66.006 166.63 66.357" mask="url(#logo-insiders-b)"/>
    <polygon fill="#2D2812" points="125.121 36.831 124.607 36.779 124.555 37.292 125.069 37.345" mask="url(#logo-insiders-b)"/>
    <polygon fill="#422A0F" points="128.965 32.615 128.386 32.26 128.03 32.839 128.61 33.194" mask="url(#logo-insiders-b)"/>
    <polygon fill="#4F310F" points="130.209 30.926 130.705 30.291 130.069 29.796 129.573 30.431" mask="url(#logo-insiders-b)"/>
    <polygon fill="#53270C" points="132.043 28.718 132.562 28.187 132.032 27.668 131.511 28.198" mask="url(#logo-insiders-b)"/>
    <polygon fill="#9F5423" points="135.079 26.343 134.259 25.339 133.251 26.159 134.072 27.163" mask="url(#logo-insiders-b)"/>
    <polygon fill="#CD5027" points="137.552 24.787 136.727 23.507 135.444 24.332 136.269 25.613" mask="url(#logo-insiders-b)"/>
    <polygon fill="#F48235" points="139.499 21.681 137.546 22.647 138.512 24.598 140.466 23.632" mask="url(#logo-insiders-b)"/>
    <polygon fill="#F48235" points="142.31 20.614 140.261 21.355 141.003 23.403 143.053 22.661" mask="url(#logo-insiders-b)"/>
    <polygon fill="#F16A21" points="145.519 21.855 145.093 20.081 143.317 20.506 143.743 22.281" mask="url(#logo-insiders-b)"/>
    <polygon fill="#FAAE2C" points="146.203 22.015 148.605 21.718 148.307 19.32 145.906 19.617" mask="url(#logo-insiders-b)"/>
    <polygon fill="#EDB428" points="148.896 19.268 148.922 21.708 151.367 21.681 151.34 19.24" mask="url(#logo-insiders-b)"/>
    <polygon fill="#F68C1E" points="154.318 21.768 154.564 19.339 151.745 19.053 151.457 21.869 154.279 22.156 154.285 22.099 154.248 22.09" mask="url(#logo-insiders-b)"/>
    <polygon fill="#F58A2F" points="157.47 20.019 154.821 19.447 154.318 21.768 154.248 22.091 154.285 22.099 156.723 22.626 157.228 21.133" mask="url(#logo-insiders-b)"/>
    <polygon fill="#FBD2C0" points="159.762 23.353 160.61 20.846 157.661 19.852 157.228 21.133 156.723 22.626 156.665 22.796 158.45 23.398 158.457 23.4 159.614 23.79 159.719 23.482 159.705 23.476" mask="url(#logo-insiders-b)"/>
    <polygon fill="#F58A2F" points="162.922 22.312 160.73 21.288 159.762 23.353 159.705 23.476 159.719 23.482 161.895 24.5" mask="url(#logo-insiders-b)"/>
    <polygon fill="#F68C1E" points="165.4 24.637 165.94 23.758 163.35 22.174 161.763 24.759 164.352 26.343 164.393 26.278 164.222 26.145" mask="url(#logo-insiders-b)"/>
    <polygon fill="#BCA2CD" points="165.4 24.637 164.222 26.145 164.393 26.278 166.469 27.894 168.219 25.651 165.973 23.902" mask="url(#logo-insiders-b)"/>
    <polygon fill="#227540" points="168.383 27.001 167.599 27.801 168.4 28.585 169.185 27.784" mask="url(#logo-insiders-b)"/>
    <polygon fill="#3168B2" points="169.184 29.802 170.219 31.07 171.489 30.036 170.453 28.768" mask="url(#logo-insiders-b)"/>
    <polygon fill="#3168B2" points="170.898 32.002 171.784 33.377 173.162 32.493 172.276 31.118" mask="url(#logo-insiders-b)"/>
    <polygon fill="#1B62AE" points="172.625 34.472 173.173 35.577 174.28 35.031 173.732 33.926" mask="url(#logo-insiders-b)"/>
    <polygon fill="#3475BB" points="173.553 36.917 174.102 38.431 175.619 37.882 175.069 36.367" mask="url(#logo-insiders-b)"/>
    <polygon fill="#00559F" points="174.866 39.822 175.078 40.703 175.961 40.491 175.749 39.61" mask="url(#logo-insiders-b)"/>
    <polygon fill="#00A8D5" points="174.958 42.233 175.172 43.958 176.897 43.744 176.684 42.021" mask="url(#logo-insiders-b)"/>
    <polygon fill="#0E416A" points="176.471 45.505 175.765 45.513 175.773 46.218 176.477 46.21" mask="url(#logo-insiders-b)"/>
    <polygon fill="#37C4ED" points="175.001 47.525 174.776 49.727 176.983 49.951 177.206 47.748" mask="url(#logo-insiders-b)"/>
    <polygon fill="#004C56" points="175.99 51.292 175.251 51.132 175.091 51.87 175.829 52.03" mask="url(#logo-insiders-b)"/>
    <polygon fill="#47BA86" points="175.35 55.521 175.938 53.78 174.196 53.191 173.607 54.933" mask="url(#logo-insiders-b)"/>
    <polygon fill="#20B46E" points="172.719 57.382 174.054 58.006 174.679 56.674 173.344 56.049" mask="url(#logo-insiders-b)"/>
    <polygon fill="#004554" points="172.213 59.069 171.837 59.681 172.451 60.055 172.826 59.445" mask="url(#logo-insiders-b)"/>
    <polygon fill="#004554" points="170.186 61.991 170.752 62.432 171.195 61.866 170.628 61.425" mask="url(#logo-insiders-b)"/>
    <polygon fill="#00324B" points="169.184 64.092 168.788 63.705 168.4 64.101 168.797 64.487" mask="url(#logo-insiders-b)"/>
    <polygon fill="#643C12" points="121.394 35.168 121.273 36.041 122.145 36.163 122.269 35.291" mask="url(#logo-insiders-b)"/>
    <polygon fill="#4B230D" points="124.057 33.449 123.768 34.065 124.385 34.353 124.673 33.738" mask="url(#logo-insiders-b)"/>
    <polygon fill="#60220C" points="125.434 30.814 125.027 31.495 125.709 31.901 126.116 31.221" mask="url(#logo-insiders-b)"/>
    <polygon fill="#762915" points="127.266 29.603 127.812 28.865 127.074 28.318 126.526 29.057" mask="url(#logo-insiders-b)"/>
    <polygon fill="#762915" points="129.648 26.703 128.966 26.087 128.348 26.767 129.03 27.384" mask="url(#logo-insiders-b)"/>
    <polygon fill="#451E0B" points="133.209 23.313 133.706 22.948 133.34 22.452 132.842 22.817" mask="url(#logo-insiders-b)"/>
    <polygon fill="#B23124" points="135.89 20.466 134.85 21.082 135.467 22.121 136.507 21.506" mask="url(#logo-insiders-b)"/>
    <polygon fill="#C93F27" points="138.567 19.033 137.309 19.616 137.892 20.872 139.15 20.289" mask="url(#logo-insiders-b)"/>
    <polygon fill="#85341A" points="141.576 19.196 141.227 18.198 140.228 18.545 140.576 19.543" mask="url(#logo-insiders-b)"/>
    <polygon fill="#DF4225" points="144.223 17.158 142.765 17.507 143.114 18.963 144.573 18.614" mask="url(#logo-insiders-b)"/>
    <polygon fill="#F2AC27" points="147.857 18.557 147.532 16.176 145.147 16.501 145.474 18.882" mask="url(#logo-insiders-b)"/>
    <polygon fill="#F2AC27" points="150.621 18.44 150.534 16.038 148.129 16.125 148.215 18.526" mask="url(#logo-insiders-b)"/>
    <polygon fill="#F05A28" points="153.71 16.047 150.98 15.873 150.806 18.598 153.475 18.768 153.573 18.176" mask="url(#logo-insiders-b)"/>
    <polygon fill="#F05A28" points="153.934 15.993 153.573 18.176 153.475 18.768 153.464 18.836 156.241 19.294 156.171 19.274 156.544 17.897 156.781 16.461" mask="url(#logo-insiders-b)"/>
    <polygon fill="#F05A28" points="156.241 19.293 158.958 20.025 159.709 17.242 156.923 16.492 156.544 17.897 156.171 19.275" mask="url(#logo-insiders-b)"/>
    <polygon fill="#F8A23B" points="159.978 17.58 159.115 19.849 161.389 20.712 162.252 18.441" mask="url(#logo-insiders-b)"/>
    <polygon fill="#F89C2A" points="162.861 18.916 161.939 20.764 163.788 21.685 164.711 19.838" mask="url(#logo-insiders-b)"/>
    <polygon fill="#EADFC0" points="165.348 19.561 163.682 22.2 166.326 23.865 167.992 21.224" mask="url(#logo-insiders-b)"/>
    <polygon fill="#565F28" points="168.109 22.661 167.489 23.455 168.284 24.074 168.904 23.28" mask="url(#logo-insiders-b)"/>
    <polygon fill="#445CA9" points="170.345 23.781 168.91 25.283 170.414 26.716 171.849 25.214" mask="url(#logo-insiders-b)"/>
    <polygon fill="#2861AD" points="172.444 26.291 171.315 27.257 172.284 28.385 173.411 27.418" mask="url(#logo-insiders-b)"/>
    <polygon fill="#004C26" points="173.682 29.533 174.05 30.06 174.577 29.692 174.209 29.166" mask="url(#logo-insiders-b)"/>
    <polygon fill="#185DAB" points="174.897 31.838 175.444 32.815 176.423 32.268 175.876 31.292" mask="url(#logo-insiders-b)"/>
    <polygon fill="#004656" points="176.754 35.106 177.413 34.819 177.126 34.162 176.468 34.448" mask="url(#logo-insiders-b)"/>
    <polygon fill="#1E56A6" points="177.259 36.97 177.597 38.024 178.654 37.687 178.315 36.632" mask="url(#logo-insiders-b)"/>
    <polygon fill="#066879" points="178.063 39.699 178.286 40.744 179.334 40.522 179.11 39.475" mask="url(#logo-insiders-b)"/>
    <polygon fill="#00A8D5" points="178.199 42.186 178.391 43.912 180.12 43.719 179.928 41.994" mask="url(#logo-insiders-b)"/>
    <polygon fill="#183C67" points="178.998 45.497 179.004 46.163 179.672 46.156 179.665 45.489" mask="url(#logo-insiders-b)"/>
    <polygon fill="#219DD8" points="178.272 49.496 180.017 49.651 180.172 47.909 178.428 47.755" mask="url(#logo-insiders-b)"/>
    <polygon fill="#219DD8" points="178.128 50.532 177.801 52.25 179.522 52.578 179.849 50.859" mask="url(#logo-insiders-b)"/>
    <polygon fill="#004360" points="177.698 54.595 178.387 54.798 178.59 54.111 177.901 53.906" mask="url(#logo-insiders-b)"/>
    <polygon fill="#00675F" points="176.937 56.47 176.587 57.319 177.44 57.668 177.787 56.817" mask="url(#logo-insiders-b)"/>
    <polygon fill="#129974" points="175.096 59.942 176.232 60.544 176.834 59.41 175.7 58.81" mask="url(#logo-insiders-b)"/>
    <polygon fill="#5A300F" points="118.394 33.794 118.256 34.613 119.075 34.753 119.213 33.934" mask="url(#logo-insiders-b)"/>
    <polygon fill="#4C1A0A" points="124.285 28.008 124.649 27.496 124.136 27.132 123.771 27.645" mask="url(#logo-insiders-b)"/>
    <polygon fill="#661E0E" points="126.543 25.255 125.939 24.74 125.423 25.343 126.027 25.858" mask="url(#logo-insiders-b)"/>
    <polygon fill="#771D14" points="130.714 21.34 130.165 20.668 129.492 21.216 130.041 21.888" mask="url(#logo-insiders-b)"/>
    <polygon fill="#7A2115" points="131.787 19.438 132.294 20.189 133.047 19.682 132.54 18.931" mask="url(#logo-insiders-b)"/>
    <polygon fill="#4B200C" points="135.329 18.186 135.007 17.603 134.423 17.925 134.745 18.509" mask="url(#logo-insiders-b)"/>
    <polygon fill="#4B200C" points="137.631 16.338 137.02 16.607 137.289 17.218 137.9 16.948" mask="url(#logo-insiders-b)"/>
    <polygon fill="#B22924" points="140.516 14.995 139.406 15.369 139.78 16.478 140.89 16.104" mask="url(#logo-insiders-b)"/>
    <polygon fill="#ED3823" points="143.8 15.479 143.459 14.06 142.037 14.4 142.379 15.82" mask="url(#logo-insiders-b)"/>
    <polygon fill="#EF5126" points="146.708 15.106 146.462 13.438 144.792 13.683 145.038 15.351" mask="url(#logo-insiders-b)"/>
    <polygon fill="#93341E" points="149.204 14.627 149.142 13.521 148.035 13.583 148.096 14.688" mask="url(#logo-insiders-b)"/>
    <polygon fill="#B65726" points="152.214 14.834 152.264 13.362 150.79 13.313 150.741 14.784" mask="url(#logo-insiders-b)"/>
    <polygon fill="#FCB92E" points="153.304 12.924 152.999 15.371 155.45 15.676 155.754 13.228" mask="url(#logo-insiders-b)"/>
    <polygon fill="#784919" points="156.785 14.109 156.546 15.216 157.654 15.456 157.894 14.349" mask="url(#logo-insiders-b)"/>
    <polygon fill="#FED335" points="158.326 16.397 160.887 17.197 161.689 14.639 159.127 13.839" mask="url(#logo-insiders-b)"/>
    <polygon fill="#F58C4B" points="162.084 14.971 161.187 17.133 163.352 18.029 164.249 15.867" mask="url(#logo-insiders-b)"/>
    <polygon fill="#F27A6E" points="163.706 18.227 165.837 19.343 166.955 17.214 164.823 16.098" mask="url(#logo-insiders-b)"/>
    <polygon fill="#F05A28" points="167.461 17.509 166.158 19.529 168.181 20.831 169.485 18.811" mask="url(#logo-insiders-b)"/>
    <polygon fill="#72551B" points="170.081 20.095 169.43 20.928 170.265 21.579 170.916 20.745" mask="url(#logo-insiders-b)"/>
    <polygon fill="#355628" points="171.813 22.725 172.383 23.258 172.917 22.689 172.347 22.156" mask="url(#logo-insiders-b)"/>
    <polygon fill="#00518A" points="173.695 24.728 174.342 25.45 175.065 24.804 174.419 24.082" mask="url(#logo-insiders-b)"/>
    <polygon fill="#1E50A2" points="176.962 27.11 176.314 26.24 175.444 26.886 176.091 27.755" mask="url(#logo-insiders-b)"/>
    <polygon fill="#005E89" points="182.932 43.36 182.832 42.372 181.842 42.471 181.941 43.461" mask="url(#logo-insiders-b)"/>
    <polygon fill="#001D36" points="182.361 45.982 182.739 45.977 182.736 45.6 182.357 45.605" mask="url(#logo-insiders-b)"/>
    <polygon fill="#2686C7" points="181.728 47.823 181.604 49.392 183.174 49.514 183.298 47.946" mask="url(#logo-insiders-b)"/>
    <polygon fill="#003045" points="181.874 51.214 181.783 51.748 182.317 51.838 182.407 51.305" mask="url(#logo-insiders-b)"/>
    <polygon fill="#00253C" points="181.199 54.505 181.65 54.623 181.769 54.175 181.318 54.056" mask="url(#logo-insiders-b)"/>
    <polygon fill="#05705D" points="179.937 57.409 180.944 57.774 181.309 56.768 180.302 56.403" mask="url(#logo-insiders-b)"/>
    <polygon fill="#0FA263" points="179.189 58.837 178.606 60.079 179.85 60.66 180.433 59.418" mask="url(#logo-insiders-b)"/>
    <polygon fill="#005854" points="178.028 61.715 177.595 62.453 178.336 62.884 178.768 62.145" mask="url(#logo-insiders-b)"/>
    <polygon fill="#53B847" points="176.417 63.527 175.425 64.922 176.823 65.913 177.814 64.518" mask="url(#logo-insiders-b)"/>
    <polygon fill="#53B847" points="174.753 65.784 173.638 67.086 174.941 68.196 176.055 66.895" mask="url(#logo-insiders-b)"/>
    <polygon fill="#00485C" points="172.226 73.445 172.703 74.03 173.291 73.552 172.813 72.967" mask="url(#logo-insiders-b)"/>
    <polygon fill="#29170A" points="115.091 35.488 115.042 35.926 115.479 35.976 115.529 35.537" mask="url(#logo-insiders-b)"/>
    <polygon fill="#261409" points="115.885 33.129 115.965 32.722 115.558 32.641 115.477 33.05" mask="url(#logo-insiders-b)"/>
    <polygon fill="#5B0D0A" points="127.426 19.751 127.001 19.271 126.52 19.697 126.945 20.177" mask="url(#logo-insiders-b)"/>
    <polygon fill="#69120E" points="129.719 17.977 129.281 17.394 128.695 17.831 129.135 18.414" mask="url(#logo-insiders-b)"/>
    <polygon fill="#841618" points="132.174 16.407 131.717 15.681 130.992 16.137 131.448 16.863" mask="url(#logo-insiders-b)"/>
    <polygon fill="#3B0E08" points="133.977 15.177 134.424 14.946 134.192 14.499 133.745 14.731" mask="url(#logo-insiders-b)"/>
    <polygon fill="#BC2025" points="137.412 13.905 136.987 12.896 135.976 13.321 136.402 14.331" mask="url(#logo-insiders-b)"/>
    <polygon fill="#D71F26" points="140.174 12.998 139.789 11.827 138.616 12.211 139.001 13.382" mask="url(#logo-insiders-b)"/>
    <polygon fill="#EE3C23" points="142.728 10.909 141.258 11.261 141.61 12.73 143.081 12.378" mask="url(#logo-insiders-b)"/>
    <polygon fill="#EE3C23" points="145.861 11.893 145.63 10.401 144.135 10.632 144.367 12.124" mask="url(#logo-insiders-b)"/>
    <polygon fill="#EE4328" points="148.713 11.671 148.599 10.09 147.014 10.204 147.13 11.786" mask="url(#logo-insiders-b)"/>
    <polygon fill="#EF5125" points="149.916 10.003 149.9 11.676 151.576 11.691 151.592 10.018" mask="url(#logo-insiders-b)"/>
    <polygon fill="#F16630" points="152.742 9.932 152.565 11.874 154.509 12.051 154.687 10.109" mask="url(#logo-insiders-b)"/>
    <polygon fill="#F16630" points="157.28 12.498 157.614 10.577 155.691 10.242 155.355 12.163" mask="url(#logo-insiders-b)"/>
    <polygon fill="#C23C26" points="158.82 11.159 158.481 12.462 159.786 12.801 160.125 11.497" mask="url(#logo-insiders-b)"/>
    <polygon fill="#6E4316" points="161.744 12.16 161.404 13.134 162.38 13.474 162.72 12.499" mask="url(#logo-insiders-b)"/>
    <polygon fill="#583D10" points="164.513 13.278 164.145 14.106 164.975 14.474 165.342 13.646" mask="url(#logo-insiders-b)"/>
    <polygon fill="#583D10" points="167.945 14.968 167.149 14.535 166.714 15.33 167.511 15.764" mask="url(#logo-insiders-b)"/>
    <polygon fill="#EE4124" points="169.565 15.479 168.652 16.868 170.043 17.779 170.955 16.391" mask="url(#logo-insiders-b)"/>
    <polygon fill="#544B1A" points="171.547 18.38 172.223 18.907 172.75 18.232 172.074 17.705" mask="url(#logo-insiders-b)"/>
    <polygon fill="#3F3552" points="173.645 20.197 174.378 20.87 175.052 20.138 174.319 19.465" mask="url(#logo-insiders-b)"/>
    <polygon fill="#0A4672" points="178.824 24.465 178.326 23.83 177.691 24.326 178.188 24.961" mask="url(#logo-insiders-b)"/>
    <polygon fill="#1D3D6D" points="185.235 42.567 185.3 43.257 185.989 43.193 185.925 42.503" mask="url(#logo-insiders-b)"/>
    <polygon fill="#1970B8" points="185.062 47.928 184.97 49.247 186.289 49.339 186.382 48.021" mask="url(#logo-insiders-b)"/>
    <polygon fill="#002B3C" points="183.863 56.784 183.711 57.25 184.177 57.403 184.33 56.936" mask="url(#logo-insiders-b)"/>
    <polygon fill="#016463" points="182.388 60.048 183.272 60.418 183.642 59.537 182.758 59.166" mask="url(#logo-insiders-b)"/>
    <polygon fill="#0D8961" points="180.943 62.669 182.062 63.249 182.641 62.131 181.523 61.553" mask="url(#logo-insiders-b)"/>
    <polygon fill="#01304B" points="180.274 64.518 179.98 64.987 180.449 65.282 180.743 64.812" mask="url(#logo-insiders-b)"/>
    <polygon fill="#005853" points="179.321 67.19 178.644 66.684 178.139 67.36 178.816 67.865" mask="url(#logo-insiders-b)"/>
    <polygon fill="#005853" points="176.315 69.546 176.949 70.104 177.508 69.473 176.874 68.915" mask="url(#logo-insiders-b)"/>
    <polygon fill="#082C49" points="174.551 71.581 174.909 71.953 175.281 71.596 174.923 71.223" mask="url(#logo-insiders-b)"/>
    <polygon fill="#00665D" points="175.472 76.054 174.858 75.303 174.107 75.916 174.719 76.666" mask="url(#logo-insiders-b)"/>
    <polygon fill="#572E0F" points="111.878 33.881 111.767 34.679 112.566 34.791 112.677 33.992" mask="url(#logo-insiders-b)"/>
    <polygon fill="#660A0C" points="126.089 15.827 125.562 16.256 125.991 16.783 126.519 16.353" mask="url(#logo-insiders-b)"/>
    <polygon fill="#7F1416" points="128.894 14.667 128.44 14.018 127.789 14.471 128.244 15.121" mask="url(#logo-insiders-b)"/>
    <polygon fill="#6F0E10" points="130.284 12.887 130.641 13.493 131.251 13.133 130.89 12.527" mask="url(#logo-insiders-b)"/>
    <polygon fill="#A21D20" points="133.093 12.252 133.917 11.845 133.509 11.021 132.684 11.429" mask="url(#logo-insiders-b)"/>
    <polygon fill="#A21D20" points="136.185 9.858 135.333 10.203 135.678 11.054 136.531 10.709" mask="url(#logo-insiders-b)"/>
    <polygon fill="#741012" points="139.11 9.715 138.883 9.008 138.175 9.235 138.402 9.942" mask="url(#logo-insiders-b)"/>
    <polygon fill="#441309" points="141.624 8.366 141.086 8.494 141.214 9.032 141.754 8.904" mask="url(#logo-insiders-b)"/>
    <polygon fill="#ED3025" points="143.459 7.565 143.679 8.919 145.035 8.7 144.816 7.346" mask="url(#logo-insiders-b)"/>
    <polygon fill="#EE4129" points="146.257 7.063 146.392 8.629 147.961 8.495 147.826 6.928" mask="url(#logo-insiders-b)"/>
    <polygon fill="#EE4129" points="149.193 6.861 149.211 8.435 150.786 8.417 150.768 6.844" mask="url(#logo-insiders-b)"/>
    <polygon fill="#EE4727" points="152.118 6.86 152.016 8.468 153.625 8.57 153.729 6.962" mask="url(#logo-insiders-b)"/>
    <polygon fill="#DA3926" points="155.118 7.183 154.917 8.627 156.364 8.829 156.566 7.383" mask="url(#logo-insiders-b)"/>
    <polygon fill="#EF4E26" points="159.569 7.874 157.943 7.523 157.591 9.145 159.217 9.498" mask="url(#logo-insiders-b)"/>
    <polygon fill="#EF4E27" points="160.813 8.192 160.34 9.785 161.935 10.256 162.408 8.664" mask="url(#logo-insiders-b)"/>
    <polygon fill="#EF4C2A" points="163.621 9.066 163.025 10.631 164.592 11.225 165.188 9.661" mask="url(#logo-insiders-b)"/>
    <polygon fill="#9D3520" points="166.483 10.498 165.992 11.547 167.041 12.037 167.533 10.989" mask="url(#logo-insiders-b)"/>
    <polygon fill="#4F3C11" points="168.743 12.749 169.49 13.168 169.91 12.423 169.163 12.003" mask="url(#logo-insiders-b)"/>
    <polygon fill="#6B3D14" points="171.647 13.401 171.095 14.229 171.923 14.78 172.475 13.952" mask="url(#logo-insiders-b)"/>
    <polygon fill="#543A10" points="173.567 15.844 174.193 16.331 174.681 15.706 174.055 15.218" mask="url(#logo-insiders-b)"/>
    <polygon fill="#12497F" points="188.499 48.144 188.444 48.998 189.299 49.053 189.354 48.2" mask="url(#logo-insiders-b)"/>
    <polygon fill="#002F43" points="186.619 60.159 186.806 59.664 186.311 59.476 186.123 59.97" mask="url(#logo-insiders-b)"/>
    <polygon fill="#003B48" points="184.913 62.623 185.495 62.896 185.768 62.314 185.186 62.043" mask="url(#logo-insiders-b)"/>
    <polygon fill="#005E58" points="184.613 64.864 183.856 64.44 183.43 65.196 184.187 65.62" mask="url(#logo-insiders-b)"/>
    <polygon fill="#03233E" points="182.576 67.79 182.82 67.424 182.453 67.18 182.208 67.546" mask="url(#logo-insiders-b)"/>
    <polygon fill="#03233E" points="180.866 70.13 181.136 69.782 180.789 69.512 180.518 69.86" mask="url(#logo-insiders-b)"/>
    <polygon fill="#005A5C" points="178.347 72.054 179 72.647 179.593 71.994 178.94 71.402" mask="url(#logo-insiders-b)"/>
    <polygon fill="#003C53" points="176.49 74.07 176.941 74.546 177.417 74.096 176.966 73.62" mask="url(#logo-insiders-b)"/>
    <polygon fill="#00243A" points="176.852 78.153 176.5 78.44 176.787 78.791 177.139 78.504" mask="url(#logo-insiders-b)"/>
    <polygon fill="#55200F" points="108.465 35.375 108.392 36.152 109.171 36.224 109.242 35.448" mask="url(#logo-insiders-b)"/>
    <polygon fill="#55200F" points="108.861 32.495 108.734 33.265 109.505 33.39 109.631 32.621" mask="url(#logo-insiders-b)"/>
    <polygon fill="#5A030D" points="125.522 12.978 125.194 12.548 124.762 12.875 125.091 13.306" mask="url(#logo-insiders-b)"/>
    <polygon fill="#6D0D10" points="127.933 11.356 127.589 10.829 127.062 11.174 127.407 11.701" mask="url(#logo-insiders-b)"/>
    <polygon fill="#67170D" points="151.755 4.07 151.724 4.824 152.479 4.855 152.51 4.101" mask="url(#logo-insiders-b)"/>
    <polygon fill="#3B160A" points="154.753 4.381 154.694 4.918 155.232 4.977 155.291 4.44" mask="url(#logo-insiders-b)"/>
    <polygon fill="#44190B" points="157.608 4.75 157.502 5.332 158.085 5.437 158.19 4.855" mask="url(#logo-insiders-b)"/>
    <polygon fill="#9E3821" points="160.241 4.992 159.953 6.127 161.089 6.414 161.377 5.28" mask="url(#logo-insiders-b)"/>
    <polygon fill="#43250E" points="163.23 6.101 163.029 6.71 163.64 6.91 163.84 6.3" mask="url(#logo-insiders-b)"/>
    <polygon fill="#EE3F23" points="165.157 7.912 166.558 8.481 167.128 7.081 165.726 6.513" mask="url(#logo-insiders-b)"/>
    <polygon fill="#C93126" points="167.89 8.976 169.079 9.557 169.659 8.369 168.471 7.789" mask="url(#logo-insiders-b)"/>
    <polygon fill="#A83723" points="170.493 10.248 171.541 10.852 172.147 9.806 171.099 9.202" mask="url(#logo-insiders-b)"/>
    <polygon fill="#892F1B" points="173.04 11.694 173.907 12.277 174.492 11.412 173.624 10.828" mask="url(#logo-insiders-b)"/>
    <polygon fill="#5F290D" points="175.525 13.316 176.171 13.818 176.675 13.174 176.028 12.67" mask="url(#logo-insiders-b)"/>
    <polygon fill="#5F290D" points="177.734 15.124 178.343 15.67 178.89 15.061 178.28 14.514" mask="url(#logo-insiders-b)"/>
    <polygon fill="#12497F" points="191.717 48.112 191.667 48.965 192.523 49.016 192.573 48.161" mask="url(#logo-insiders-b)"/>
    <polygon fill="#0B7556" points="180.25 74.563 181.054 75.308 181.799 74.507 180.997 73.761" mask="url(#logo-insiders-b)"/>
    <polygon fill="#148E5E" points="179.016 75.74 178.153 76.549 178.963 77.411 179.828 76.603" mask="url(#logo-insiders-b)"/>
    <polygon fill="#54200D" points="105.409 33.989 105.321 34.726 106.059 34.814 106.147 34.076" mask="url(#logo-insiders-b)"/>
    <polygon fill="#460008" points="136.84 3.061 136.981 3.518 137.438 3.377 137.298 2.92" mask="url(#logo-insiders-b)"/>
    <polygon fill="#9F1C20" points="140.246 1.927 139.389 2.133 139.594 2.989 140.452 2.783" mask="url(#logo-insiders-b)"/>
    <polygon fill="#9E1C20" points="142.242 1.522 142.39 2.378 143.248 2.23 143.1 1.374" mask="url(#logo-insiders-b)"/>
    <polygon fill="#400008" points="145.851 1.678 145.803 1.227 145.351 1.276 145.4 1.726" mask="url(#logo-insiders-b)"/>
    <polygon fill="#E31E25" points="147.859 .695 147.911 1.876 149.095 1.826 149.042 .644" mask="url(#logo-insiders-b)"/>
    <polygon fill="#ED332B" points="150.695 .534 150.667 1.894 152.027 1.923 152.055 .564" mask="url(#logo-insiders-b)"/>
    <polygon fill="#ED342C" points="153.615 .639 153.498 2.006 154.866 2.123 154.983 .756" mask="url(#logo-insiders-b)"/>
    <polygon fill="#EE412F" points="156.411 .781 156.166 2.411 157.798 2.656 158.043 1.025" mask="url(#logo-insiders-b)"/>
    <polygon fill="#EE3A25" points="159.381 1.37 159.072 2.795 160.501 3.105 160.81 1.679" mask="url(#logo-insiders-b)"/>
    <polygon fill="#EE3A25" points="161.836 3.439 163.241 3.839 163.641 2.435 162.236 2.036" mask="url(#logo-insiders-b)"/>
    <polygon fill="#ED3523" points="165.049 2.898 164.569 4.25 165.922 4.731 166.403 3.379" mask="url(#logo-insiders-b)"/>
    <polygon fill="#712913" points="172.698 7.629 173.469 8.084 173.924 7.315 173.154 6.86" mask="url(#logo-insiders-b)"/>
    <polygon fill="#692610" points="175.15 9.129 175.858 9.611 176.34 8.904 175.633 8.422" mask="url(#logo-insiders-b)"/>
    <polygon fill="#692610" points="177.474 10.788 178.15 11.314 178.677 10.639 178.001 10.112" mask="url(#logo-insiders-b)"/>
    <polygon fill="#143359" points="195.043 48.198 195.01 48.827 195.639 48.86 195.672 48.231" mask="url(#logo-insiders-b)"/>
    <polygon fill="#142C50" points="198.279 48.183 198.249 48.774 198.842 48.803 198.871 48.213" mask="url(#logo-insiders-b)"/>
  </g>
</svg>
