<svg xmlns="http://www.w3.org/2000/svg" xmlns:xlink="http://www.w3.org/1999/xlink" width="119" height="56" viewBox="0 0 119 56">
  <defs>
    <polygon id="logo-mobile-a" points="0 55 118.923 55 118.923 .319 0 .319"/>
  </defs>
  <g fill="none" fill-rule="evenodd">
    <polygon fill="#F05A28" points="69.982 48.529 70.361 48.529 70.361 47.882 69.982 47.882"/>
    <polygon stroke="#F05A28" stroke-width=".15" points="69.982 48.529 70.361 48.529 70.361 47.882 69.982 47.882"/>
    <polygon fill="#F05A28" points="73.215 48.529 73.595 48.529 73.595 47.882 73.215 47.882"/>
    <polygon stroke="#F05A28" stroke-width=".15" points="73.215 48.529 73.595 48.529 73.595 47.882 73.215 47.882"/>
    <polygon fill="#F05A28" points="73.215 48.529 73.595 48.529 73.595 47.882 73.215 47.882"/>
    <polygon stroke="#F05A28" stroke-width=".15" points="73.215 48.529 73.595 48.529 73.595 47.882 73.215 47.882"/>
    <path fill="#008EB3" d="M52.8561419,50.834652 C52.4709344,50.626092 51.8552196,50.522692 51.0081159,50.522692 L49.73129,50.522692 L49.73129,52.865252 L50.8935233,52.865252 C51.1954307,52.865252 51.4973381,52.853372 51.7988048,52.826092 C52.0989493,52.801012 52.3726493,52.746892 52.6163789,52.663292 C52.8601085,52.580132 53.0580011,52.460452 53.2074122,52.304692 C53.3585863,52.148492 53.433953,51.940372 53.433953,51.680772 C53.433953,51.325692 53.2413493,51.043212 52.8561419,50.834652 M52.9962974,48.815052 C52.9248974,48.694052 52.8019307,48.590212 52.6313641,48.503092 C52.4585937,48.414212 52.2311715,48.346012 51.9482159,48.293652 C51.6665826,48.240852 51.3179567,48.215332 50.9014567,48.215332 L49.73129,48.215332 L49.73129,50.274092 L50.9085085,50.274092 C51.3867122,50.274092 51.7705974,50.241532 52.0601641,50.178612 C52.3497307,50.113932 52.5718641,50.032092 52.7278863,49.929572 C52.883027,49.827492 52.9839567,49.713092 53.0324381,49.585492 C53.0795974,49.457892 53.1038381,49.329852 53.1038381,49.202252 C53.1038381,49.065412 53.0690196,48.936492 52.9962974,48.815052 M53.5820419,52.233412 C53.4974196,52.390492 53.3854715,52.521172 53.2439937,52.628532 C53.1025159,52.734572 52.9394419,52.819492 52.7525678,52.884172 C52.5665752,52.947532 52.3686826,52.995492 52.1610937,53.029372 C51.9521826,53.061932 51.7393048,53.084372 51.5211381,53.096692 C51.3042937,53.108572 51.0940604,53.114292 50.8935233,53.114292 L49.4589122,53.114292 L49.4589122,47.966292 L50.923053,47.966292 C51.3677604,47.966292 51.7463567,47.997532 52.0601641,48.057812 C52.3739715,48.119852 52.6269567,48.206972 52.8208826,48.317412 C53.0148085,48.429172 53.1549641,48.560732 53.2439937,48.711652 C53.3330233,48.863892 53.3775381,49.031532 53.3775381,49.215452 C53.3775381,49.504972 53.2832196,49.752252 53.097227,49.958172 C52.9099122,50.164092 52.6013937,50.307972 52.1716715,50.388052 C52.6406196,50.454492 53.0134863,50.595292 53.291153,50.810452 C53.5688196,51.026052 53.7072122,51.316452 53.7072122,51.680772 C53.7072122,51.892852 53.6653419,52.077212 53.5820419,52.233412"/>
    <path stroke="#008EB3" stroke-width=".15" d="M52.8561419,50.834652 C52.4709344,50.626092 51.8552196,50.522692 51.0081159,50.522692 L49.73129,50.522692 L49.73129,52.865252 L50.8935233,52.865252 C51.1954307,52.865252 51.4973381,52.853372 51.7988048,52.826092 C52.0989493,52.801012 52.3726493,52.746892 52.6163789,52.663292 C52.8601085,52.580132 53.0580011,52.460452 53.2074122,52.304692 C53.3585863,52.148492 53.433953,51.940372 53.433953,51.680772 C53.433953,51.325692 53.2413493,51.043212 52.8561419,50.834652 Z M52.9962974,48.815052 C52.9248974,48.694052 52.8019307,48.590212 52.6313641,48.503092 C52.4585937,48.414212 52.2311715,48.346012 51.9482159,48.293652 C51.6665826,48.240852 51.3179567,48.215332 50.9014567,48.215332 L49.73129,48.215332 L49.73129,50.274092 L50.9085085,50.274092 C51.3867122,50.274092 51.7705974,50.241532 52.0601641,50.178612 C52.3497307,50.113932 52.5718641,50.032092 52.7278863,49.929572 C52.883027,49.827492 52.9839567,49.713092 53.0324381,49.585492 C53.0795974,49.457892 53.1038381,49.329852 53.1038381,49.202252 C53.1038381,49.065412 53.0690196,48.936492 52.9962974,48.815052 Z M53.5820419,52.233412 C53.4974196,52.390492 53.3854715,52.521172 53.2439937,52.628532 C53.1025159,52.734572 52.9394419,52.819492 52.7525678,52.884172 C52.5665752,52.947532 52.3686826,52.995492 52.1610937,53.029372 C51.9521826,53.061932 51.7393048,53.084372 51.5211381,53.096692 C51.3042937,53.108572 51.0940604,53.114292 50.8935233,53.114292 L49.4589122,53.114292 L49.4589122,47.966292 L50.923053,47.966292 C51.3677604,47.966292 51.7463567,47.997532 52.0601641,48.057812 C52.3739715,48.119852 52.6269567,48.206972 52.8208826,48.317412 C53.0148085,48.429172 53.1549641,48.560732 53.2439937,48.711652 C53.3330233,48.863892 53.3775381,49.031532 53.3775381,49.215452 C53.3775381,49.504972 53.2832196,49.752252 53.097227,49.958172 C52.9099122,50.164092 52.6013937,50.307972 52.1716715,50.388052 C52.6406196,50.454492 53.0134863,50.595292 53.291153,50.810452 C53.5688196,51.026052 53.7072122,51.316452 53.7072122,51.680772 C53.7072122,51.892852 53.6653419,52.077212 53.5820419,52.233412 Z"/>
    <path fill="#008EB3" d="M56.7218789,53.895292 C56.6786863,54.003972 56.619627,54.120132 56.5455826,54.243332 C56.4715381,54.365652 56.3719307,54.483132 56.2476419,54.591812 C56.1277604,54.700932 55.9836381,54.789372 55.813953,54.860652 C55.6442678,54.931932 55.4366789,54.967132 55.1929493,54.967132 C55.0691011,54.967132 54.9628826,54.961852 54.873853,54.949532 C54.7848233,54.937212 54.7028456,54.920052 54.6261567,54.896732 C54.5344826,54.869012 54.4560307,54.839532 54.3890381,54.808292 C54.3216048,54.777492 54.2475604,54.738332 54.1669048,54.691692 L54.2960419,54.470812 C54.3634752,54.508652 54.4278233,54.543412 54.4899678,54.577292 C54.5521122,54.610732 54.620427,54.638892 54.6975567,54.661772 C54.76499,54.685972 54.8399159,54.703572 54.9236567,54.715452 C55.0069567,54.727772 55.0973085,54.733052 55.1929493,54.733052 C55.3749752,54.733052 55.5393715,54.707532 55.6887826,54.655172 C55.8368715,54.602372 55.9677715,54.523172 56.0832456,54.414492 C56.2449974,54.256972 56.3825085,54.059412 56.4918122,53.816972 L56.8510159,53.007812 L54.4467752,49.222492 L54.7403085,49.222492 L55.8747752,51.005812 C56.0563604,51.294892 56.2397085,51.583532 56.4243789,51.875692 C56.6072863,52.165652 56.7906344,52.453852 56.9722196,52.737652 C57.2269678,52.145852 57.4773085,51.566372 57.7267678,50.998772 L58.4945381,49.222492 L58.7664752,49.222492 L56.7218789,53.895292 Z"/>
    <path stroke="#008EB3" stroke-width=".15" d="M56.7218789,53.895292 C56.6786863,54.003972 56.619627,54.120132 56.5455826,54.243332 C56.4715381,54.365652 56.3719307,54.483132 56.2476419,54.591812 C56.1277604,54.700932 55.9836381,54.789372 55.813953,54.860652 C55.6442678,54.931932 55.4366789,54.967132 55.1929493,54.967132 C55.0691011,54.967132 54.9628826,54.961852 54.873853,54.949532 C54.7848233,54.937212 54.7028456,54.920052 54.6261567,54.896732 C54.5344826,54.869012 54.4560307,54.839532 54.3890381,54.808292 C54.3216048,54.777492 54.2475604,54.738332 54.1669048,54.691692 L54.2960419,54.470812 C54.3634752,54.508652 54.4278233,54.543412 54.4899678,54.577292 C54.5521122,54.610732 54.620427,54.638892 54.6975567,54.661772 C54.76499,54.685972 54.8399159,54.703572 54.9236567,54.715452 C55.0069567,54.727772 55.0973085,54.733052 55.1929493,54.733052 C55.3749752,54.733052 55.5393715,54.707532 55.6887826,54.655172 C55.8368715,54.602372 55.9677715,54.523172 56.0832456,54.414492 C56.2449974,54.256972 56.3825085,54.059412 56.4918122,53.816972 L56.8510159,53.007812 L54.4467752,49.222492 L54.7403085,49.222492 L55.8747752,51.005812 C56.0563604,51.294892 56.2397085,51.583532 56.4243789,51.875692 C56.6072863,52.165652 56.7906344,52.453852 56.9722196,52.737652 C57.2269678,52.145852 57.4773085,51.566372 57.7267678,50.998772 L58.4945381,49.222492 L58.7664752,49.222492 L56.7218789,53.895292 Z"/>
    <path fill="#008EB3" d="M68.7137733,53.114116 L68.7137733,50.189436 C68.7137733,49.402276 68.71774,48.792436 68.7283178,48.356396 C68.4361067,48.792436 68.0244548,49.404036 67.4933622,50.191636 C66.9627104,50.979676 66.3068881,51.954716 65.5272178,53.114116 L65.3112548,53.114116 C64.5276178,51.949876 63.8700326,50.973516 63.3420252,50.185476 C62.8126956,49.397436 62.4058919,48.788036 62.1176474,48.356396 C62.123377,48.792436 62.1273437,49.402276 62.1286659,50.189436 C62.1308696,50.974836 62.1321919,51.949876 62.1321919,53.114116 L61.8602548,53.114116 L61.8602548,47.966556 L62.1687733,47.966556 C62.971803,49.164676 63.6452548,50.163916 64.1891289,50.966476 C64.7321215,51.769036 65.1442141,52.382396 65.4271696,52.808756 C65.708803,52.382396 66.1208956,51.769036 66.6612437,50.966476 C67.2011511,50.163916 67.8759252,49.164676 68.6855659,47.966556 L68.9857104,47.966556 L68.9857104,53.114116 L68.7137733,53.114116 Z"/>
    <path stroke="#008EB3" stroke-width=".15" d="M68.7137733,53.114116 L68.7137733,50.189436 C68.7137733,49.402276 68.71774,48.792436 68.7283178,48.356396 C68.4361067,48.792436 68.0244548,49.404036 67.4933622,50.191636 C66.9627104,50.979676 66.3068881,51.954716 65.5272178,53.114116 L65.3112548,53.114116 C64.5276178,51.949876 63.8700326,50.973516 63.3420252,50.185476 C62.8126956,49.397436 62.4058919,48.788036 62.1176474,48.356396 C62.123377,48.792436 62.1273437,49.402276 62.1286659,50.189436 C62.1308696,50.974836 62.1321919,51.949876 62.1321919,53.114116 L61.8602548,53.114116 L61.8602548,47.966556 L62.1687733,47.966556 C62.971803,49.164676 63.6452548,50.163916 64.1891289,50.966476 C64.7321215,51.769036 65.1442141,52.382396 65.4271696,52.808756 C65.708803,52.382396 66.1208956,51.769036 66.6612437,50.966476 C67.2011511,50.163916 67.8759252,49.164676 68.6855659,47.966556 L68.9857104,47.966556 L68.9857104,53.114116 L68.7137733,53.114116 Z"/>
    <mask id="logo-mobile-b" fill="#fff">
      <use xlink:href="#logo-mobile-a"/>
    </mask>
    <polygon fill="#008EB3" points="71.849 53.114 72.108 53.114 72.108 47.839 71.849 47.839" mask="url(#logo-mobile-b)"/>
    <polygon stroke="#008EB3" stroke-width=".15" points="71.849 53.114 72.108 53.114 72.108 47.839 71.849 47.839" mask="url(#logo-mobile-b)"/>
    <path fill="#008EB3" d="M78.6287211,50.49044 C78.548947,50.27528 78.433473,50.08432 78.2796544,49.91888 C78.1275989,49.75344 77.933673,49.62012 77.6991989,49.52112 C77.4647248,49.42124 77.19411,49.37152 76.8886767,49.37152 C76.740147,49.37152 76.5907359,49.38384 76.4395619,49.40804 C76.2888285,49.43092 76.136773,49.47668 75.9833952,49.54268 C75.8538174,49.60428 75.7260026,49.6782 75.59951,49.76576 C75.4725767,49.85464 75.3540174,49.95232 75.2451544,50.06144 L75.2451544,52.2764 C75.39721,52.41324 75.5373656,52.52368 75.6638581,52.60728 C75.7907915,52.68912 75.9062656,52.75468 76.0124841,52.8022 C76.1222285,52.84884 76.2500433,52.888 76.39681,52.91924 C76.5422544,52.95004 76.7066507,52.96456 76.8886767,52.96456 C77.1456285,52.96456 77.3959693,52.92408 77.6374952,52.84092 C77.8799026,52.75732 78.0910174,52.61784 78.2730433,52.41896 C78.4118767,52.26672 78.525147,52.08676 78.6137359,51.8782 C78.7027656,51.6714 78.7472804,51.4294 78.7472804,51.15484 C78.7472804,50.92736 78.7067322,50.7056 78.6287211,50.49044 M78.8790619,51.89976 C78.7957619,52.14616 78.6556063,52.37276 78.4603581,52.58132 C78.2915544,52.76172 78.0751507,52.90956 77.8098248,53.02528 C77.5444989,53.14056 77.2373026,53.19996 76.8886767,53.19996 C76.7723211,53.19996 76.6339285,53.19072 76.4721767,53.17048 C76.3091026,53.15156 76.1301619,53.10052 75.9335915,53.01428 C75.8229656,52.97292 75.7070507,52.9122 75.585847,52.83432 C75.4633211,52.756 75.3504915,52.67152 75.2451544,52.58132 L75.2451544,54.87548 L74.9864396,54.87548 L74.9864396,49.22236 L75.2451544,49.22236 L75.2372211,49.75652 C75.3191989,49.67952 75.4135174,49.60692 75.5210581,49.53564 C75.6290396,49.46436 75.7515656,49.3988 75.8903989,49.33676 C76.0292322,49.2712 76.1795248,49.22104 76.3425989,49.1876 C76.5047915,49.15416 76.6863767,49.13788 76.8886767,49.13788 C77.5427359,49.13788 78.0720656,49.34864 78.4735804,49.76972 C78.6370952,49.94044 78.7662322,50.14108 78.8614322,50.3734 C78.957073,50.60484 79.004673,50.86576 79.004673,51.15484 C79.004673,51.40476 78.9628026,51.6538 78.8790619,51.89976" mask="url(#logo-mobile-b)"/>
    <path stroke="#008EB3" stroke-width=".15" d="M78.6287211,50.49044 C78.548947,50.27528 78.433473,50.08432 78.2796544,49.91888 C78.1275989,49.75344 77.933673,49.62012 77.6991989,49.52112 C77.4647248,49.42124 77.19411,49.37152 76.8886767,49.37152 C76.740147,49.37152 76.5907359,49.38384 76.4395619,49.40804 C76.2888285,49.43092 76.136773,49.47668 75.9833952,49.54268 C75.8538174,49.60428 75.7260026,49.6782 75.59951,49.76576 C75.4725767,49.85464 75.3540174,49.95232 75.2451544,50.06144 L75.2451544,52.2764 C75.39721,52.41324 75.5373656,52.52368 75.6638581,52.60728 C75.7907915,52.68912 75.9062656,52.75468 76.0124841,52.8022 C76.1222285,52.84884 76.2500433,52.888 76.39681,52.91924 C76.5422544,52.95004 76.7066507,52.96456 76.8886767,52.96456 C77.1456285,52.96456 77.3959693,52.92408 77.6374952,52.84092 C77.8799026,52.75732 78.0910174,52.61784 78.2730433,52.41896 C78.4118767,52.26672 78.525147,52.08676 78.6137359,51.8782 C78.7027656,51.6714 78.7472804,51.4294 78.7472804,51.15484 C78.7472804,50.92736 78.7067322,50.7056 78.6287211,50.49044 Z M78.8790619,51.89976 C78.7957619,52.14616 78.6556063,52.37276 78.4603581,52.58132 C78.2915544,52.76172 78.0751507,52.90956 77.8098248,53.02528 C77.5444989,53.14056 77.2373026,53.19996 76.8886767,53.19996 C76.7723211,53.19996 76.6339285,53.19072 76.4721767,53.17048 C76.3091026,53.15156 76.1301619,53.10052 75.9335915,53.01428 C75.8229656,52.97292 75.7070507,52.9122 75.585847,52.83432 C75.4633211,52.756 75.3504915,52.67152 75.2451544,52.58132 L75.2451544,54.87548 L74.9864396,54.87548 L74.9864396,49.22236 L75.2451544,49.22236 L75.2372211,49.75652 C75.3191989,49.67952 75.4135174,49.60692 75.5210581,49.53564 C75.6290396,49.46436 75.7515656,49.3988 75.8903989,49.33676 C76.0292322,49.2712 76.1795248,49.22104 76.3425989,49.1876 C76.5047915,49.15416 76.6863767,49.13788 76.8886767,49.13788 C77.5427359,49.13788 78.0720656,49.34864 78.4735804,49.76972 C78.6370952,49.94044 78.7662322,50.14108 78.8614322,50.3734 C78.957073,50.60484 79.004673,50.86576 79.004673,51.15484 C79.004673,51.40476 78.9628026,51.6538 78.8790619,51.89976 Z" mask="url(#logo-mobile-b)"/>
    <path fill="#008EB3" d="M83.8978207,50.416564 C83.7982133,50.193484 83.6607022,50.004724 83.4857281,49.852044 C83.3107541,49.697164 83.1058096,49.580564 82.8686911,49.499604 C82.6320133,49.419964 82.3772652,49.379924 82.1040059,49.379924 C81.8263393,49.379924 81.5689467,49.419964 81.3335911,49.499604 C81.0964726,49.580564 80.8902059,49.697164 80.7147911,49.852044 C80.54158,50.004724 80.4036281,50.193484 80.3031393,50.416564 C80.2017689,50.638324 80.1519652,50.891324 80.1519652,51.176444 C80.1519652,51.413164 80.1911911,51.638884 80.2709652,51.854044 C80.3498578,52.069204 80.4688578,52.260164 80.6288467,52.425164 C80.7888356,52.590604 80.9924578,52.723924 81.2392726,52.823804 C81.4852059,52.922804 81.7738911,52.972964 82.1040059,52.972964 L82.1119393,52.972964 C82.4367652,52.972964 82.7219244,52.922804 82.9660948,52.823804 C83.2093837,52.723924 83.411243,52.590604 83.5721133,52.425164 C83.7321022,52.260164 83.8519837,52.069204 83.9299948,51.854044 C84.0097689,51.638884 84.0489948,51.413164 84.0489948,51.176444 C84.0489948,50.891324 83.9987504,50.638324 83.8978207,50.416564 M84.1781319,51.925324 C84.0917467,52.168644 83.9599652,52.383804 83.7792615,52.570804 C83.6003207,52.757364 83.3728985,52.909604 83.0952319,53.025324 C82.8175652,53.140604 82.4878911,53.200004 82.1040059,53.200004 C81.7306985,53.200004 81.4063133,53.143684 81.1286467,53.033244 C80.85098,52.921484 80.6204726,52.773644 80.4388874,52.588404 C80.2568615,52.404044 80.1211133,52.188884 80.0312022,51.942924 C79.9395281,51.696524 79.8932504,51.438244 79.8932504,51.168084 C79.8932504,50.847324 79.9514281,50.560444 80.0660207,50.309204 C80.1801726,50.059284 80.33928,49.845004 80.539817,49.670324 C80.7407948,49.495204 80.9748281,49.362324 81.2432393,49.272124 C81.5112096,49.183244 81.7976911,49.137924 82.1040059,49.137924 C82.4107615,49.137924 82.6976837,49.183244 82.9660948,49.272124 C83.2336244,49.362324 83.4667763,49.495204 83.6651096,49.670324 C83.8643244,49.845004 84.0203467,50.059284 84.1349393,50.309204 C84.2495319,50.560444 84.3077096,50.847324 84.3077096,51.168084 L84.3077096,51.176444 C84.3077096,51.432084 84.2640763,51.680684 84.1781319,51.925324" mask="url(#logo-mobile-b)"/>
    <path stroke="#008EB3" stroke-width=".15" d="M83.8978207,50.416564 C83.7982133,50.193484 83.6607022,50.004724 83.4857281,49.852044 C83.3107541,49.697164 83.1058096,49.580564 82.8686911,49.499604 C82.6320133,49.419964 82.3772652,49.379924 82.1040059,49.379924 C81.8263393,49.379924 81.5689467,49.419964 81.3335911,49.499604 C81.0964726,49.580564 80.8902059,49.697164 80.7147911,49.852044 C80.54158,50.004724 80.4036281,50.193484 80.3031393,50.416564 C80.2017689,50.638324 80.1519652,50.891324 80.1519652,51.176444 C80.1519652,51.413164 80.1911911,51.638884 80.2709652,51.854044 C80.3498578,52.069204 80.4688578,52.260164 80.6288467,52.425164 C80.7888356,52.590604 80.9924578,52.723924 81.2392726,52.823804 C81.4852059,52.922804 81.7738911,52.972964 82.1040059,52.972964 L82.1119393,52.972964 C82.4367652,52.972964 82.7219244,52.922804 82.9660948,52.823804 C83.2093837,52.723924 83.411243,52.590604 83.5721133,52.425164 C83.7321022,52.260164 83.8519837,52.069204 83.9299948,51.854044 C84.0097689,51.638884 84.0489948,51.413164 84.0489948,51.176444 C84.0489948,50.891324 83.9987504,50.638324 83.8978207,50.416564 Z M84.1781319,51.925324 C84.0917467,52.168644 83.9599652,52.383804 83.7792615,52.570804 C83.6003207,52.757364 83.3728985,52.909604 83.0952319,53.025324 C82.8175652,53.140604 82.4878911,53.200004 82.1040059,53.200004 C81.7306985,53.200004 81.4063133,53.143684 81.1286467,53.033244 C80.85098,52.921484 80.6204726,52.773644 80.4388874,52.588404 C80.2568615,52.404044 80.1211133,52.188884 80.0312022,51.942924 C79.9395281,51.696524 79.8932504,51.438244 79.8932504,51.168084 C79.8932504,50.847324 79.9514281,50.560444 80.0660207,50.309204 C80.1801726,50.059284 80.33928,49.845004 80.539817,49.670324 C80.7407948,49.495204 80.9748281,49.362324 81.2432393,49.272124 C81.5112096,49.183244 81.7976911,49.137924 82.1040059,49.137924 C82.4107615,49.137924 82.6976837,49.183244 82.9660948,49.272124 C83.2336244,49.362324 83.4667763,49.495204 83.6651096,49.670324 C83.8643244,49.845004 84.0203467,50.059284 84.1349393,50.309204 C84.2495319,50.560444 84.3077096,50.847324 84.3077096,51.168084 L84.3077096,51.176444 C84.3077096,51.432084 84.2640763,51.680684 84.1781319,51.925324 Z" mask="url(#logo-mobile-b)"/>
    <polygon fill="#008EB3" points="85.694 53.114 85.952 53.114 85.952 47.839 85.694 47.839" mask="url(#logo-mobile-b)"/>
    <polygon stroke="#008EB3" stroke-width=".15" points="85.694 53.114 85.952 53.114 85.952 47.839 85.694 47.839" mask="url(#logo-mobile-b)"/>
    <polygon fill="#008EB3" points="73.421 53.114 73.68 53.114 73.68 49.222 73.421 49.222" mask="url(#logo-mobile-b)"/>
    <polygon stroke="#008EB3" stroke-width=".15" points="73.421 53.114 73.68 53.114 73.68 49.222 73.421 49.222" mask="url(#logo-mobile-b)"/>
    <polygon fill="#008EB3" points="70.292 53.114 70.551 53.114 70.551 49.222 70.292 49.222" mask="url(#logo-mobile-b)"/>
    <polygon stroke="#008EB3" stroke-width=".15" points="70.292 53.114 70.551 53.114 70.551 49.222 70.292 49.222" mask="url(#logo-mobile-b)"/>
    <polygon fill="#00BDED" points="0 44.227 .754 44.227 .754 15.368 0 15.368" mask="url(#logo-mobile-b)"/>
    <polygon fill="#F05A28" points="0 14.563 .754 14.563 .754 13.749 0 13.749" mask="url(#logo-mobile-b)"/>
    <polygon fill="#FEFEFE" points="4.274 44.227 4.274 28.289 14.004 42.456 14.004 28.923 14.758 28.923 14.758 44.861 5.028 30.694 5.028 44.227" mask="url(#logo-mobile-b)"/>
    <path fill="#FEFEFE" d="M18.7054337,41.647496 C19.4595411,43.133816 21.0686856,43.833416 22.8788078,43.833416 C25.4183559,43.833416 27.3540893,42.369096 27.3540893,40.291856 C27.3540893,38.454856 24.8899078,37.493456 22.8788078,36.880976 C20.6160448,36.203376 17.9010819,35.110416 17.9010819,32.858056 C17.9010819,30.387896 20.188967,28.660456 23.1304707,28.660456 C25.2425004,28.660456 27.1531115,29.491616 28.0077078,31.241056 L27.3038448,31.502856 C26.5492967,30.016096 24.9401522,29.316496 23.1304707,29.316496 C20.5909226,29.316496 18.6551893,30.781696 18.6551893,32.858056 C18.6551893,34.695056 21.1193707,35.656896 23.1304707,36.268936 C25.3932337,36.946536 28.1081967,38.039936 28.1081967,40.291856 C28.1081967,42.762016 25.8207522,44.489456 22.8788078,44.489456 C20.7416559,44.489456 18.856167,43.658296 18.0015707,41.909296 L18.7054337,41.647496 Z" mask="url(#logo-mobile-b)"/>
    <polygon fill="#00BDED" points="31.251 53.207 32.006 53.207 32.006 28.923 31.251 28.923" mask="url(#logo-mobile-b)"/>
    <path fill="#FEFEFE" d="M45.4810507,36.575044 C45.4810507,33.033484 42.8912581,29.491484 37.7121137,29.491484 C37.3599619,29.491484 36.6812211,29.513484 36.2788248,29.535484 L36.2788248,43.614604 C36.7063433,43.636604 37.3599619,43.636604 37.7121137,43.636604 C42.8912581,43.636604 45.4810507,40.116604 45.4810507,36.575044 M46.2351581,36.575044 C46.2351581,40.444844 43.3941433,44.292204 37.7121137,44.292204 C37.1589841,44.292204 36.1783359,44.270644 35.5247174,44.227084 L35.5247174,28.923004 C36.1783359,28.879444 37.1589841,28.835884 37.7121137,28.835884 C43.3941433,28.835884 46.2351581,32.683244 46.2351581,36.575044" mask="url(#logo-mobile-b)"/>
    <polygon fill="#FEFEFE" points="49.378 44.227 49.378 28.923 59.334 28.923 59.334 29.579 50.132 29.579 50.132 35.351 57.675 35.351 57.675 36.007 50.132 36.007 50.132 43.571 59.334 43.571 59.334 44.227" mask="url(#logo-mobile-b)"/>
    <path fill="#FEFEFE" d="M63.2303415 29.53544L63.2303415 38.36756C63.6327378 38.38956 64.0602563 38.41156 64.4124081 38.41156 69.5915526 38.41156 72.1809044 36.2032 72.1809044 33.97372 72.1809044 31.74336 69.5915526 29.51344 64.4124081 29.51344 64.0602563 29.51344 63.65786 29.51344 63.2303415 29.53544L63.2303415 29.53544zM62.4757933 44.22704L62.4757933 28.92296C63.1294119 28.8794 63.8592785 28.8574 64.4124081 28.8574 70.093997 28.8574 72.9354526 31.43712 72.9354526 33.97372 72.9354526 35.83184 71.4514785 37.66796 68.5099748 38.54312L73.3122859 44.02992 72.7089119 44.42372 67.7307452 38.73936C66.77566 38.95804 65.6442785 39.06716 64.4124081 39.06716 64.0346933 39.06716 63.65786 39.04516 63.2303415 39.02316L63.2303415 44.22704 62.4757933 44.22704zM76.6307552 41.647496C77.3848626 43.133816 78.994007 43.833416 80.8041293 43.833416 83.3432367 43.833416 85.27897 42.369096 85.27897 40.291856 85.27897 38.454856 82.8152293 37.493456 80.8041293 36.880976 78.5413663 36.203376 75.8264033 35.110416 75.8264033 32.858056 75.8264033 30.387896 78.1138478 28.660456 81.0553515 28.660456 83.1673811 28.660456 85.0779922 29.491616 85.9325885 31.241056L85.2291663 31.502856C84.4746181 30.016096 82.8654737 29.316496 81.0553515 29.316496 78.5158033 29.316496 76.5805107 30.781696 76.5805107 32.858056 76.5805107 34.695056 79.0446922 35.656896 81.0553515 36.268936 83.3185552 36.946536 86.0335181 38.039936 86.0335181 40.291856 86.0335181 42.762016 83.7460737 44.489456 80.8041293 44.489456 78.6669774 44.489456 76.7814885 43.658296 75.9264515 41.909296L76.6307552 41.647496z" mask="url(#logo-mobile-b)"/>
    <polygon fill="#F05A28" points="31.251 28.289 32.005 28.289 32.005 27.475 31.251 27.475" mask="url(#logo-mobile-b)"/>
    <polygon fill="#000" points="95.614 16.445 95.424 16.364 96.505 16.971" mask="url(#logo-mobile-b)"/>
    <polygon fill="#004A47" points="89.677 27.559 89.919 27.856 90.216 27.614 89.974 27.317" mask="url(#logo-mobile-b)"/>
    <polygon fill="#005563" points="91.522 29.109 91.198 28.713 90.801 29.036 91.125 29.433" mask="url(#logo-mobile-b)"/>
    <polygon fill="#00537E" points="88.346 28.08 87.866 28.317 88.103 28.796 88.583 28.559" mask="url(#logo-mobile-b)"/>
    <polygon fill="#00537E" points="88.078 26.418 87.85 26.902 88.335 27.128 88.561 26.645" mask="url(#logo-mobile-b)"/>
    <polygon fill="#0D71B9" points="89.797 25.236 89.013 25.423 89.2 26.207 89.984 26.019" mask="url(#logo-mobile-b)"/>
    <polygon fill="#2873BA" points="91.206 26.702 91.758 25.996 91.05 25.445 90.499 26.152" mask="url(#logo-mobile-b)"/>
    <polygon fill="#005CA7" points="92.196 27.885 92.188 27.239 91.54 27.245 91.547 27.893" mask="url(#logo-mobile-b)"/>
    <polygon fill="#002433" points="92.196 30.541 92.357 30.739 92.556 30.578 92.394 30.38" mask="url(#logo-mobile-b)"/>
    <polygon fill="#005539" points="86.323 27.405 85.879 27.409 85.884 27.853 86.329 27.848" mask="url(#logo-mobile-b)"/>
    <polygon fill="#0B6A56" points="86.822 25.831 86.336 25.605 86.111 26.088 86.594 26.316" mask="url(#logo-mobile-b)"/>
    <polygon fill="#005331" points="87.846 24.647 87.55 24.285 87.188 24.581 87.484 24.942" mask="url(#logo-mobile-b)"/>
    <polygon fill="#29783B" points="89.436 24.092 89.286 23.47 88.664 23.619 88.814 24.241" mask="url(#logo-mobile-b)"/>
    <polygon fill="#29783B" points="91.005 24.217 91.142 23.592 90.516 23.457 90.38 24.081" mask="url(#logo-mobile-b)"/>
    <polygon fill="#1F7ABF" points="92.386 25.178 92.928 24.484 92.233 23.943 91.69 24.637" mask="url(#logo-mobile-b)"/>
    <polygon fill="#3068B2" points="94.001 26.09 93.597 25.274 92.78 25.678 93.184 26.493" mask="url(#logo-mobile-b)"/>
    <polygon fill="#00A8B9" points="94.258 28.002 94.247 27.076 93.321 27.086 93.331 28.012" mask="url(#logo-mobile-b)"/>
    <polygon fill="#00A8B9" points="93.204 28.598 92.811 29.435 93.651 29.828 94.044 28.99" mask="url(#logo-mobile-b)"/>
    <polygon fill="#003C4C" points="93.314 32.018 93.562 32.321 93.866 32.075 93.618 31.77" mask="url(#logo-mobile-b)"/>
    <polygon fill="#002C40" points="92.194 32.725 91.916 32.837 92.029 33.117 92.309 33.003" mask="url(#logo-mobile-b)"/>
    <polygon fill="#35604A" points="84.535 27.187 84.632 26.493 83.939 26.397 83.842 27.09" mask="url(#logo-mobile-b)"/>
    <polygon fill="#2D5E2E" points="84.847 25.482 85.06 25.025 84.603 24.812 84.39 25.268" mask="url(#logo-mobile-b)"/>
    <polygon fill="#2D5E2E" points="86.034 23.702 85.66 23.363 85.321 23.736 85.695 24.074" mask="url(#logo-mobile-b)"/>
    <polygon fill="#1875A7" points="86.866 23.196 87.572 22.778 87.153 22.073 86.447 22.49" mask="url(#logo-mobile-b)"/>
    <polygon fill="#326EB6" points="88.972 21.387 87.997 21.621 88.231 22.593 89.206 22.359" mask="url(#logo-mobile-b)"/>
    <polygon fill="#4EC6E1" points="89.598 22.472 90.944 22.558 91.03 21.214 89.684 21.128" mask="url(#logo-mobile-b)"/>
    <polygon fill="#5290CC" points="92.834 21.829 91.615 21.367 91.153 22.584 92.371 23.045" mask="url(#logo-mobile-b)"/>
    <polygon fill="#16A74A" points="93.556 23.576 94.02 22.983 93.425 22.52 92.963 23.113" mask="url(#logo-mobile-b)"/>
    <polygon fill="#3D81C3" points="95.419 24.424 94.806 23.548 93.928 24.16 94.542 25.036" mask="url(#logo-mobile-b)"/>
    <polygon fill="#005652" points="95.152 25.684 95.29 26.114 95.72 25.975 95.583 25.546" mask="url(#logo-mobile-b)"/>
    <polygon fill="#0CA2AC" points="96.191 27.992 96.18 27.044 95.232 27.055 95.242 28.002" mask="url(#logo-mobile-b)"/>
    <polygon fill="#004461" points="95.327 28.951 95.202 29.369 95.621 29.493 95.745 29.076" mask="url(#logo-mobile-b)"/>
    <polygon fill="#0E719B" points="95.231 30.679 94.648 30.291 94.26 30.873 94.843 31.261" mask="url(#logo-mobile-b)"/>
    <polygon fill="#09A48E" points="95.367 33.59 94.861 32.972 94.243 33.476 94.748 34.094" mask="url(#logo-mobile-b)"/>
    <polygon fill="#535E2C" points="82.688 26.355 82.829 25.708 82.18 25.568 82.04 26.215" mask="url(#logo-mobile-b)"/>
    <polygon fill="#415224" points="83.094 24.633 83.285 24.225 82.876 24.033 82.684 24.442" mask="url(#logo-mobile-b)"/>
    <polygon fill="#545B25" points="84.323 22.814 83.83 22.43 83.446 22.923 83.939 23.307" mask="url(#logo-mobile-b)"/>
    <polygon fill="#43664A" points="85.639 21.696 85.144 21.09 84.537 21.585 85.031 22.191" mask="url(#logo-mobile-b)"/>
    <polygon fill="#707942" points="86.338 21.294 87.121 20.908 86.733 20.125 85.95 20.513" mask="url(#logo-mobile-b)"/>
    <polygon fill="#9D9F33" points="88.512 19.54 87.568 19.765 87.794 20.709 88.739 20.483" mask="url(#logo-mobile-b)"/>
    <polygon fill="#9D9F33" points="90.342 19.423 89.37 19.433 89.381 20.404 90.353 20.393" mask="url(#logo-mobile-b)"/>
    <polygon fill="#9CDAEB" points="92.407 20.421 92.627 19.41 90.896 19.036 90.522 20.764 92.251 21.138 92.262 21.092 92.123 21.028" mask="url(#logo-mobile-b)"/>
    <polygon fill="#79CFE7" points="94.287 20.245 92.813 19.556 92.407 20.421 92.123 21.028 92.261 21.092 93.597 21.717" mask="url(#logo-mobile-b)"/>
    <polygon fill="#24A6DE" points="94.766 22.29 95.429 21.441 94.579 20.78 93.916 21.628" mask="url(#logo-mobile-b)"/>
    <polygon fill="#22C3F3" points="95.81 23.652 96.82 22.829 95.996 21.82 94.986 22.643" mask="url(#logo-mobile-b)"/>
    <polygon fill="#22C3F3" points="97.708 24.476 97.13 23.309 95.961 23.887 96.54 25.052" mask="url(#logo-mobile-b)"/>
    <polygon fill="#005652" points="97.148 25.63 97.254 26.068 97.694 25.963 97.588 25.524" mask="url(#logo-mobile-b)"/>
    <polygon fill="#29C4F3" points="98.288 26.832 96.962 26.847 96.977 28.171 98.303 28.156" mask="url(#logo-mobile-b)"/>
    <polygon fill="#13909D" points="97.785 29.717 97.965 28.886 97.133 28.707 96.952 29.537" mask="url(#logo-mobile-b)"/>
    <polygon fill="#13909D" points="97.114 31.404 97.474 30.635 96.703 30.274 96.342 31.044" mask="url(#logo-mobile-b)"/>
    <polygon fill="#1398A9" points="96.611 32.23 95.934 31.703 95.405 32.38 96.084 32.907" mask="url(#logo-mobile-b)"/>
    <polygon fill="#00605F" points="96.391 35.057 96.057 34.649 95.648 34.982 95.982 35.39" mask="url(#logo-mobile-b)"/>
    <polygon fill="#3A3213" points="80.523 24.907 80.426 25.27 80.791 25.367 80.887 25.003" mask="url(#logo-mobile-b)"/>
    <polygon fill="#3E3914" points="81.345 23.795 81.52 23.42 81.145 23.245 80.969 23.62" mask="url(#logo-mobile-b)"/>
    <polygon fill="#544717" points="82.49 21.97 82.047 21.656 81.733 22.098 82.176 22.412" mask="url(#logo-mobile-b)"/>
    <polygon fill="#544717" points="82.847 20.722 83.226 21.11 83.614 20.732 83.235 20.344" mask="url(#logo-mobile-b)"/>
    <polygon fill="#71591D" points="85.036 19.731 84.656 19.17 84.094 19.549 84.474 20.11" mask="url(#logo-mobile-b)"/>
    <polygon fill="#897024" points="85.857 19.364 86.63 19.024 86.289 18.253 85.517 18.593" mask="url(#logo-mobile-b)"/>
    <polygon fill="#EE8B24" points="88.14 17.552 86.997 17.825 87.271 18.966 88.414 18.693" mask="url(#logo-mobile-b)"/>
    <polygon fill="#FABD9E" points="90.31 17.776 90.269 17.05 88.448 17.152 88.55 18.969 90.371 18.867 90.369 18.83 90.181 18.806" mask="url(#logo-mobile-b)"/>
    <polygon fill="#F9B28F" points="92.081 17.329 90.391 17.119 90.309 17.776 90.181 18.806 90.369 18.83 91.71 18.996 91.981 18.13" mask="url(#logo-mobile-b)"/>
    <polygon fill="#F9B28F" points="93.671 18.659 93.924 17.852 92.233 17.324 91.981 18.13 91.71 18.996 91.705 19.011 93.395 19.539 93.401 19.524 93.257 19.448" mask="url(#logo-mobile-b)"/>
    <polygon fill="#88D4EE" points="95.121 19.559 95.555 18.732 94.047 17.943 93.671 18.659 93.257 19.449 93.401 19.524 94.653 20.179 94.643 20.172" mask="url(#logo-mobile-b)"/>
    <polygon fill="#8ED5E9" points="95.121 19.559 94.643 20.172 94.653 20.179 96.004 21.231 97.065 19.872 95.704 18.813" mask="url(#logo-mobile-b)"/>
    <polygon fill="#4095D1" points="97.156 20.416 96.33 21.152 97.068 21.977 97.894 21.241" mask="url(#logo-mobile-b)"/>
    <polygon fill="#00B5B6" points="98.782 22.73 98.294 21.934 97.498 22.422 97.985 23.217" mask="url(#logo-mobile-b)"/>
    <polygon fill="#2578BD" points="98.329 23.864 98.651 24.691 99.479 24.37 99.158 23.543" mask="url(#logo-mobile-b)"/>
    <polygon fill="#4BC6E8" points="98.834 26.576 100.188 26.315 99.927 24.964 98.573 25.225" mask="url(#logo-mobile-b)"/>
    <polygon fill="#09BDEF" points="98.984 28.062 100.137 28.05 100.124 26.899 98.972 26.912" mask="url(#logo-mobile-b)"/>
    <polygon fill="#003844" points="99.21 29.343 99.567 29.403 99.628 29.048 99.271 28.987" mask="url(#logo-mobile-b)"/>
    <polygon fill="#004360" points="98.85 30.583 98.704 30.987 99.107 31.132 99.254 30.729" mask="url(#logo-mobile-b)"/>
    <polygon fill="#004360" points="98.326 32.708 98.542 32.338 98.171 32.122 97.955 32.493" mask="url(#logo-mobile-b)"/>
    <polygon fill="#003446" points="97.232 33.584 97.018 33.836 97.269 34.051 97.485 33.799" mask="url(#logo-mobile-b)"/>
    <polygon fill="#0B2E4D" points="97.462 36.529 97.258 36.279 97.007 36.483 97.211 36.733" mask="url(#logo-mobile-b)"/>
    <polygon fill="#004459" points="95.527 37.416 95.746 37.785 96.115 37.566 95.896 37.197" mask="url(#logo-mobile-b)"/>
    <polygon fill="#5D551F" points="79.08 24.661 79.238 24.128 78.703 23.97 78.546 24.503" mask="url(#logo-mobile-b)"/>
    <polygon fill="#4B3911" points="79.618 23.022 79.82 22.593 79.389 22.392 79.189 22.821" mask="url(#logo-mobile-b)"/>
    <polygon fill="#553C10" points="80.709 21.136 80.277 20.848 79.988 21.28 80.421 21.568" mask="url(#logo-mobile-b)"/>
    <polygon fill="#AB7A26" points="82.037 19.821 81.378 19.224 80.781 19.881 81.439 20.478" mask="url(#logo-mobile-b)"/>
    <polygon fill="#6D4616" points="83.104 18.712 82.704 18.222 82.213 18.622 82.614 19.111" mask="url(#logo-mobile-b)"/>
    <polygon fill="#7A4F1B" points="84.552 17.805 84.194 17.203 83.592 17.559 83.949 18.161" mask="url(#logo-mobile-b)"/>
    <polygon fill="#F58A2F" points="86.46 17.275 85.973 16.076 84.772 16.562 85.259 17.761" mask="url(#logo-mobile-b)"/>
    <polygon fill="#F58A2F" points="87.736 15.614 86.476 15.915 86.778 17.174 88.039 16.871" mask="url(#logo-mobile-b)"/>
    <polygon fill="#F05A28" points="87.972 15.29 88.128 17.103 89.667 16.971 89.784 15.134" mask="url(#logo-mobile-b)"/>
    <polygon fill="#DFEBCF" points="91.651 15.204 89.787 15.085 89.784 15.133 89.667 16.971 89.665 16.992 91.386 17.102 91.246 17.071" mask="url(#logo-mobile-b)"/>
    <polygon fill="#DEDFDE" points="93.488 15.599 93.528 15.613 93.531 15.602 91.653 15.197 91.651 15.204 91.246 17.071 91.386 17.102 93.009 17.453 92.811 17.377" mask="url(#logo-mobile-b)"/>
    <polygon fill="#E8E3CD" points="95.226 16.279 94.795 16.094 93.528 15.614 93.488 15.599 92.811 17.378 93.009 17.453 94.443 17.996 94.303 17.918" mask="url(#logo-mobile-b)"/>
    <polygon fill="#E8E3CD" points="95.424 16.364 95.226 16.279 94.303 17.918 94.443 17.996 95.965 18.851 96.895 17.201 96.505 16.971" mask="url(#logo-mobile-b)"/>
    <polygon fill="#74BF43" points="96.19 18.613 97.14 19.353 97.881 18.404 96.931 17.664" mask="url(#logo-mobile-b)"/>
    <polygon fill="#40ABE1" points="98.335 18.766 97.411 19.641 98.288 20.564 99.211 19.688" mask="url(#logo-mobile-b)"/>
    <polygon fill="#377CBF" points="98.703 20.874 99.277 21.695 100.098 21.121 99.525 20.302" mask="url(#logo-mobile-b)"/>
    <polygon fill="#0071B8" points="99.764 22.305 100.105 22.992 100.794 22.652 100.452 21.964" mask="url(#logo-mobile-b)"/>
    <polygon fill="#14929E" points="100.405 23.805 100.658 24.593 101.447 24.34 101.194 23.552" mask="url(#logo-mobile-b)"/>
    <polygon fill="#128796" points="101.637 25.318 100.9 25.438 101.02 26.173 101.756 26.054" mask="url(#logo-mobile-b)"/>
    <polygon fill="#128796" points="101.099 27.091 101.107 27.836 101.852 27.828 101.844 27.083" mask="url(#logo-mobile-b)"/>
    <polygon fill="#1EC3F3" points="100.652 29.715 101.905 29.89 102.08 28.637 100.827 28.463" mask="url(#logo-mobile-b)"/>
    <polygon fill="#00B1DA" points="101.675 30.493 100.635 30.185 100.326 31.223 101.367 31.531" mask="url(#logo-mobile-b)"/>
    <polygon fill="#43B874" points="101.081 32.216 100.139 31.777 99.697 32.716 100.639 33.156" mask="url(#logo-mobile-b)"/>
    <polygon fill="#43B874" points="100.265 33.821 99.399 33.246 98.824 34.11 99.689 34.685" mask="url(#logo-mobile-b)"/>
    <polygon fill="#087271" points="98.915 35.301 98.464 34.892 98.054 35.344 98.506 35.752" mask="url(#logo-mobile-b)"/>
    <polygon fill="#3F3011" points="77.007 23.25 76.888 23.622 77.261 23.742 77.38 23.369" mask="url(#logo-mobile-b)"/>
    <polygon fill="#49310F" points="77.468 22 77.87 22.189 78.059 21.787 77.656 21.599" mask="url(#logo-mobile-b)"/>
    <polygon fill="#55350F" points="78.941 20.308 78.515 20.038 78.244 20.463 78.67 20.733" mask="url(#logo-mobile-b)"/>
    <polygon fill="#55350F" points="79.641 19.35 79.964 18.962 79.576 18.64 79.253 19.027" mask="url(#logo-mobile-b)"/>
    <polygon fill="#965D22" points="80.245 17.725 80.773 18.293 81.342 17.766 80.813 17.198" mask="url(#logo-mobile-b)"/>
    <polygon fill="#88581E" points="82.213 16.159 81.631 16.575 82.046 17.157 82.628 16.741" mask="url(#logo-mobile-b)"/>
    <polygon fill="#995622" points="84.118 15.908 83.752 15.225 83.068 15.591 83.435 16.274" mask="url(#logo-mobile-b)"/>
    <polygon fill="#F4832E" points="84.36 14.676 84.802 15.837 85.964 15.395 85.522 14.235" mask="url(#logo-mobile-b)"/>
    <polygon fill="#F79926" points="87.626 15.028 87.31 13.712 85.991 14.028 86.308 15.344" mask="url(#logo-mobile-b)"/>
    <polygon fill="#E49825" points="89.2 14.792 89.066 13.543 87.814 13.677 87.949 14.927" mask="url(#logo-mobile-b)"/>
    <polygon fill="#E49825" points="90.845 14.802 90.872 13.546 89.614 13.52 89.587 14.775" mask="url(#logo-mobile-b)"/>
    <polygon fill="#FBD2C0" points="92.866 14.402 92.997 13.532 91.171 13.258 90.897 15.081 92.722 15.355 92.737 15.258 92.631 15.227" mask="url(#logo-mobile-b)"/>
    <polygon fill="#F58A2F" points="94.632 14.115 93.074 13.672 92.866 14.402 92.631 15.227 92.737 15.258 94.046 15.63 94.504 14.564" mask="url(#logo-mobile-b)"/>
    <polygon fill="#E2E3D6" points="96.517 14.745 96.484 14.731 96.515 14.749" mask="url(#logo-mobile-b)"/>
    <polygon fill="#E2E3D6" points="94.504 14.564 94.046 15.63 93.994 15.75 94.795 16.094 95.226 16.279 95.424 16.364 95.614 16.446 95.477 16.364 96.452 14.717 94.755 13.989 94.752 13.988" mask="url(#logo-mobile-b)"/>
    <polygon fill="#DADFDF" points="95.614 16.445 96.505 16.971 96.894 17.201 97.13 17.34 97.153 17.303 96.958 17.151 98.061 15.739 98.073 15.749 98.108 15.689 96.515 14.749 96.484 14.731 96.454 14.713 96.452 14.717 95.477 16.364" mask="url(#logo-mobile-b)"/>
    <polygon fill="#B4DFE0" points="96.958 17.151 97.153 17.303 98.373 18.252 99.475 16.84 98.073 15.748 98.061 15.739" mask="url(#logo-mobile-b)"/>
    <polygon fill="#2197D4" points="98.786 18.135 99.502 18.856 100.225 18.142 99.509 17.42" mask="url(#logo-mobile-b)"/>
    <polygon fill="#3E7DC0" points="99.85 19.331 100.532 20.222 101.424 19.542 100.743 18.65" mask="url(#logo-mobile-b)"/>
    <polygon fill="#005159" points="101.274 20.783 101.508 21.186 101.913 20.953 101.679 20.549" mask="url(#logo-mobile-b)"/>
    <polygon fill="#005159" points="102.053 22.285 102.233 22.715 102.664 22.535 102.484 22.105" mask="url(#logo-mobile-b)"/>
    <polygon fill="#4289C8" points="102.248 23.655 102.537 24.707 103.591 24.419 103.302 23.367" mask="url(#logo-mobile-b)"/>
    <polygon fill="#31C1DC" points="102.604 25.223 102.767 26.385 103.931 26.222 103.768 25.06" mask="url(#logo-mobile-b)"/>
    <polygon fill="#0F7B87" points="103.736 27.092 103.051 27.1 103.058 27.785 103.744 27.777" mask="url(#logo-mobile-b)"/>
    <polygon fill="#37C4ED" points="104.042 28.577 102.725 28.422 102.57 29.737 103.887 29.892" mask="url(#logo-mobile-b)"/>
    <polygon fill="#005CA5" points="103.22 31.224 103.37 30.625 102.77 30.475 102.62 31.074" mask="url(#logo-mobile-b)"/>
    <polygon fill="#003753" points="102.709 32.384 102.365 32.25 102.231 32.593 102.574 32.727" mask="url(#logo-mobile-b)"/>
    <polygon fill="#003B54" points="101.662 33.781 101.474 34.124 101.816 34.312 102.005 33.97" mask="url(#logo-mobile-b)"/>
    <polygon fill="#003B54" points="100.858 35.773 101.089 35.456 100.772 35.226 100.541 35.543" mask="url(#logo-mobile-b)"/>
    <polygon fill="#128572" points="100.239 36.807 99.698 36.295 99.185 36.836 99.726 37.348" mask="url(#logo-mobile-b)"/>
    <polygon fill="#00233B" points="99.854 39.499 99.683 39.289 99.472 39.46 99.643 39.67" mask="url(#logo-mobile-b)"/>
    <polygon fill="#2D2812" points="74.821 22.019 74.514 21.988 74.482 22.294 74.79 22.326" mask="url(#logo-mobile-b)"/>
    <polygon fill="#422A0F" points="77.12 19.498 76.773 19.286 76.56 19.632 76.908 19.844" mask="url(#logo-mobile-b)"/>
    <polygon fill="#4F310F" points="77.864 18.488 78.161 18.109 77.78 17.813 77.484 18.192" mask="url(#logo-mobile-b)"/>
    <polygon fill="#53270C" points="78.96 17.168 79.271 16.851 78.954 16.541 78.642 16.858" mask="url(#logo-mobile-b)"/>
    <polygon fill="#9F5423" points="80.776 15.749 80.286 15.149 79.683 15.639 80.174 16.239" mask="url(#logo-mobile-b)"/>
    <polygon fill="#CD5027" points="82.255 14.818 81.761 14.053 80.994 14.547 81.488 15.312" mask="url(#logo-mobile-b)"/>
    <polygon fill="#F48235" points="83.419 12.962 82.251 13.539 82.829 14.705 83.997 14.128" mask="url(#logo-mobile-b)"/>
    <polygon fill="#F48235" points="85.1 12.324 83.875 12.767 84.319 13.991 85.544 13.547" mask="url(#logo-mobile-b)"/>
    <polygon fill="#F16A21" points="87.019 13.065 86.764 12.005 85.702 12.259 85.957 13.32" mask="url(#logo-mobile-b)"/>
    <polygon fill="#FAAE2C" points="87.428 13.161 88.864 12.984 88.686 11.55 87.25 11.728" mask="url(#logo-mobile-b)"/>
    <polygon fill="#EDB428" points="89.038 11.519 89.054 12.978 90.516 12.961 90.5 11.502" mask="url(#logo-mobile-b)"/>
    <polygon fill="#F68C1E" points="92.28 13.014 92.428 11.561 90.742 11.391 90.57 13.074 92.257 13.245 92.261 13.211 92.239 13.206" mask="url(#logo-mobile-b)"/>
    <polygon fill="#F58A2F" points="94.165 11.968 92.582 11.626 92.281 13.014 92.239 13.206 92.261 13.211 93.719 13.527 94.021 12.634" mask="url(#logo-mobile-b)"/>
    <polygon fill="#FBD2C0" points="95.536 13.961 96.043 12.462 94.28 11.868 94.021 12.634 93.719 13.526 93.684 13.628 94.752 13.988 94.756 13.989 95.448 14.223 95.51 14.038 95.502 14.035" mask="url(#logo-mobile-b)"/>
    <polygon fill="#F58A2F" points="97.426 13.339 96.115 12.727 95.536 13.961 95.502 14.035 95.51 14.038 96.812 14.647" mask="url(#logo-mobile-b)"/>
    <polygon fill="#F68C1E" points="98.908 14.729 99.23 14.203 97.682 13.256 96.732 14.802 98.281 15.749 98.306 15.71 98.203 15.63" mask="url(#logo-mobile-b)"/>
    <polygon fill="#BCA2CD" points="98.908 14.729 98.203 15.63 98.306 15.71 99.547 16.676 100.593 15.335 99.25 14.29" mask="url(#logo-mobile-b)"/>
    <polygon fill="#227540" points="100.692 16.142 100.223 16.62 100.701 17.089 101.171 16.61" mask="url(#logo-mobile-b)"/>
    <polygon fill="#3168B2" points="101.17 17.816 101.789 18.574 102.548 17.956 101.929 17.198" mask="url(#logo-mobile-b)"/>
    <polygon fill="#3168B2" points="102.195 19.132 102.725 19.954 103.549 19.425 103.019 18.603" mask="url(#logo-mobile-b)"/>
    <polygon fill="#1B62AE" points="103.228 20.608 103.556 21.269 104.218 20.942 103.89 20.282" mask="url(#logo-mobile-b)"/>
    <polygon fill="#3475BB" points="103.783 22.07 104.111 22.975 105.018 22.647 104.689 21.741" mask="url(#logo-mobile-b)"/>
    <polygon fill="#00559F" points="104.568 23.806 104.695 24.333 105.223 24.207 105.096 23.68" mask="url(#logo-mobile-b)"/>
    <polygon fill="#00A8D5" points="104.623 25.248 104.751 26.279 105.783 26.151 105.655 25.121" mask="url(#logo-mobile-b)"/>
    <polygon fill="#0E416A" points="105.528 27.204 105.105 27.209 105.111 27.631 105.532 27.625" mask="url(#logo-mobile-b)"/>
    <polygon fill="#37C4ED" points="104.649 28.411 104.514 29.728 105.834 29.862 105.967 28.545" mask="url(#logo-mobile-b)"/>
    <polygon fill="#004C56" points="105.24 30.664 104.799 30.568 104.702 31.009 105.144 31.105" mask="url(#logo-mobile-b)"/>
    <polygon fill="#47BA86" points="104.858 33.192 105.209 32.151 104.167 31.799 103.815 32.84" mask="url(#logo-mobile-b)"/>
    <polygon fill="#20B46E" points="103.284 34.305 104.083 34.678 104.456 33.881 103.658 33.507" mask="url(#logo-mobile-b)"/>
    <polygon fill="#004554" points="102.982 35.313 102.757 35.679 103.124 35.903 103.349 35.538" mask="url(#logo-mobile-b)"/>
    <polygon fill="#004554" points="101.769 37.06 102.108 37.323 102.373 36.985 102.034 36.721" mask="url(#logo-mobile-b)"/>
    <polygon fill="#00324B" points="101.171 38.316 100.934 38.084 100.702 38.321 100.939 38.552" mask="url(#logo-mobile-b)"/>
    <polygon fill="#643C12" points="72.593 21.024 72.52 21.546 73.042 21.619 73.115 21.098" mask="url(#logo-mobile-b)"/>
    <polygon fill="#4B230D" points="74.185 19.997 74.012 20.365 74.381 20.537 74.553 20.169" mask="url(#logo-mobile-b)"/>
    <polygon fill="#60220C" points="75.008 18.422 74.765 18.829 75.173 19.071 75.416 18.664" mask="url(#logo-mobile-b)"/>
    <polygon fill="#762915" points="76.103 17.698 76.431 17.256 75.989 16.929 75.661 17.371" mask="url(#logo-mobile-b)"/>
    <polygon fill="#762915" points="77.528 15.964 77.121 15.595 76.751 16.002 77.158 16.371" mask="url(#logo-mobile-b)"/>
    <polygon fill="#451E0B" points="79.657 13.937 79.955 13.719 79.736 13.422 79.438 13.64" mask="url(#logo-mobile-b)"/>
    <polygon fill="#B23124" points="81.261 12.235 80.639 12.603 81.008 13.225 81.63 12.857" mask="url(#logo-mobile-b)"/>
    <polygon fill="#C93F27" points="82.861 11.378 82.109 11.727 82.458 12.478 83.21 12.129" mask="url(#logo-mobile-b)"/>
    <polygon fill="#85341A" points="84.661 11.476 84.452 10.879 83.855 11.087 84.063 11.684" mask="url(#logo-mobile-b)"/>
    <polygon fill="#DF4225" points="86.244 10.258 85.372 10.466 85.581 11.337 86.453 11.128" mask="url(#logo-mobile-b)"/>
    <polygon fill="#F2AC27" points="88.417 11.094 88.223 9.67 86.797 9.865 86.992 11.288" mask="url(#logo-mobile-b)"/>
    <polygon fill="#F2AC27" points="90.07 11.024 90.018 9.588 88.58 9.64 88.631 11.076" mask="url(#logo-mobile-b)"/>
    <polygon fill="#F05A28" points="91.917 9.593 90.285 9.489 90.181 11.118 91.777 11.22 91.835 10.866" mask="url(#logo-mobile-b)"/>
    <polygon fill="#F05A28" points="92.051 9.561 91.835 10.866 91.777 11.22 91.77 11.26 93.431 11.534 93.389 11.523 93.612 10.699 93.753 9.841" mask="url(#logo-mobile-b)"/>
    <polygon fill="#F05A28" points="93.431 11.534 95.056 11.971 95.504 10.308 93.838 9.859 93.612 10.699 93.389 11.523" mask="url(#logo-mobile-b)"/>
    <polygon fill="#F8A23B" points="95.665 10.51 95.149 11.866 96.509 12.382 97.025 11.025" mask="url(#logo-mobile-b)"/>
    <polygon fill="#F89C2A" points="97.389 11.309 96.838 12.413 97.944 12.964 98.495 11.86" mask="url(#logo-mobile-b)"/>
    <polygon fill="#EADFC0" points="98.877 11.694 97.88 13.272 99.461 14.267 100.458 12.688" mask="url(#logo-mobile-b)"/>
    <polygon fill="#565F28" points="100.528 13.547 100.157 14.022 100.632 14.392 101.003 13.917" mask="url(#logo-mobile-b)"/>
    <polygon fill="#445CA9" points="101.864 14.217 101.006 15.115 101.906 15.972 102.764 15.074" mask="url(#logo-mobile-b)"/>
    <polygon fill="#2861AD" points="103.12 15.717 102.445 16.295 103.024 16.969 103.698 16.391" mask="url(#logo-mobile-b)"/>
    <polygon fill="#004C26" points="103.86 17.656 104.08 17.97 104.395 17.751 104.175 17.436" mask="url(#logo-mobile-b)"/>
    <polygon fill="#185DAB" points="104.587 19.033 104.914 19.618 105.499 19.291 105.172 18.707" mask="url(#logo-mobile-b)"/>
    <polygon fill="#004656" points="105.697 20.987 106.091 20.816 105.92 20.423 105.526 20.594" mask="url(#logo-mobile-b)"/>
    <polygon fill="#1E56A6" points="105.999 22.101 106.201 22.732 106.833 22.53 106.631 21.899" mask="url(#logo-mobile-b)"/>
    <polygon fill="#066879" points="106.48 23.733 106.613 24.358 107.24 24.225 107.106 23.599" mask="url(#logo-mobile-b)"/>
    <polygon fill="#00A8D5" points="106.561 25.22 106.676 26.251 107.71 26.136 107.595 25.105" mask="url(#logo-mobile-b)"/>
    <polygon fill="#183C67" points="107.039 27.199 107.043 27.598 107.442 27.593 107.438 27.195" mask="url(#logo-mobile-b)"/>
    <polygon fill="#219DD8" points="106.605 29.59 107.648 29.683 107.741 28.641 106.698 28.549" mask="url(#logo-mobile-b)"/>
    <polygon fill="#219DD8" points="106.519 30.209 106.323 31.237 107.352 31.432 107.548 30.405" mask="url(#logo-mobile-b)"/>
    <polygon fill="#004360" points="106.262 32.638 106.674 32.76 106.795 32.349 106.383 32.226" mask="url(#logo-mobile-b)"/>
    <polygon fill="#00675F" points="105.807 33.759 105.597 34.267 106.107 34.475 106.315 33.967" mask="url(#logo-mobile-b)"/>
    <polygon fill="#129974" points="104.706 35.835 105.385 36.195 105.745 35.517 105.067 35.158" mask="url(#logo-mobile-b)"/>
    <polygon fill="#5A300F" points="70.799 20.203 70.716 20.692 71.206 20.776 71.288 20.287" mask="url(#logo-mobile-b)"/>
    <polygon fill="#4C1A0A" points="74.321 16.744 74.539 16.438 74.232 16.22 74.014 16.527" mask="url(#logo-mobile-b)"/>
    <polygon fill="#661E0E" points="75.671 15.098 75.31 14.79 75.001 15.151 75.363 15.459" mask="url(#logo-mobile-b)"/>
    <polygon fill="#771D14" points="78.166 12.758 77.837 12.356 77.435 12.684 77.763 13.085" mask="url(#logo-mobile-b)"/>
    <polygon fill="#7A2115" points="78.807 11.62 79.111 12.07 79.561 11.766 79.257 11.317" mask="url(#logo-mobile-b)"/>
    <polygon fill="#4B200C" points="80.925 10.872 80.733 10.523 80.383 10.716 80.576 11.065" mask="url(#logo-mobile-b)"/>
    <polygon fill="#4B200C" points="82.302 9.767 81.936 9.928 82.097 10.293 82.463 10.132" mask="url(#logo-mobile-b)"/>
    <polygon fill="#B22924" points="84.027 8.965 83.363 9.188 83.587 9.851 84.251 9.627" mask="url(#logo-mobile-b)"/>
    <polygon fill="#ED3823" points="85.991 9.254 85.787 8.405 84.937 8.609 85.141 9.458" mask="url(#logo-mobile-b)"/>
    <polygon fill="#EF5126" points="87.73 9.031 87.583 8.034 86.584 8.18 86.731 9.178" mask="url(#logo-mobile-b)"/>
    <polygon fill="#93341E" points="89.222 8.744 89.185 8.083 88.523 8.12 88.56 8.781" mask="url(#logo-mobile-b)"/>
    <polygon fill="#B65726" points="91.022 8.868 91.052 7.988 90.171 7.959 90.141 8.838" mask="url(#logo-mobile-b)"/>
    <polygon fill="#FCB92E" points="91.674 7.726 91.492 9.189 92.957 9.371 93.139 7.908" mask="url(#logo-mobile-b)"/>
    <polygon fill="#784919" points="93.756 8.435 93.613 9.097 94.276 9.24 94.419 8.578" mask="url(#logo-mobile-b)"/>
    <polygon fill="#FED335" points="94.677 9.802 96.209 10.281 96.688 8.751 95.157 8.273" mask="url(#logo-mobile-b)"/>
    <polygon fill="#F58C4B" points="96.925 8.95 96.388 10.243 97.683 10.778 98.22 9.485" mask="url(#logo-mobile-b)"/>
    <polygon fill="#F27A6E" points="97.894 10.897 99.169 11.564 99.837 10.291 98.562 9.624" mask="url(#logo-mobile-b)"/>
    <polygon fill="#F05A28" points="100.14 10.467 99.361 11.675 100.571 12.453 101.35 11.246" mask="url(#logo-mobile-b)"/>
    <polygon fill="#72551B" points="101.706 12.013 101.317 12.511 101.817 12.9 102.206 12.402" mask="url(#logo-mobile-b)"/>
    <polygon fill="#355628" points="102.742 13.586 103.083 13.904 103.403 13.564 103.062 13.245" mask="url(#logo-mobile-b)"/>
    <polygon fill="#00518A" points="103.868 14.783 104.255 15.215 104.687 14.829 104.301 14.397" mask="url(#logo-mobile-b)"/>
    <polygon fill="#1E50A2" points="105.821 16.207 105.434 15.687 104.914 16.073 105.301 16.593" mask="url(#logo-mobile-b)"/>
    <polygon fill="#005E89" points="109.391 25.922 109.332 25.331 108.74 25.39 108.799 25.982" mask="url(#logo-mobile-b)"/>
    <polygon fill="#001D36" points="109.05 27.489 109.276 27.486 109.274 27.261 109.048 27.264" mask="url(#logo-mobile-b)"/>
    <polygon fill="#2686C7" points="108.671 28.59 108.597 29.528 109.536 29.601 109.61 28.663" mask="url(#logo-mobile-b)"/>
    <polygon fill="#003045" points="108.759 30.617 108.704 30.936 109.024 30.99 109.077 30.671" mask="url(#logo-mobile-b)"/>
    <polygon fill="#00253C" points="108.355 32.585 108.625 32.655 108.696 32.387 108.426 32.316" mask="url(#logo-mobile-b)"/>
    <polygon fill="#05705D" points="107.601 34.32 108.203 34.539 108.421 33.937 107.819 33.719" mask="url(#logo-mobile-b)"/>
    <polygon fill="#0FA263" points="107.153 35.174 106.805 35.917 107.549 36.264 107.897 35.521" mask="url(#logo-mobile-b)"/>
    <polygon fill="#005854" points="106.459 36.895 106.2 37.336 106.643 37.594 106.901 37.152" mask="url(#logo-mobile-b)"/>
    <polygon fill="#53B847" points="105.496 37.978 104.902 38.812 105.738 39.404 106.331 38.571" mask="url(#logo-mobile-b)"/>
    <polygon fill="#53B847" points="104.5 39.327 103.834 40.106 104.613 40.769 105.279 39.992" mask="url(#logo-mobile-b)"/>
    <polygon fill="#00485C" points="102.989 43.907 103.275 44.257 103.626 43.971 103.34 43.622" mask="url(#logo-mobile-b)"/>
    <polygon fill="#29170A" points="68.823 21.216 68.794 21.478 69.055 21.507 69.085 21.245" mask="url(#logo-mobile-b)"/>
    <polygon fill="#261409" points="69.298 19.806 69.346 19.562 69.103 19.514 69.054 19.758" mask="url(#logo-mobile-b)"/>
    <polygon fill="#5B0D0A" points="76.199 11.808 75.945 11.521 75.658 11.775 75.912 12.063" mask="url(#logo-mobile-b)"/>
    <polygon fill="#69120E" points="77.571 10.747 77.309 10.398 76.959 10.66 77.221 11.008" mask="url(#logo-mobile-b)"/>
    <polygon fill="#841618" points="79.038 9.809 78.766 9.375 78.332 9.647 78.605 10.081" mask="url(#logo-mobile-b)"/>
    <polygon fill="#3B0E08" points="80.117 9.074 80.384 8.935 80.245 8.668 79.978 8.807" mask="url(#logo-mobile-b)"/>
    <polygon fill="#BC2025" points="82.171 8.313 81.917 7.71 81.312 7.964 81.567 8.567" mask="url(#logo-mobile-b)"/>
    <polygon fill="#D71F26" points="83.823 7.771 83.592 7.07 82.891 7.3 83.121 8" mask="url(#logo-mobile-b)"/>
    <polygon fill="#EE3C23" points="85.35 6.522 84.471 6.732 84.681 7.61 85.561 7.4" mask="url(#logo-mobile-b)"/>
    <polygon fill="#EE3C23" points="87.224 7.11 87.085 6.218 86.191 6.356 86.33 7.248" mask="url(#logo-mobile-b)"/>
    <polygon fill="#EE4328" points="88.929 6.977 88.861 6.032 87.913 6.1 87.982 7.046" mask="url(#logo-mobile-b)"/>
    <polygon fill="#EF5125" points="89.648 5.98 89.639 6.98 90.641 6.989 90.65 5.989" mask="url(#logo-mobile-b)"/>
    <polygon fill="#F16630" points="91.338 5.937 91.232 7.099 92.395 7.205 92.501 6.043" mask="url(#logo-mobile-b)"/>
    <polygon fill="#F16630" points="94.052 7.472 94.252 6.323 93.101 6.123 92.901 7.271" mask="url(#logo-mobile-b)"/>
    <polygon fill="#C23C26" points="94.973 6.671 94.77 7.45 95.551 7.653 95.753 6.873" mask="url(#logo-mobile-b)"/>
    <polygon fill="#6E4316" points="96.721 7.269 96.518 7.852 97.101 8.055 97.305 7.472" mask="url(#logo-mobile-b)"/>
    <polygon fill="#583D10" points="98.377 7.938 98.157 8.433 98.653 8.653 98.873 8.158" mask="url(#logo-mobile-b)"/>
    <polygon fill="#583D10" points="100.429 8.948 99.953 8.689 99.693 9.165 100.17 9.424" mask="url(#logo-mobile-b)"/>
    <polygon fill="#EE4124" points="101.398 9.254 100.852 10.084 101.684 10.629 102.23 9.799" mask="url(#logo-mobile-b)"/>
    <polygon fill="#544B1A" points="102.583 10.988 102.987 11.303 103.303 10.899 102.898 10.585" mask="url(#logo-mobile-b)"/>
    <polygon fill="#3F3552" points="103.838 12.074 104.276 12.477 104.679 12.039 104.241 11.637" mask="url(#logo-mobile-b)"/>
    <polygon fill="#0A4672" points="106.935 14.626 106.637 14.246 106.257 14.543 106.554 14.922" mask="url(#logo-mobile-b)"/>
    <polygon fill="#1D3D6D" points="110.769 25.448 110.808 25.86 111.22 25.822 111.181 25.41" mask="url(#logo-mobile-b)"/>
    <polygon fill="#1970B8" points="110.665 28.652 110.61 29.441 111.399 29.496 111.454 28.708" mask="url(#logo-mobile-b)"/>
    <polygon fill="#002B3C" points="109.948 33.947 109.857 34.226 110.136 34.317 110.227 34.038" mask="url(#logo-mobile-b)"/>
    <polygon fill="#016463" points="109.066 35.898 109.595 36.12 109.816 35.592 109.287 35.371" mask="url(#logo-mobile-b)"/>
    <polygon fill="#0D8961" points="108.202 37.465 108.871 37.812 109.218 37.143 108.549 36.798" mask="url(#logo-mobile-b)"/>
    <polygon fill="#01304B" points="107.802 38.57 107.626 38.851 107.906 39.027 108.082 38.746" mask="url(#logo-mobile-b)"/>
    <polygon fill="#005853" points="107.232 40.168 106.828 39.865 106.526 40.27 106.93 40.572" mask="url(#logo-mobile-b)"/>
    <polygon fill="#005853" points="105.435 41.576 105.814 41.91 106.148 41.533 105.769 41.199" mask="url(#logo-mobile-b)"/>
    <polygon fill="#082C49" points="104.38 42.793 104.594 43.016 104.817 42.802 104.602 42.579" mask="url(#logo-mobile-b)"/>
    <polygon fill="#00665D" points="104.93 45.467 104.564 45.018 104.114 45.385 104.48 45.833" mask="url(#logo-mobile-b)"/>
    <polygon fill="#572E0F" points="66.902 20.255 66.836 20.732 67.313 20.799 67.38 20.321" mask="url(#logo-mobile-b)"/>
    <polygon fill="#660A0C" points="75.4 9.462 75.085 9.718 75.342 10.033 75.657 9.776" mask="url(#logo-mobile-b)"/>
    <polygon fill="#7F1416" points="77.078 8.768 76.806 8.38 76.416 8.651 76.688 9.039" mask="url(#logo-mobile-b)"/>
    <polygon fill="#6F0E10" points="77.908 7.704 78.122 8.066 78.486 7.851 78.271 7.489" mask="url(#logo-mobile-b)"/>
    <polygon fill="#A21D20" points="79.588 7.324 80.081 7.081 79.837 6.589 79.344 6.832" mask="url(#logo-mobile-b)"/>
    <polygon fill="#A21D20" points="81.437 5.893 80.928 6.1 81.134 6.608 81.644 6.402" mask="url(#logo-mobile-b)"/>
    <polygon fill="#741012" points="83.186 5.808 83.051 5.385 82.627 5.521 82.763 5.944" mask="url(#logo-mobile-b)"/>
    <polygon fill="#441309" points="84.69 5.001 84.368 5.078 84.445 5.4 84.767 5.323" mask="url(#logo-mobile-b)"/>
    <polygon fill="#ED3025" points="85.787 4.522 85.919 5.332 86.729 5.201 86.598 4.391" mask="url(#logo-mobile-b)"/>
    <polygon fill="#EE4129" points="87.46 4.222 87.541 5.159 88.479 5.078 88.399 4.142" mask="url(#logo-mobile-b)"/>
    <polygon fill="#EE4129" points="89.216 4.102 89.227 5.043 90.168 5.032 90.158 4.092" mask="url(#logo-mobile-b)"/>
    <polygon fill="#EE4727" points="90.965 4.101 90.904 5.062 91.867 5.123 91.928 4.162" mask="url(#logo-mobile-b)"/>
    <polygon fill="#DA3926" points="92.759 4.294 92.639 5.158 93.504 5.278 93.625 4.414" mask="url(#logo-mobile-b)"/>
    <polygon fill="#EF4E26" points="95.421 4.707 94.448 4.497 94.238 5.467 95.21 5.678" mask="url(#logo-mobile-b)"/>
    <polygon fill="#EF4E27" points="96.165 4.897 95.882 5.85 96.835 6.132 97.118 5.18" mask="url(#logo-mobile-b)"/>
    <polygon fill="#EF4C2A" points="97.844 5.42 97.487 6.355 98.424 6.71 98.781 5.775" mask="url(#logo-mobile-b)"/>
    <polygon fill="#9D3520" points="99.555 6.276 99.261 6.903 99.889 7.196 100.183 6.57" mask="url(#logo-mobile-b)"/>
    <polygon fill="#4F3C11" points="100.907 7.621 101.353 7.872 101.604 7.426 101.158 7.176" mask="url(#logo-mobile-b)"/>
    <polygon fill="#6B3D14" points="102.643 8.012 102.313 8.507 102.808 8.836 103.138 8.341" mask="url(#logo-mobile-b)"/>
    <polygon fill="#543A10" points="103.791 9.472 104.166 9.763 104.457 9.39 104.083 9.098" mask="url(#logo-mobile-b)"/>
    <polygon fill="#12497F" points="112.72 28.782 112.688 29.292 113.199 29.325 113.232 28.815" mask="url(#logo-mobile-b)"/>
    <polygon fill="#002F43" points="111.596 35.964 111.708 35.669 111.412 35.557 111.299 35.852" mask="url(#logo-mobile-b)"/>
    <polygon fill="#003B48" points="110.576 37.438 110.924 37.601 111.087 37.253 110.74 37.091" mask="url(#logo-mobile-b)"/>
    <polygon fill="#005E58" points="110.397 38.778 109.944 38.524 109.689 38.976 110.142 39.229" mask="url(#logo-mobile-b)"/>
    <polygon fill="#03233E" points="109.178 40.527 109.324 40.308 109.105 40.162 108.959 40.381" mask="url(#logo-mobile-b)"/>
    <polygon fill="#03233E" points="108.156 41.925 108.318 41.717 108.11 41.556 107.948 41.764" mask="url(#logo-mobile-b)"/>
    <polygon fill="#005A5C" points="106.65 43.076 107.04 43.43 107.395 43.04 107.005 42.686" mask="url(#logo-mobile-b)"/>
    <polygon fill="#003C53" points="105.539 44.281 105.809 44.565 106.094 44.296 105.824 44.012" mask="url(#logo-mobile-b)"/>
    <polygon fill="#00243A" points="105.756 46.722 105.545 46.893 105.717 47.103 105.927 46.932" mask="url(#logo-mobile-b)"/>
    <polygon fill="#55200F" points="64.861 21.148 64.818 21.612 65.283 21.655 65.326 21.192" mask="url(#logo-mobile-b)"/>
    <polygon fill="#55200F" points="65.098 19.426 65.022 19.887 65.483 19.962 65.558 19.501" mask="url(#logo-mobile-b)"/>
    <polygon fill="#5A030D" points="75.061 7.759 74.865 7.502 74.607 7.697 74.803 7.954" mask="url(#logo-mobile-b)"/>
    <polygon fill="#6D0D10" points="76.503 6.789 76.297 6.474 75.982 6.68 76.188 6.995" mask="url(#logo-mobile-b)"/>
    <polygon fill="#67170D" points="90.748 2.433 90.729 2.884 91.181 2.902 91.2 2.452" mask="url(#logo-mobile-b)"/>
    <polygon fill="#3B160A" points="92.541 2.619 92.505 2.94 92.827 2.975 92.863 2.655" mask="url(#logo-mobile-b)"/>
    <polygon fill="#44190B" points="94.248 2.839 94.184 3.187 94.533 3.25 94.596 2.902" mask="url(#logo-mobile-b)"/>
    <polygon fill="#9E3821" points="95.822 2.984 95.65 3.663 96.33 3.835 96.502 3.156" mask="url(#logo-mobile-b)"/>
    <polygon fill="#43250E" points="97.61 3.647 97.49 4.012 97.855 4.131 97.975 3.766" mask="url(#logo-mobile-b)"/>
    <polygon fill="#EE3F23" points="98.763 4.73 99.6 5.07 99.941 4.233 99.103 3.894" mask="url(#logo-mobile-b)"/>
    <polygon fill="#C93126" points="100.397 5.366 101.107 5.713 101.455 5.003 100.744 4.656" mask="url(#logo-mobile-b)"/>
    <polygon fill="#A83723" points="101.953 6.126 102.58 6.488 102.942 5.862 102.315 5.501" mask="url(#logo-mobile-b)"/>
    <polygon fill="#892F1B" points="103.476 6.991 103.995 7.34 104.344 6.822 103.825 6.473" mask="url(#logo-mobile-b)"/>
    <polygon fill="#5F290D" points="104.962 7.96 105.348 8.261 105.65 7.876 105.263 7.575" mask="url(#logo-mobile-b)"/>
    <polygon fill="#5F290D" points="106.283 9.041 106.648 9.368 106.974 9.004 106.61 8.677" mask="url(#logo-mobile-b)"/>
    <polygon fill="#12497F" points="114.645 28.762 114.615 29.273 115.127 29.303 115.157 28.792" mask="url(#logo-mobile-b)"/>
    <polygon fill="#0B7556" points="107.788 44.576 108.268 45.021 108.714 44.542 108.234 44.096" mask="url(#logo-mobile-b)"/>
    <polygon fill="#148E5E" points="107.05 45.279 106.534 45.763 107.018 46.278 107.535 45.795" mask="url(#logo-mobile-b)"/>
    <polygon fill="#54200D" points="63.034 20.32 62.981 20.76 63.422 20.813 63.475 20.371" mask="url(#logo-mobile-b)"/>
    <polygon fill="#460008" points="81.829 1.83 81.913 2.103 82.187 2.019 82.103 1.746" mask="url(#logo-mobile-b)"/>
    <polygon fill="#9F1C20" points="83.866 1.152 83.353 1.275 83.476 1.787 83.989 1.664" mask="url(#logo-mobile-b)"/>
    <polygon fill="#9E1C20" points="85.059 .91 85.148 1.422 85.661 1.333 85.572 .822" mask="url(#logo-mobile-b)"/>
    <polygon fill="#400008" points="87.218 1.003 87.188 .734 86.918 .763 86.948 1.032" mask="url(#logo-mobile-b)"/>
    <polygon fill="#E31E25" points="88.418 .416 88.449 1.122 89.157 1.091 89.126 .385" mask="url(#logo-mobile-b)"/>
    <polygon fill="#ED332B" points="90.114 .319 90.097 1.132 90.911 1.149 90.927 .337" mask="url(#logo-mobile-b)"/>
    <polygon fill="#ED342C" points="91.86 .382 91.79 1.199 92.608 1.269 92.678 .452" mask="url(#logo-mobile-b)"/>
    <polygon fill="#EE412F" points="93.532 .467 93.386 1.441 94.362 1.588 94.508 .613" mask="url(#logo-mobile-b)"/>
    <polygon fill="#EE3A25" points="95.308 .819 95.124 1.671 95.978 1.856 96.163 1.004" mask="url(#logo-mobile-b)"/>
    <polygon fill="#EE3A25" points="96.776 2.056 97.617 2.295 97.856 1.455 97.015 1.217" mask="url(#logo-mobile-b)"/>
    <polygon fill="#ED3523" points="98.698 1.733 98.411 2.541 99.22 2.828 99.508 2.02" mask="url(#logo-mobile-b)"/>
    <polygon fill="#712913" points="103.272 4.561 103.732 4.833 104.005 4.373 103.544 4.101" mask="url(#logo-mobile-b)"/>
    <polygon fill="#692610" points="104.738 5.457 105.161 5.746 105.45 5.323 105.027 5.035" mask="url(#logo-mobile-b)"/>
    <polygon fill="#692610" points="106.128 6.449 106.532 6.764 106.847 6.36 106.443 6.046" mask="url(#logo-mobile-b)"/>
    <polygon fill="#143359" points="116.634 28.814 116.614 29.19 116.99 29.21 117.01 28.834" mask="url(#logo-mobile-b)"/>
    <polygon fill="#142C50" points="118.569 28.805 118.551 29.158 118.905 29.176 118.923 28.823" mask="url(#logo-mobile-b)"/>
  </g>
</svg>
