<svg xmlns="http://www.w3.org/2000/svg" xmlns:xlink="http://www.w3.org/1999/xlink" width="16" height="13" viewBox="0 0 16 13">
  <defs>
    <path id="twitter-a" d="M17.5,5.64658333 C16.9483333,5.89741667 16.355,6.06741667 15.7325,6.14325 C16.3691667,5.75325 16.8566667,5.13491667 17.0858333,4.39741667 C16.4908333,4.75908333 15.8333333,5.02158333 15.1308333,5.16241667 C14.5708333,4.54991667 13.77,4.16658333 12.885,4.16658333 C11.1866667,4.16658333 9.80833333,5.57991667 9.80833333,7.32241667 C9.80833333,7.56991667 9.835,7.80991667 9.8875,8.04075 C7.33,7.90908333 5.06333333,6.65408333 3.54416667,4.74325 C3.27916667,5.21075 3.1275,5.75325 3.1275,6.33075 C3.1275,7.42491667 3.67083333,8.39075 4.49666667,8.95741667 C3.99333333,8.94241667 3.5175,8.79825 3.1025,8.56325 L3.1025,8.60241667 C3.1025,10.1315833 4.16333333,11.4074167 5.57166667,11.6965833 C5.31333333,11.77075 5.04166667,11.8074167 4.76083333,11.8074167 C4.56333333,11.8074167 4.36916667,11.7890833 4.18166667,11.7515833 C4.57333333,13.0049167 5.70916667,13.9174167 7.05583333,13.9424167 C6.00333333,14.7890833 4.67583333,15.29325 3.23416667,15.29325 C2.98583333,15.29325 2.74083333,15.2790833 2.5,15.2499167 C3.86166667,16.1440833 5.48,16.6665833 7.2175,16.6665833 C12.8783333,16.6665833 15.9733333,11.8590833 15.9733333,7.68908333 C15.9733333,7.55158333 15.9708333,7.41408333 15.9658333,7.27991667 C16.5666667,6.83491667 17.0891667,6.27908333 17.5,5.64658333"/>
  </defs>
  <g fill="none" fill-rule="evenodd" transform="translate(-2 -4)">
    <rect width="20" height="20"/>
    <mask id="twitter-b" fill="#fff">
      <use xlink:href="#twitter-a"/>
    </mask>
    <use fill="#000" xlink:href="#twitter-a"/>
    <g fill="#FFF" mask="url(#twitter-b)">
      <rect width="20" height="20"/>
    </g>
  </g>
</svg>
