<svg xmlns="http://www.w3.org/2000/svg" xmlns:xlink="http://www.w3.org/1999/xlink" width="26" height="22" viewBox="0 0 26 22">
  <defs>
    <path id="twitter-footer-a" d="M29.75,9.59919167 C28.8121667,10.0256083 27.8035,10.3146083 26.74525,10.443525 C27.8275833,9.780525 28.6563333,8.72935833 29.0459167,7.47560833 C28.0344167,8.09044167 26.9166667,8.53669167 25.7224167,8.77610833 C24.7704167,7.73485833 23.409,7.08319167 21.9045,7.08319167 C19.0173333,7.08319167 16.6741667,9.48585833 16.6741667,12.4481083 C16.6741667,12.8688583 16.7195,13.2768583 16.80875,13.669275 C12.461,13.4454417 8.60766667,11.3119417 6.02508333,8.063525 C5.57458333,8.858275 5.31675,9.780525 5.31675,10.762275 C5.31675,12.6223583 6.24041667,14.264275 7.64433333,15.2276083 C6.78866667,15.2021083 5.97975,14.957025 5.27425,14.557525 L5.27425,14.6241083 C5.27425,17.2236917 7.07766667,19.3926083 9.47183333,19.8841917 C9.03266667,20.010275 8.57083333,20.0726083 8.09341667,20.0726083 C7.75766667,20.0726083 7.42758333,20.0414417 7.10883333,19.9776917 C7.77466667,22.1083583 9.70558333,23.6596083 11.9949167,23.7021083 C10.2056667,25.1414417 7.94891667,25.998525 5.49808333,25.998525 C5.07591667,25.998525 4.65941667,25.9744417 4.25,25.9248583 C6.56483333,27.4449417 9.316,28.3331917 12.26975,28.3331917 C21.8931667,28.3331917 27.1546667,20.1604417 27.1546667,13.0714417 C27.1546667,12.8376917 27.1504167,12.6039417 27.1419167,12.3758583 C28.1633333,11.6193583 29.0515833,10.6744417 29.75,9.59919167"/>
  </defs>
  <g fill="none" fill-rule="evenodd" transform="translate(-4 -7)">
    <rect width="34" height="34"/>
    <mask id="twitter-footer-b" fill="#fff">
      <use xlink:href="#twitter-footer-a"/>
    </mask>
    <use fill="#000" xlink:href="#twitter-footer-a"/>
    <g fill="#1D213A" mask="url(#twitter-footer-b)">
      <rect width="34" height="34"/>
    </g>
  </g>
</svg>
